<?xml version="1.0" standalone="no"?>
<!DOCTYPE svg PUBLIC "-//W3C//DTD SVG 1.1//EN" "http://www.w3.org/Graphics/SVG/1.1/DTD/svg11.dtd" >
<svg>
<metadata>
Created by FontForge 20120731 at Wed Feb 13 04:05:03 2019
 By www-data
Copyright 2002 by S. John Ross
</metadata>
<defs>
<font id="AtlasoftheMagi" horiz-adv-x="600" >
  <font-face 
    font-family="Atlas of the Magi"
    font-weight="400"
    font-stretch="normal"
    units-per-em="1000"
    panose-1="2 0 5 5 0 0 0 2 0 4"
    ascent="800"
    descent="-200"
    x-height="536"
    cap-height="691"
    bbox="18 -190 1058 850"
    underline-thickness="30"
    underline-position="-118"
    unicode-range="U+0020-201D"
  />
<missing-glyph horiz-adv-x="500" 
 />
    <glyph glyph-name=".notdef" horiz-adv-x="500" 
 />
    <glyph glyph-name=".null" horiz-adv-x="0" 
 />
    <glyph glyph-name="nonmarkingreturn" horiz-adv-x="500" 
 />
    <glyph glyph-name="space" unicode=" " horiz-adv-x="499" 
 />
    <glyph glyph-name="space" unicode="&#xa0;" horiz-adv-x="499" 
 />
    <glyph glyph-name="exclam" unicode="!" horiz-adv-x="181" 
d="M144 623l5 19h-1q2 5 3 10t1 7q0 8 -6 20.5t-11 21t-6 9.5q-15 17 -33 17q-35 0 -54.5 -32t-19.5 -82v-15q8 -34 14 -70t9.5 -68.5t5.5 -57.5t2 -36v-17q0 -11 1.5 -18l3 -14t3 -14.5t1.5 -18.5v-17v-33q1 -29 5 -48t25 -24q32 4 42 38q-2 77 -4 128.5t-2 88.5
q0 3 1.5 14.5t3 27t3 32t1.5 30.5q0 3 -0.5 5.5t-0.5 4.5v3q8 18 8 45v44zM158 82q-5 20 -20 27t-30 12l1 -1q-3 1 -6.5 2t-5.5 1q-3 0 -11 -4t-16 -5q-15 -2 -27 -7t-12 -29q0 -29 6.5 -45.5t16 -25t20 -11t17.5 -2.5h7q29 0 45 20t16 50v9q0 5 -2 11z" />
    <glyph glyph-name="FL0022h" unicode="&#x22;" 
 />
    <glyph glyph-name="numbersign" unicode="#" horiz-adv-x="714" 
d="M689 278q-2 54 -45 68q-12 -2 -21.5 -10.5t-16.5 -19.5t-11 -21.5t-7 -15.5q-8 -3 -22.5 -6t-30 -6.5t-30 -7.5t-20.5 -7h1q-3 -2 -6.5 -3.5t-5.5 -1.5l2 1h-3q-4 0 -5 13t-1 24q0 3 1.5 16t4 30t4 34.5t1.5 30.5v8q2 3 7 5h6q10 0 23.5 2t26.5 5t24.5 5t19.5 2h4
q6 -5 9.5 -11.5t7 -12.5t9 -10.5t16.5 -4.5q26 0 40.5 22t14.5 76q0 -1 -2.5 10t-9 25t-17 25.5t-26.5 11.5q-22 0 -27.5 -11.5t-10.5 -30.5q-8 -10 -21 -15.5t-29 -8.5t-33.5 -3.5t-33.5 -1.5q1 0 3 17.5t6.5 39.5t13 40.5t23.5 20.5q12 0 23.5 1.5t20.5 6t15 13t6 23.5v6
q-18 25 -48 25q-8 0 -17.5 -1.5t-18.5 -3t-15.5 -2.5t-7.5 -1q-50 2 -97.5 4.5t-96.5 6.5h-2h-12h-10q-5 0 -12.5 0.5t-21.5 1.5h-20q-11 0 -22 -1t-19.5 -4.5t-14 -11.5t-5.5 -21q4 -13 15 -19.5t23 -10t23.5 -6t16.5 -7.5q8 -5 13 -7.5t11 -4.5q5 -23 9 -40t6 -30
q-1 -3 -1.5 -6t-0.5 -8q0 -6 1 -14.5t3 -15.5l2 -11q0 -9 -4 -14q-42 -5 -66 -11.5t-38 -6.5q-6 0 -11.5 5t-11.5 12t-14 13.5t-18 8.5q-12 17 -21 19.5t-16 2.5q-17 0 -29 -14t-12 -55v-9q0 -2 0.5 -4.5t0.5 -5.5v-7q0 -8 -1 -20t-3 -21l-2 -14q0 -21 12 -33t30 -12
q16 0 28.5 9.5t22.5 20.5t18 20.5t14 9.5q7 1 16.5 4.5t18.5 8t17.5 8t15.5 3.5q1 0 1.5 -0.5t1.5 -0.5h5q7 2 10 2.5t17 2.5h5q7 0 10 -1l2 -105q-5 -13 -4.5 -33t-1.5 -34q-47 -21 -113 -21h-28q-11 6 -16.5 12t-10 11.5t-9 8.5t-12.5 3q-24 0 -34 -17.5t-10 -54.5v-12
q-6 -23 -6 -43q0 -22 8 -40t31 -18q12 0 20 5t14.5 13t13.5 17.5t17 19.5q2 18 20.5 24.5t37.5 10.5h-1q1 0 1.5 0.5t2.5 0.5h2q14 0 31 4.5t22 4.5q7 0 12 -4q-6 -45 -14.5 -58t-18.5 -13q-7 0 -10 1q-40 -16 -40 -45q6 -13 36 -24q9 0 101 -3q3 1 18 1h13t18 -1h16
q22 0 36 3l97 -7h10q10 0 30 -2q26 0 41 15t15 27t-13.5 19.5t-30.5 12.5t-33.5 7t-22.5 3q-8 7 -13 17t-5 25q0 -1 -1 1t-3 9t-5.5 20t-8.5 36q3 -7 9 -7q3 0 7 4l6 6q5 1 11 1.5t14 2.5h-1q20 2 42 5.5t32 4.5q9 -6 13 -14.5t8 -16.5t11 -13.5t22 -5.5q23 0 37.5 13
t14.5 30q0 5 -3 11v76zM395 235q-15 -7 -41 -7h-16q-2 5 -2 11v13l2 12q2 12 3.5 28t1.5 33v10t-1 9l1 48l12 3q17 4 35 4q2 0 4 -0.5t4 -0.5h1q-2 -55 -3 -95.5t-1 -67.5zM388 469h-3l3 -1q-5 2 -8 2h-5q-14 0 -23 -2l-9 -2l-1 1q0 5 -0.5 15.5t-1.5 30.5v5q0 7 4 19.5
t10.5 24t14 20.5t15.5 9l15 -22q6 -62 6 -94q-11 -6 -17 -6zM384 110q0 -4 1 -8t1 -7q0 -9 -3.5 -13t-24.5 -4q-5 0 -8.5 8.5t-6.5 20t-4.5 23.5t-2.5 19q8 5 19.5 7.5t25.5 3.5q2 -11 3 -20.5t1 -17.5q0 -6 -1 -10v-2z" />
    <glyph glyph-name="dollar" unicode="$" horiz-adv-x="873" 
d="M851 34q-21 30 -51 30q-10 0 -20 -3q-32 23 -46.5 65t-14.5 89q0 14 1.5 27.5t1.5 27.5q0 8 -2 21.5t-4 27.5t-4 27.5t-2 21.5q0 6 1 10v2q0 2 -4 15.5t-8 33.5v-1q-2 10 -2.5 19t-3.5 14v9q0 43 2.5 84t18.5 66l-1 -2h2t6 2l-1 -1q11 3 24 8t13 19q0 18 -10 25t-42 14
q-11 -2 -22 -2h-18h-16t-13 2q-8 -2 -16 -2h-15h-12q-2 0 -3 -1t-3 -2v1q0 2 -10 1t-26 1h-6q-13 0 -27.5 -7t-14.5 -21q0 -8 7 -14q35 -18 35 -65v-3q-21 -43 -33.5 -69.5t-20 -44.5t-13 -32.5t-13.5 -33t-21 -46t-35 -71.5q-3 9 -8 27.5t-11.5 39t-13 40t-11.5 30.5l1 -2
q-8 31 -17 53t-17.5 38t-15 27t-9.5 19q-2 13 -7 28t-7 29q3 5 11.5 8t17.5 6.5t16 8.5t7 15t-7.5 18t-19 12.5t-24.5 7t-24 2.5q-96 -9 -151 -9h-17q-23 -13 -23 -28v-3q4 -13 13.5 -19t19 -11t17 -11.5t9.5 -20.5q0 -7 9 -7q3 0 7 2q-3 -8 -7 -26t-4 -46v-14q8 -14 8 -31
q0 -23 -1.5 -37t-2.5 -19v-5q1 -10 1.5 -20.5t0.5 -21.5t-0.5 -36.5t-2.5 -58t-5.5 -67t-9 -63t-14 -47t-19.5 -18.5l-9 3q-8 3 -15 3q-19 0 -36 -15.5t-17 -34.5v-4q21 -25 48 -29t59 -4h7q18 0 156 12q22 10 22 27v3q-1 15 -9 21.5t-22 6.5q-14 -1 -19 -1h-8
q-29 40 -37 68v39q3 10 3 32q0 13 -1.5 31t-1.5 31q0 23 4 36v9q0 51 18 236q22 -55 36 -90.5t22 -58t11.5 -35.5t6 -23.5t5.5 -22t8 -31.5v1q12 -47 24.5 -86t16.5 -63q0 -38 4 -55.5t4 -33.5v-10q13 -30 41 -30q9 0 17 4t14.5 9t10.5 10t4 7l-2 65q-4 9 -4 20q0 3 2 13
t5 22.5t5 25t2 20.5v7q14 60 24.5 97.5t26.5 63.5q20 45 37.5 77.5t31.5 53.5q7 29 17 49q2 -5 4 -18t4 -28t3.5 -29t1.5 -21q0 -8 -1 -11v-16q0 -12 1 -32.5t2.5 -41.5t3.5 -38t4 -22v-15t-1 -13q6 -36 6 -65q0 -17 -2 -36.5t-6 -37.5t-8.5 -32t-9.5 -20q-2 -5 -14.5 -6.5
t-27.5 -4.5t-28.5 -9.5t-18.5 -21.5q7 -24 25 -24l96 1q26 -4 47 -5t38 -1h18q1 1 4 1q-1 0 3 -0.5t9.5 -1.5t11 -1.5t8.5 -0.5h12q16 0 26.5 4.5t17 10.5t9.5 12.5t3 10.5v4zM231 558q2 -6 3 -8q-3 0 -3 8z" />
    <glyph glyph-name="FL0025h" unicode="%" 
 />
    <glyph glyph-name="FL0026h" unicode="&#x26;" 
 />
    <glyph glyph-name="FL0027h" unicode="'" 
 />
    <glyph glyph-name="parenleft" unicode="(" horiz-adv-x="367" 
d="M341 -146q6 6 6 16q0 18 -11.5 29.5t-25.5 11.5q-9 0 -24 -4t-20 -4q-9 6 -18.5 20t-18 29t-14.5 28.5t-8 18.5q0 8 2 13t2 13v3q0 12 -6.5 16t-15 8t-15 10.5t-6.5 24.5q0 7 0.5 13t1.5 12q-7 25 -12.5 35t-9.5 14.5t-7 6.5t-4 10q-6 16 -8.5 25t-3 14.5t-0.5 10.5v13
q-1 43 -2 76.5t-2 57.5q4 38 6 69.5t2 54.5v16q0 4 3.5 11t8 15.5t8.5 17.5t4 17v3q4 10 4 19q0 1 -0.5 6.5t-1.5 12t-1.5 12t-0.5 8.5q0 15 8.5 22.5t18 12t18 10t8.5 16.5q0 6 -5 12.5t-5 9.5q6 10 9.5 20t6.5 18.5t6.5 14t9.5 5.5q1 0 5.5 -1t10.5 -3h-1q5 -2 11 -2.5
t10 -0.5q15 0 25.5 12t10.5 23t-7.5 19.5t-18 14t-22.5 8t-21 2.5q-20 0 -35.5 -7t-23.5 -29q-15 -21 -31.5 -51t-32.5 -72v1q-21 -31 -37.5 -73t-27.5 -85t-17 -82t-6 -65q0 -20 6.5 -70.5t23.5 -135.5q4 -20 8.5 -34t10 -27t11.5 -27t13 -33q5 -12 8.5 -24t5.5 -20
q28 -53 45.5 -86t28.5 -54q7 -17 19.5 -33t40.5 -17l1 -1l10 -3q9 -3 16.5 0t11.5 9q14 5 31.5 9.5t28.5 12.5z" />
    <glyph glyph-name="parenright" unicode=")" horiz-adv-x="327" 
d="M306 398v1q0 1 -2 6l1 -1q-1 5 -3 15.5t-4.5 22.5t-4 24.5t-1.5 21.5v13q-8 31 -11 54.5t-7.5 42t-14 34t-31.5 32.5q-37 88 -67 136.5t-52 48.5q-11 0 -24.5 -4.5t-25.5 -10t-20 -11t-8 -7.5q0 -8 -5.5 -18.5t-5.5 -19.5q0 -15 7 -21t17.5 -7.5t22.5 -1t23 -1.5v-3
q0 -9 3.5 -17t8 -15t8.5 -12t4 -6q0 1 4 -6t10 -18t13 -24.5t13 -26.5l5 -12v1q15 -59 15 -86q0 -4 -0.5 -8t-0.5 -8q1 -26 1.5 -48.5t0.5 -39.5q0 -11 -2 -27t-4 -34.5t-4 -37.5t-2 -36q0 -22 4 -35q-1 -29 -2.5 -59.5t-5 -59t-9.5 -54.5t-15 -45q1 -5 1 -11v-13
q0 -12 -0.5 -26.5t-4 -27.5t-10.5 -22.5t-20 -11.5q-26 -5 -40 -13.5t-14 -25.5v-2q0 -6 1 -10t5.5 -8.5t15 -11t29.5 -16.5q19 -12 41 -12q17 0 28 13t18 32.5t11.5 42t7.5 41.5q21 15 32 46.5t16 82.5q4 18 10 34l12 32t10 32.5t4 36.5q2 7 4 16.5t3.5 19.5t3 18t4.5 12
q2 38 3 65t1 41q0 9 -2 14h1z" />
    <glyph glyph-name="FL002Ah" unicode="*" 
 />
    <glyph glyph-name="FL002Bh" unicode="+" 
 />
    <glyph glyph-name="comma" unicode="," horiz-adv-x="185" 
d="M157 82q-20 37 -60 37q-32 0 -50.5 -22t-19.5 -51v-3q0 -23 31 -44q-2 -6 -9.5 -18.5t-9.5 -27.5q-1 -6 -4 -15t-6.5 -19t-6 -19.5t-2.5 -16.5v-9q9 -16 20 -16q8 0 21 14.5t26.5 32.5t23.5 34.5t12 20.5q-1 0 5.5 10.5t14.5 25t14.5 30.5t6.5 28q0 14 -7 27v1z" />
    <glyph glyph-name="hyphen" unicode="-" horiz-adv-x="741" 
d="M717 299q-2 4 -2 9q0 3 1 8.5t1 12.5q0 18 -10.5 25t-27.5 7q-27 0 -43 -19q-23 -3 -46 -5t-48 -4q-4 1 -8.5 1.5t-10.5 0.5q-11 0 -25 -2t-25 -2h-9t-6 1q-20 -3 -42 -3q-51 0 -80.5 2t-47.5 4t-29 4t-25 2l-58 -5q-17 -1 -32 -2t-22 -1q-12 0 -21.5 2.5t-17.5 6
t-16.5 6t-17.5 2.5q-17 -9 -22 -17.5t-5 -16.5v-11q0 -32 10 -46.5t36 -14.5q8 0 17 4t20 8.5t25.5 8.5t33.5 4q16 0 33.5 -1t28.5 -1q13 0 19.5 0.5t9.5 1.5q80 -4 122.5 -6.5t66 -4t37 -2t34.5 -0.5h28q5 -2 13 -2h20h26l-8 2q0 1 13 2t29 2t31 1h18l4 -16q29 14 29 50z
" />
    <glyph glyph-name="period" unicode="." horiz-adv-x="183" 
d="M153 78l-18 23q-9 12 -39 12q-7 0 -17 -0.5t-19 -4t-15.5 -10t-6.5 -18.5v-2q-14 -27 -16 -51q3 -6 8 -12t13 -11.5t22 -8.5t35 -3q-2 0 7.5 2t21.5 7.5t22 14.5t10 24q0 16 -6 36z" />
    <glyph glyph-name="FL002Fh" unicode="/" horiz-adv-x="505" 
d="M279 608q0 5 -9.5 7.5t-20.5 6.5t-20.5 11t-10.5 21q0 7 7 11.5t16.5 7.5t19.5 5t17 3q42 5 73 5h52q19 5 27.5 8t9.5 3q12 0 24 -7t20 -29l1 -8q0 -14 -9 -24t-21 -17.5t-24 -12t-17 -7.5q-31 -32 -50 -83l1 2q-4 -14 -11 -40.5t-16 -58t-18.5 -64t-17.5 -59.5t-13 -44
l-5 -17q-3 -42 -21 -60q-7 -20 -12.5 -36t-9.5 -26q2 -26 6 -39t24 -13q11 0 28 3q58 -14 62 -42q-7 -13 -17 -17t-21 -7h1q-2 -1 -4.5 -1.5t-4.5 -1.5h-7q-2 0 -3.5 0.5t-3.5 0.5q-8 0 -18.5 -1.5t-21.5 -3.5t-20 -3.5t-13 -1.5q-7 0 -14 1.5t-13 1.5q-13 0 -34.5 -3
t-33.5 -3q1 0 -16.5 1t-39.5 5t-40 13t-18 24q0 11 6.5 17t15.5 11q4 -1 12 -1h22q18 4 39.5 9.5t31.5 22.5h-5q2 1 3.5 1.5t3.5 1.5q0 -1 -2 -3l2 3q16 9 23 27q-1 5 -1 10v10v8q5 8 9 18.5t7.5 21.5t7 20.5t6.5 15.5q7 29 13.5 50t12.5 35v6q0 17 8 35t8 28q0 6 -2 14v2
q0 -2 3.5 12.5t8 35t8 41t4.5 29.5q4 22 6.5 36.5t4 25t2 19.5t1.5 20v9z" />
    <glyph glyph-name="zero" unicode="0" horiz-adv-x="909" 
d="M885 373q-14 28 -41 53t-54 44.5t-48 33.5t-24 20q-16 31 -28 38q-51 28 -83.5 48t-55 33t-39.5 18.5t-37 5.5q-76 0 -141 -51q-31 -14 -51.5 -24t-37 -19.5t-33.5 -21.5t-42 -30q-16 -11 -28.5 -20t-20.5 -11q-69 -95 -73 -98q-13 -29 -20 -47t-7 -23q14 -44 16 -69
q0 -21 11 -44.5t28.5 -45t38 -38.5t39.5 -24q37 -13 47 -22q28 -15 50 -24t36 -13l-1 1q23 -10 38.5 -17t28 -11.5t24 -7.5t26.5 -5h5q44 -22 108 -22l35 3q23 2 45 8t35 23q12 4 29 13.5t33.5 21t30.5 21.5t20 15l6 3l40 46q1 3 7.5 9t14 14t14.5 17.5t8 19.5
q13 22 20.5 35.5t12 24.5t7.5 23t9 30q2 12 3.5 21.5t1.5 19.5q0 8 -2 16v-1q0 2 -0.5 3t-0.5 3v4zM711 201q-9 -9 -22 -16.5t-20 -21.5q-10 -5 -25 -15.5t-31 -23t-31 -23.5t-25 -17q-21 -3 -56 -13l3 1q-8 0 -37 3t-79 10q-71 30 -119.5 58t-63.5 37l-6 3h1q-8 4 -16 15.5
t-16 25t-15.5 26t-15.5 18.5q-29 56 -29 72q0 54 83 94l71 67q12 11 21.5 18t18.5 12t18 9t20 9h-1q38 14 61 30t31 16q3 0 10 -2.5t15 -6t15 -7t10 -4.5q26 -17 44.5 -27.5t31.5 -14.5l-2 2q30 -20 52 -36t36 -27q9 -2 19 -8.5t20 -13.5t20 -13.5t18 -8.5l39 -33
q11 -8 17 -17t10 -17q-19 -101 -75 -160zM517 223v116q0 5 1.5 18.5t1.5 31.5v6q0 11 -1 21.5t-6 19t-15 14t-28 5.5q-21 0 -39.5 -9.5t-18.5 -38.5l3.5 -14t1.5 -14q0 -12 -3 -26.5t-8 -32.5q2 -9 2 -14v-7q0 -16 -1 -30t-2 -24v1q-1 -5 -1 -9v-5q0 -23 10.5 -43.5
t30.5 -20.5q5 0 6 1h2q15 0 30 13t32 36z" />
    <glyph glyph-name="one" unicode="1" horiz-adv-x="581" 
d="M555 53q-14 20 -40 22q-6 -2 -13 -2h-15q-13 0 -29.5 1t-29.5 1q-19 0 -34 -3q-13 9 -20 17.5t-10.5 19t-4.5 23t-1 29.5v42q0 13 -1 21.5t-2.5 21t-4.5 43.5v11q0 24 5 38q-4 16 -5 29.5t-1 25.5q0 46 26 67l21 27q14 17 14 30v6q-11 19 -40 19q-13 0 -27 -5t-26.5 -11
t-22.5 -12.5t-14 -9.5q-8 -2 -17 -6t-18 -9t-16.5 -8.5t-13.5 -3.5q-33 -13 -64 -20.5t-55 -14.5t-38.5 -17t-14.5 -27t10 -24.5t27 -7.5h5q46 10 79.5 16.5t56.5 11.5q23 -2 36 -27v-61q0 -18 1 -34t4 -28q-4 -9 -4 -27v-12q3 -20 3 -27q0 12 2 12t4.5 -2.5l7.5 -7.5
q-6 4 -7 4q-5 0 -7.5 -11t-2.5 -45q0 -18 -9.5 -24.5t-25.5 -9t-37.5 -5.5t-46.5 -14q-20 -2 -40.5 -5t-37.5 -9.5t-28 -17t-13 -25.5q1 -8 7.5 -15.5t14.5 -13.5h27q20 0 36 1t27 5q27 -3 48 -3h12q34 2 63.5 3t53.5 1q20 0 35.5 -0.5t28.5 -1.5h49q31 0 56.5 -0.5
t42.5 -1.5q39 25 39 44q0 2 -0.5 4.5t-2.5 6.5z" />
    <glyph glyph-name="two" unicode="2" horiz-adv-x="892" 
d="M871 -139v16q0 16 -0.5 37t-1 41t-1 36.5t-0.5 23.5l-12 13q-7 3 -8 3.5t-10 5.5q-6 7 -14 7h-2q-17 -1 -27 -13t-10 -26v-40q-10 -22 -25 -35t-34.5 -19.5t-42 -8.5t-46.5 -2h-89q-69 0 -110 -1.5t-67 -3t-42.5 -3t-37.5 -1.5q-11 0 -19.5 1t-17 2.5t-17.5 3t-22 1.5
h-10t-10 -1q-23 0 -35.5 1.5t-12.5 9.5q0 7 7 17t17 19.5t19 17.5t14 12h-1q6 1 13 6.5l14 11t13.5 10t12.5 4.5q6 4 17.5 7.5t24.5 7t25.5 7.5t21.5 9q51 10 99.5 23t96.5 33l-2 -1q17 4 31.5 11.5t30 21.5t34 35.5t42.5 52.5q13 41 22 63.5t9 39.5q0 8 -2 21t-2 30
q0 8 1 15.5t1 15.5q0 68 -68 123l-35 21q-8 1 -13.5 1.5t-12.5 0.5q-6 0 -15.5 0.5t-24.5 0.5h-11q-33 0 -52 -13q-39 -4 -71.5 -8.5t-59.5 -12.5t-49 -22t-40 -36q-5 -5 -10 -11.5t-10 -12.5t-8.5 -10t-4.5 -4t-6 2.5l-12 6t-15 6t-14 2.5q-17 0 -28.5 -11.5t-11.5 -22.5
v-6q17 -26 26.5 -37t17.5 -19v1q9 -11 16 -20.5t14 -20.5t13.5 -25t13.5 -35q11 -24 25.5 -43t32.5 -19q16 0 29.5 14.5t15.5 29.5q-8 13 -16.5 28t-15 30t-11 29t-4.5 26q0 25 14.5 48.5t48.5 42.5q11 8 23 14.5t20 7.5q34 8 53.5 12.5t31.5 6.5t20.5 2.5t22.5 0.5
q22 0 36.5 -12.5t23.5 -33.5t12.5 -49.5t3.5 -60.5q0 -36 -19 -58q-2 -2 -2 -6q0 -3 2 -7v-4q0 -12 -10 -26t-29 -28t-46.5 -26.5t-61.5 -19.5q-51 -12 -77.5 -18t-41 -10t-23 -7.5t-24.5 -9.5q-55 -19 -100 -41t-71 -51q-14 -15 -27.5 -30t-24.5 -30.5t-17.5 -31.5
t-6.5 -34q0 -11 2 -17.5t7.5 -12t15.5 -10t26 -10.5q5 0 31 3t72 3q13 0 20 -1.5t15 -3t23 -2.5t45 -1q35 0 69 3t66 4q71 1 124 3.5t93.5 4t70.5 3t54 1.5q8 0 12.5 -0.5t10.5 -1t16 -1t30 -0.5q13 0 24.5 3.5t19.5 14.5z" />
    <glyph glyph-name="three" unicode="3" horiz-adv-x="890" 
d="M867 166v7q0 5 1 12.5t1 13.5q0 14 -5 31t-16 34l-28 37q-26 14 -42.5 24.5t-24.5 18.5q-35 15 -62 23t-49 11.5t-39.5 4.5t-32.5 1h-7q6 8 17 19t30 26q35 32 45 58.5t10 56.5q0 36 -16.5 64.5t-40 47.5t-49 29t-43.5 10q-49 0 -88.5 -8t-69.5 -25q-25 -5 -54.5 -24
t-69.5 -50q-14 -12 -31 -27t-33 -28t-29.5 -22t-20.5 -9q-6 0 -10.5 3t-9.5 6t-11 6t-14 3q-5 0 -12.5 -2t-14 -6t-11 -10t-4.5 -14q0 -11 10 -18q62 -44 103 -71.5t58 -27.5q19 0 30.5 12t11.5 27v7q-12 12 -12 28q0 9 12 48q10 10 20 18t21.5 15.5t26 15.5t35.5 20h-1
q14 6 29 14.5t24 18.5q23 9 44.5 14t45.5 5h5q9 0 21.5 -1.5t23.5 -10.5t18.5 -28.5t7.5 -55.5q0 -11 -9 -22.5t-20 -21t-22 -17.5t-14 -11l1 1q-29 -22 -54.5 -43.5t-46 -39t-34 -28t-19.5 -10.5q-1 0 -7 3t-12 7v-1q-16 10 -23 11h-3h-3q-10 0 -16 -5q-9 -4 -17.5 -12
t-8.5 -19q0 -13 16.5 -29t37.5 -30.5t40.5 -25.5t24.5 -14q40 -32 61 -32q20 0 32.5 14.5t12.5 25.5v6q0 11 -6.5 16t-11.5 13q17 11 28 17t21 9t21.5 4t28.5 4t33.5 5.5t26.5 2.5q43 -3 67.5 -13.5t36.5 -25.5t14.5 -33.5t2.5 -38.5q0 -35 -10 -58.5t-27.5 -38.5t-41 -23.5
t-51.5 -12.5l-14 -3q-26 -11 -65 -11h-16t-18 2l-111 -2q-6 0 -19.5 3.5t-28.5 7.5t-30 7.5t-24 3.5q-46 21 -74.5 42t-28.5 48q0 3 4 9.5t8.5 15t8.5 17t4 15.5v4q-7 15 -19 20.5t-26 5.5q-23 0 -33 -13q-41 -67 -64 -99l1 2q-15 -14 -22 -29t-14 -32v1q-5 -8 -9.5 -18
t-4.5 -18q0 -11 5.5 -18t13 -11.5t15 -6.5t11.5 -3h4q15 0 24 6t15 15t11.5 21t12.5 24l21 -14t37 -22t51 -24.5t63 -19.5q4 0 8.5 0.5t8.5 0.5h14q24 0 43.5 -2t33.5 -5q17 -1 34.5 -1.5t32.5 -0.5q44 0 76 3.5t53 8.5q35 1 68.5 11t61.5 24.5t49 30.5t32 28l11 14
q33 34 37 71z" />
    <glyph glyph-name="four" unicode="4" horiz-adv-x="882" 
d="M856 282l-7 14q-18 18 -34 18h-3q-31 -9 -34 -16q-13 -37 -38 -64q-42 -6 -70 -6q-10 0 -16.5 1.5t-22.5 1.5q-10 0 -24 -1.5t-24 -1.5q-26 0 -30.5 12t-4.5 37v10v17t1 19t3 15t6 6q1 0 5 -2.5t9 -4.5h-1q17 -10 28 -10q10 0 18 5t13 11t7.5 12t2.5 9v5q-23 34 -80 69
l2 -2q-17 15 -29 28.5t-23.5 23.5t-23 16t-26.5 6q-10 0 -21 -9.5t-11 -26.5v-9l43 -50q3 -24 3 -47v-5q0 -19 -1 -42.5t-6.5 -44.5t-17 -35.5t-32.5 -14.5q-9 0 -25 1.5t-25 1.5q-16 0 -26 -3t-21 -3q-10 0 -26.5 1.5t-34 3t-32 3t-21.5 1.5q-13 0 -23.5 -1.5t-20.5 -3.5
l9 9q41 41 66.5 78.5t39.5 57.5q11 16 17.5 25t10.5 15t6.5 12t7.5 16v-1l4.5 9l5.5 11v-1q15 23 26 48.5t17 45.5q4 18 13 32.5t38 16.5q25 2 41 4t21 3q21 25 24 37q-6 17 -16 23.5t-23 6.5q-25 -1 -49 -1h-45q-48 0 -87 0.5t-71 1.5q-17 0 -32.5 -7t-15.5 -25
q0 -24 18 -32t39.5 -10.5t39.5 -4t18 -12.5t-6 -25.5t-14 -29t-17 -27.5t-15 -20q-10 -29 -20 -49.5t-18.5 -34.5t-13.5 -24t-5 -19q-8 -15 -27 -35t-39.5 -39t-36.5 -34t-19 -20l-7 -4l1 1q-12 -7 -20.5 -14.5t-8.5 -22.5q0 -17 13 -29.5t30 -12.5q15 0 43 11q32 2 59.5 3
t48.5 1t36 -3t41 -3h17q5 1 9 1h10q8 0 14.5 -0.5t11.5 -0.5h-1q4 -1 9 -1.5t13 -0.5q6 0 14 1t16.5 2.5t15.5 3t10 1.5q10 0 16 -5t9 -11.5t4 -13t1 -8.5v-1q0 -8 -8.5 -19.5t-19 -21.5t-21 -17t-14.5 -7q-28 -16 -28 -33v-5q13 -29 42 -31q13 0 21.5 0.5t16.5 0.5
t17.5 0.5t24.5 0.5q20 0 45 -1.5t57 -1.5q6 0 14.5 1.5t16 5.5t12.5 10.5t5 16.5q0 23 -17.5 31.5t-55.5 13.5q-7 4 -10.5 15.5t-5 24t-2 23.5t-1.5 14q2 0 4 2l5 4q17 7 48 7q2 0 4 -0.5t4 -0.5h37h24q11 0 18 1q5 -2 9 -2h13q11 0 23 1.5t19 1.5q17 0 17 -4
q0 -2 -2.5 -12.5l-2.5 -10.5q0 -14 6 -22t13.5 -12t15 -5t10.5 -1q16 0 26 8.5t15 22t6.5 31t1.5 35.5v10q-2 21 -3 41t-2 41z" />
    <glyph glyph-name="five" unicode="5" horiz-adv-x="927" 
d="M899 493q1 10 1 20v19q0 29 -2.5 45.5t-2.5 24.5q0 10 4.5 23.5t4.5 24.5v5q0 22 -20 31t-44 11q-33 -2 -58 -3.5t-42 -1.5q-12 4 -33 4q-15 0 -34 -2t-33 -2q-21 0 -36 5q-11 0 -33 -4t-54 -4q-19 0 -35 6q-70 -7 -117 -10t-81 -4.5t-60 -2.5t-55 -4q-8 0 -21.5 1.5
t-27.5 3t-25.5 3t-14.5 1.5q-21 0 -39.5 -10.5t-18.5 -22.5q0 -5 6 -12t13 -13.5t13 -13t6 -11.5q-2 -35 -2 -62v-44q3 -66 3 -118q0 -49 -1 -81.5t-6 -64.5q-2 -10 -3 -18.5t-1 -14.5q0 -26 15.5 -43t39.5 -17q22 0 37 11t23 24q9 34 20.5 56.5t23.5 37.5t23 23.5t20 14.5
q14 8 31 15.5t34 7.5q69 40 133 40q5 0 14.5 -1.5t20.5 -3t21.5 -2.5t18.5 -1h8t10 2q26 -2 57.5 -11t59.5 -18.5t48 -17t23 -7.5q22 -16 34.5 -43.5t18.5 -59t7 -63t1 -54.5v-10q0 -33 -2.5 -56.5t-8.5 -41t-17 -30.5t-27 -25l-13 -10l-50 -12q-1 0 -1.5 0.5t-1.5 0.5h1
q-5 1 -9.5 1.5t-10.5 0.5t-16.5 -2t-22.5 -4l-24 -4t-21 -2q-2 0 -4 0.5t-4 0.5h-7q-8 -1 -16 -1h-15q-13 0 -37.5 4t-50 8.5t-46.5 8.5t-27 4q-47 17 -83 29t-48 29q-4 20 -4 39q0 25 12 43.5t26.5 31t26.5 20.5t12 12v28q-13 22 -32 22q-3 0 -8.5 -1t-12 -2t-12 -2
t-7.5 -1q-51 -48 -78.5 -75.5t-42 -41.5t-21 -18.5t-16.5 -8.5q1 1 -7 -6.5t-17.5 -18.5t-18 -23t-8.5 -19q0 -11 5.5 -18.5t13 -11.5t13.5 -5.5t8 -1.5q6 0 14 3t16 7t15.5 7t10.5 3q4 0 14 -6.5t22 -15t23.5 -16.5t18.5 -11q20 -8 41 -18.5l41 -20.5q126 -3 188 -26
q29 0 47.5 -1.5t35.5 -1.5q35 3 61.5 4.5t43.5 2.5h8q48 0 85 18t58 34q25 18 43.5 35t30 41t17 59.5t5.5 91.5q0 17 -5.5 51t-17.5 88q1 3 1 8q0 18 -11 34.5t-23 30.5v-1q-12 14 -26.5 29t-40.5 26l-59 28q-17 4 -28.5 6t-21 4t-18.5 3.5t-19 4.5q-30 10 -61 18t-60 8
q-21 0 -34 -0.5t-31 -4.5t-47 -11.5t-81 -22.5q-26 -12 -46 -20t-36 -12q-10 -10 -18.5 -15.5t-16.5 -10t-15 -9t-14 -11.5q-6 -5 -12 -10.5t-12 -10.5q-2 14 -2 24v20v12q2 159 4 163q5 25 13 49.5t28 31.5h-1q45 3 79 5.5t56 4.5q13 3 28 5t34 2q3 0 6 -0.5t6 -0.5h43
q19 0 34 0.5t24 1.5h23q20 0 32.5 -2.5t29.5 -2.5q3 0 9.5 1.5t14 3t15.5 3t13 1.5q2 0 3 -0.5t3 -0.5h4q76 -9 117 -9q24 -18 47 -49v-52q1 -20 11 -39t30 -19q26 0 45 28z" />
    <glyph glyph-name="six" unicode="6" horiz-adv-x="880" 
d="M859 275q-2 9 -4 16.5t-2 9.5v1v1q1 0 1 1v-2q1 3 1 6v7q0 27 -18 43.5t-42.5 27.5t-49 19t-37.5 17h-22q-12 0 -26 3t-19 3q-1 0 -2 -0.5t-2 -0.5h-3q-6 0 -22.5 3.5t-34.5 3.5q-12 0 -21 -3q-5 2 -9 2h-8q-12 0 -23 -2l-22 -4h1q-1 0 -2 -0.5t-2 -0.5h1q-3 1 -7 1h-7
q-23 0 -28.5 -0.5t-5.5 -1.5l1 -1q0 -1 -4.5 -1.5t-2.5 -0.5q-8 0 -10.5 2t-8.5 2q-17 -4 -28.5 -5.5t-21.5 -3t-20 -3.5t-24 -5q-57 -14 -89.5 -22t-53.5 -11q1 3 3.5 7.5t5.5 9.5v-1q4 6 8 13q39 67 71 96t50 35q15 24 36.5 34t44.5 21q12 8 28.5 12.5t39.5 4.5h49
q41 0 58 3q11 14 16 23.5t7 15.5q-17 36 -51 36l-12 -3q-15 5 -33 6.5t-40 1.5q-9 0 -25.5 -0.5t-36.5 -1.5t-41.5 -2t-40.5 -2q-27 -1 -51 -2t-41.5 -5t-27.5 -11.5t-10 -20.5q0 -18 15.5 -28.5t35.5 -12.5q27 11 45 11q2 0 4.5 -0.5t5.5 -0.5l-40 -30q-2 -5 -9.5 -11
t-16.5 -13t-17 -15t-11 -17l1 4q-22 -25 -35 -37t-13 -17q0 -7 -5 -16t-11.5 -18.5t-13 -18t-8.5 -15.5q-17 -22 -34 -47.5t-30.5 -51t-22 -49.5t-8.5 -43q0 -27 21 -87l10.5 -14t7.5 -12h-1q9 -14 18.5 -25t34.5 -23q21 -10 30.5 -15t18 -8.5t21.5 -8t41 -13.5h-1
q34 -14 65 -14h5q6 -4 19.5 -7t27 -5t23.5 -3t11 -1q1 -1 4 -1t4 1h9q10 0 28.5 -1t44.5 -1h15q44 0 71 11l-2 -1q42 8 72.5 13.5t51.5 9.5q57 34 87.5 57t47 43t24.5 40t21 49zM752 262q0 -33 -6.5 -56.5t-20.5 -42t-35.5 -34t-50.5 -31.5h2q-30 -11 -50.5 -18t-38 -11.5
t-36.5 -6t-47 -1.5q-82 0 -136.5 8t-68.5 15l-18 9h1q-55 29 -85 57.5t-30 62.5v3q0 1 0.5 3t0.5 3q-1 4 -1 9q0 34 29.5 50t73.5 26l101 23q21 5 37 8t27 5q2 -1 5 -1h7h13q10 0 24.5 2.5t29.5 6t28 6t20 2.5q14 0 29 -5l65 -7q5 1 10 1h11q19 0 37 -7t33 -16.5t25 -20
t14 -16.5q1 -8 1 -14v-12z" />
    <glyph glyph-name="seven" unicode="7" horiz-adv-x="917" 
d="M895 642q-5 16 -18.5 22t-28.5 10q-2 1 -4 1.5t-3 1.5q-30 -8 -66 -11t-79 -3q-26 0 -54 1t-60 3q-5 -1 -11 -1h-13q-17 0 -36.5 2.5t-33.5 4.5h1q-17 3 -26 3q-14 0 -30 -4.5t-22 -4.5q-2 0 -14.5 3.5t-25.5 3.5q-11 0 -16.5 -2.5t-10.5 -2.5q-19 0 -33.5 3.5t-20.5 3.5
q-14 0 -27 -6q-26 3 -77.5 5t-128.5 2q-37 -22 -37 -41v-3q11 -20 20.5 -44t9.5 -41q0 -25 -2 -45.5t-2 -36.5q5 -15 20 -20t27 -6q15 6 23 18.5t12.5 29t6 33.5t2.5 32l26 38q8 14 19 14q5 0 19.5 -3.5t25.5 -3.5q19 0 29.5 2.5t23.5 2.5q23 0 44 -3t42 -8q73 6 112 6
q34 0 58 -5t48 -5h11q6 0 11 1h6q12 0 27 -1.5t15 -6.5q0 -2 -14 -10t-30 -17h-2q1 0 -9 -3.5t-27 -13t-37.5 -25.5t-39.5 -40v1q-51 -60 -86.5 -106.5t-59.5 -83t-37.5 -65t-19.5 -50.5q-23 -29 -29 -79q0 -10 -10 -18.5t-21 -15.5l1 1l-2 -2h-7q-32 0 -56.5 -9t-24.5 -29
v-6q9 -14 24 -20.5t33 -6.5q8 0 25 1.5t25 1.5q45 0 80 -4t63 -7q5 4 14 4q12 0 22 -1.5t15 -2.5l-1 1q2 -2 6 -2q12 0 21.5 5t16.5 12.5t11 15.5t4 14q-16 31 -62 31h-5q-36 0 -47.5 13.5t-11.5 31.5q0 9 5.5 28t18.5 50v12q0 32 20.5 66.5t43.5 65.5q28 24 40 55
q68 68 107 101l-2 -1q17 8 31 17t23 16l-3 -1q10 3 31.5 15t47.5 25t53.5 23.5t49.5 11.5q9 6 18.5 10.5t17.5 10t13 13t5 19.5q0 1 -0.5 1.5t-0.5 1.5v5z" />
    <glyph glyph-name="eight" unicode="8" horiz-adv-x="888" 
d="M867 152q-2 36 -9 62t-18 45t-25.5 34t-31.5 29q-13 11 -18.5 16.5t-7.5 5.5l-40 9q-2 1 -3 1v0v1q23 33 27 56t4 44v14q0 25 -8 48t-19 42.5t-23 34.5t-20 23l1 -1q-15 18 -36.5 30t-46.5 19t-50.5 10t-48.5 3q-20 0 -43.5 -5t-46 -12.5t-41.5 -15.5t-29 -15l1 1
q-92 -40 -126 -134v-78q12 -20 22 -36t18 -27q-17 -5 -25.5 -7t-17.5 -5.5t-24 -11.5t-46 -24q-28 -15 -48.5 -34t-34 -36t-20 -29t-6.5 -14l1 1q-5 -11 -6 -21.5t-1 -20.5q0 -52 31 -85.5t85 -39.5q11 -2 21.5 -4t23.5 -4.5t30.5 -5.5t42.5 -5t38 -5.5t23 -6.5t20.5 -5.5
t29.5 -2.5h9q2 0 4.5 0.5t4.5 0.5h17q35 0 50 -8q34 -1 59.5 -2t42.5 -3q64 5 99.5 7t57 5.5t35.5 10t35 21.5q37 26 57 59t30 67v4zM742 209q4 -13 4 -27q0 -17 -7 -38.5t-26 -50.5q-4 -6 -8 -11.5t-8 -6.5q-48 -11 -84 -16t-64 -5h-65q-41 0 -68.5 1.5t-58.5 11.5
q-10 3 -20 5t-18 2q-2 0 -2.5 -0.5t-1.5 -0.5h-1q-11 1 -30.5 3.5t-41 5.5t-41.5 6t-30 5l3 -1q-30 12 -35 23.5t-5 26.5v4q0 9 1 21t5 24t12 23.5t22 20.5q18 13 30.5 21.5t19.5 16.5q52 22 149 27q16 7 27 7q4 0 13.5 -2t21 -4l23 -4t20.5 -2h16q12 -3 22.5 -5t20.5 -2
q12 0 23 4q40 -2 63.5 -5t37.5 -7.5t23 -10.5t19 -15v1q17 -17 26 -25t14 -21h-1zM630 406q-2 -6 -4 -12.5t-7 -12.5t-13.5 -9.5t-22.5 -3.5q-9 0 -22.5 1.5t-21.5 1.5q-18 0 -27 -4q-23 4 -48 7.5t-49 6.5t-45 7t-36 9q-9 10 -9 33q0 12 3.5 26t12.5 28q-2 6 -2 8v5
q0 22 14.5 39.5t35 31.5t41.5 23.5t34 15.5h-1q1 0 3 1l4 2q10 -2 36 -9q5 1 10 1h10q68 0 114 -71l-1 1q3 -7 5 -14t2 -15t-2 -21t-5 -27.5t-5.5 -27.5t-3.5 -21z" />
    <glyph glyph-name="nine" unicode="9" horiz-adv-x="892" 
d="M871 342q0 9 -3 21t-10 23v1q0 9 -4.5 17.5t-10.5 17t-12.5 15l-10.5 10.5v-3q0 2 -2 4l-3 4q-48 27 -73.5 41t-45.5 21t-43 9.5t-67 7.5q-62 12 -99 12q-30 -3 -64 -3q-37 0 -77 3q-52 -9 -91.5 -19.5t-68.5 -20.5q-31 -20 -51 -34.5t-33.5 -26t-23 -21.5t-18.5 -20
q-3 -14 -11.5 -29.5t-20.5 -31.5q0 -23 -4 -46t-4 -39q0 -27 11.5 -38t35.5 -22q11 -14 31.5 -25.5t41.5 -20t39 -13.5t24 -5q7 -2 20 -4t27 -4.5t26.5 -4.5t18.5 -4q45 -5 72.5 -7.5t35.5 -2.5q4 0 3 1q3 -3 7 -3h2q13 3 29 4t37 1h29q16 0 34 -2h8q18 0 53 5.5t89 14.5
q-1 -12 -8.5 -29.5t-26.5 -47.5q-11 -17 -16 -25t-7.5 -13t-4.5 -8.5t-6 -11t-12 -21.5t-24 -39h1q-23 -34 -51 -35q-11 3 -23 3q-5 0 -15 -2t-19.5 -6.5t-16.5 -11.5t-7 -16q0 -8 5 -14.5t12 -11.5t15 -7.5t13 -2.5q7 0 15 3q9 0 31 -3t48.5 -6.5t53 -6.5t43.5 -3
q6 2 12.5 3t14.5 1q11 0 26 -2t28 -2q22 0 33.5 6t17 14.5t6.5 18t1 15.5q-8 13 -21.5 19t-30.5 6q-3 0 -9 -0.5t-12.5 -1t-12 -1t-8.5 -0.5q-16 0 -26.5 6t-10.5 18t14 40q19 44 34 77t28 55l-1 -1q4 6 9.5 17.5t11.5 24.5t12.5 24.5t13.5 17.5q6 19 11 32.5t11 23.5
q0 10 3 20.5t8 22.5v-1q5 13 8.5 24t3.5 19q0 5 -0.5 8t-1.5 6v-2q0 1 -0.5 1.5l-0.5 0.5q5 10 5 22zM771 374q1 -9 1 -17v-16q0 -46 -8 -78t-35 -45q-25 -11 -43 -16.5t-32 -9t-24.5 -6t-20.5 -8.5h-26q-24 0 -41.5 1t-29.5 5q-86 -9 -134 -9h3q-31 10 -64 15.5t-69 5.5
h-14q-5 2 -19 4t-31 7h1q-23 6 -23 22v7q-29 44 -29 80t12.5 58.5t30 36t36 20.5t30.5 13q17 7 31 13t27.5 10.5t28 6.5t33.5 2q10 0 32 -2t46.5 -4t46.5 -4t33 -2l64 -2q6 0 19.5 -4t29 -9t31 -9t25.5 -4l12 -5q23 -11 44.5 -24.5t25.5 -33.5v1zM818 448q1 0 1 -1h1l-2 2
v-1z" />
    <glyph glyph-name="FL003Ah" unicode=":" 
 />
    <glyph glyph-name="semicolon" unicode=";" horiz-adv-x="174" 
d="M151 80q-16 37 -72 43q-9 0 -19 -6.5t-18.5 -16.5t-14.5 -21.5t-6 -20.5q0 -5 4.5 -15.5t10.5 -21t11.5 -19.5t7.5 -10v-4q0 -8 -2.5 -20.5t-6 -27.5t-6 -29.5t-2.5 -24.5v-7q3 -18 24 -18q28 0 34 20q12 39 18.5 60.5t10.5 35.5t8 24.5t12 28.5q5 9 6.5 17.5t1.5 16.5v7
q0 4 -2 9zM143 247q-7 13 -19 25t-31 12q-10 0 -21.5 -2.5t-21.5 -9.5t-16.5 -19t-6.5 -31v-8q9 -22 18 -34t17 -17.5t15.5 -6.5t15.5 -1h6q5 0 12 1t13.5 3.5t11 6t4.5 8.5v3q0 6 2 13l4 14v-1q6 15 6 21q0 7 -2.5 12.5t-6.5 10.5z" />
    <glyph glyph-name="FL003Ch" unicode="&#x3c;" 
 />
    <glyph glyph-name="FL003Dh" unicode="=" 
 />
    <glyph glyph-name="FL003Eh" unicode="&#x3e;" 
 />
    <glyph glyph-name="question" unicode="?" horiz-adv-x="747" 
d="M724 444q0 6 1.5 13t1.5 17q0 20 -7 46t-22 51.5t-38 46t-55 30.5v-1q-15 4 -41.5 8t-54 8.5t-51.5 8.5t-33 8h-12q-13 0 -36 2t-48.5 4.5t-49 4.5t-37.5 2h-11q-13 -3 -28.5 -14.5t-29 -24t-22 -22t-7.5 -7.5q-2 -8 -8.5 -14.5l-14.5 -14.5q-37 -49 -37 -101v-19
q-2 1 -5 2t-5 3h1q-13 8 -23 8q-16 0 -24 -8.5t-8 -22.5q0 -5 11 -21.5t26 -37t31.5 -41t27.5 -33.5q8 -2 14 -6t13 -9h-1q12 -9 27 -16.5t28 -7.5q12 5 20.5 15t8.5 27q0 10 -6 23t-20 27q0 8 -2.5 18.5l-5 21t-5 19.5t-2.5 14q-1 8 -1 15v14q0 17 0.5 26t2 17.5t5 18.5
t9.5 28v-1q8 20 19 28t32 8h8t9 -1q12 5 30 5q11 0 24 -1.5t24 -1.5h11t9 1q69 0 116 -9t78 -17l12 -2q37 -9 60 -68v-12q0 -52 -26 -80.5t-80 -30.5q-40 -2 -66 -8t-40 -19q-14 -5 -25 -17.5t-19.5 -26.5t-14.5 -24.5t-10 -10.5q-12 0 -26 5t-28 5q-15 -5 -27 -17t-12 -25
q0 -9 9 -9q8 0 10 7q-2 -17 -6 -17q-1 0 -3 2q6 -8 15 -19.5t20.5 -23t23.5 -21t24 -13.5q9 0 21.5 -10t26.5 -21.5t28.5 -21.5t28.5 -10h6q23 11 29.5 18.5t6.5 20.5q0 7 -3.5 13t-7.5 12t-8.5 13.5t-5.5 18.5q-4 22 -6.5 33.5t-3.5 17.5t-1.5 10.5t-0.5 12.5q0 22 8 30
t24 14l-2 -1q38 5 67.5 10t52.5 10q3 5 15 12.5t26 16.5t27 19t18 19q8 14 14.5 25.5t9.5 20.5zM407 88l-20 27q-12 13 -44 13q-8 0 -19 -0.5t-21 -4.5t-17 -11.5t-7 -21.5v-2q-17 -32 -18 -57q4 -7 9.5 -14t14.5 -13t24 -9.5t39 -3.5q-2 0 8 2.5t23.5 8.5t25 16.5
t11.5 27.5q0 8 -2 18.5t-5 21.5zM269 233q-1 1 -1 2q0 -1 1 -2z" />
    <glyph glyph-name="FL0040h" unicode="@" 
 />
    <glyph glyph-name="A" unicode="A" horiz-adv-x="868" 
d="M845 30q-15 26 -53 26q-11 0 -16 -1q-8 6 -18 19t-19 27t-17 26t-12 16q-31 69 -54.5 121t-41.5 92.5l-32 72t-26 60.5q-13 32 -22 55t-17 37v11q6 11 19 15t45 6q23 20 23 34v2q0 9 -7 15.5t-16 10t-17.5 5.5t-11.5 2q-4 0 -11 -1l-14 -2t-13.5 -2t-9.5 -1q-7 0 -11.5 1
t-11.5 1q-6 0 -15.5 -1t-20 -2t-20.5 -2t-16 -1h-12q-5 0 -10 2l-16 0.5t-35 -2.5t-34.5 -10t-15.5 -22q9 -27 33 -27q4 0 13 1.5t11 1.5q9 0 13 -6.5t4 -11.5v-2q-3 -22 -9 -46.5t-13.5 -49t-16.5 -48t-18 -42.5q-34 -38 -34 -62q-21 -39 -35.5 -71t-23.5 -58
q-8 -6 -14 -16.5t-11.5 -21t-10 -20t-8.5 -13.5l-12 -15q-24 -30 -49.5 -55.5t-56.5 -25.5h-5q-23 -8 -23 -27q0 -11 7 -18.5t17 -12t21.5 -7t19.5 -2.5t18.5 1t22.5 3l39 5q15 0 20 -2q12 5 24 5q5 0 18 -1.5t19 -1.5q30 0 46 24v7q0 10 -7.5 18.5t-17 15t-17 12t-7.5 11.5
v7q0 29 15 52l131 6q1 1 7 1q11 0 33 -1.5t39 -1.5h14q10 0 14 1q39 -2 69 -4t51 -4l3 -3q2 -13 3.5 -23.5t1.5 -20.5q0 -36 -18 -36h-4q-2 -1 -4 -1.5t-4 -1.5l1 1q-17 -5 -30 -11.5t-17 -24.5v-1q0 -8 9 -13.5t22.5 -9t28.5 -5.5t27 -3h5q15 2 28 3t23 1q17 0 29 -3
q7 3 28 3q8 0 19 -1t19 -1q29 0 45.5 10.5t16.5 23.5q0 2 -0.5 5t-2.5 6v-2zM564 204h-7q-18 1 -31 3l-19 2q-29 -2 -53.5 -3t-44.5 -1h-28t-24 2q-5 -2 -14.5 -2.5t-21.5 -0.5q-11 0 -22.5 -1t-19.5 -4l-5 1q19 38 38.5 74.5t35.5 71.5v-1q4 14 12 30.5t16.5 32.5
t14.5 30.5t6 25.5v3q14 32 27.5 57.5t22.5 25.5q6 0 16.5 -17t23.5 -44t26.5 -60t26.5 -64.5t23.5 -58.5t16.5 -42q6 -13 11 -28t5 -24v-3q-15 -5 -32 -5z" />
    <glyph glyph-name="B" unicode="B" horiz-adv-x="874" 
d="M850 148q2 5 2 8v7q0 14 -2.5 36t-8.5 51q-5 7 -9.5 16t-8 18t-6 15.5t-5.5 7.5q-4 2 -10.5 7.5t-14 12t-15.5 12t-14 7.5q-25 15 -28 27q12 29 18.5 53t6.5 46q0 24 -9 44q1 4 1 14q0 20 -7 40t-21 37.5t-35 30t-49 18.5q-41 9 -59 14.5t-27.5 8.5t-16.5 4t-25 1h-21
q-2 0 -4 0.5t-4 0.5h1q-8 1 -15 1h-11q-16 0 -25 -3q-5 1 -13 1h-20h-39t-52 -2q-18 5 -41 5q-17 0 -33 -3h-23q-9 -1 -21 -2t-23 -1q-9 0 -16.5 1t-14.5 3h-55q-20 -1 -37.5 -10.5t-17.5 -27.5q0 -11 13.5 -15.5t29.5 -8t29.5 -10.5t13.5 -23q0 -46 6.5 -85.5t6.5 -71.5
q0 -26 -1.5 -48t-3.5 -38q6 -20 6 -48q0 -7 -1 -19t-1.5 -25t-1.5 -24.5t-1 -18.5v-15t1 -14q-2 -8 -4 -20t-4 -24.5t-4 -24t-5 -19.5l-4 -6q-13 -19 -24.5 -28t-20.5 -14t-14.5 -9t-5.5 -13q0 -13 10 -20.5t25 -11.5t34 -5.5t37 -1.5q10 0 18.5 0.5t16.5 0.5h16
q19 0 35 0.5t29 1.5q5 -2 11.5 -3t12.5 -1q26 0 68.5 8t96.5 8q35 0 62 -6.5t62 -6.5h12q19 0 35.5 0.5t33.5 3t36.5 7.5t45.5 15q51 19 81.5 56t40.5 79zM737 91q0 10 -9 10q-5 0 -10 -3.5t-8 -5.5l1 1q-21 -12 -43 -23.5t-40 -11.5q-13 0 -28 5q-5 -2 -10 -2h-9
q-6 0 -17 1t-22.5 2.5t-22.5 3t-17 1.5h-13q-5 0 -10 -2q-5 2 -9.5 2.5t-11.5 0.5q-21 0 -38.5 -4.5t-27.5 -4.5q-5 0 -11 1.5t-11 1.5q-17 -1 -29 -3t-21 -4h-8h-15t-18.5 1t-18 2.5t-12.5 3.5q-33 42 -33 70v7q-4 9 -4 19q0 18 2 30.5t4 17.5v0q0 1 -1 0q2 4 2 7
q-2 12 -2 21v18v11q0 5 2 10q-3 14 -3.5 17t-0.5 6t6 4.5t15 3.5h84q49 0 92 -4.5t78 -4.5h12t10 1l35 2q3 0 6 0.5t8 0.5h15q5 0 11.5 -0.5t13.5 -0.5q27 0 43.5 2t36.5 8h-1q4 1 8 1q2 0 6.5 -4.5t9.5 -10.5t9.5 -11.5t6.5 -6.5l-2 1q17 -11 27.5 -24.5t13.5 -30.5
q-6 -10 -6 -24q0 -15 9 -30v-2q0 -10 -4 -24t-8.5 -26t-8 -20t-3.5 -7zM674 495v-13q0 -10 -4.5 -22.5t-4.5 -17.5q0 -8 2 -14t2 -9q0 -15 -9.5 -24t-23 -14t-28.5 -7.5t-26 -6.5q-13 0 -23 0.5t-15 2.5q-40 -2 -69 -4t-49 -2q-30 3 -57 6.5t-56 8.5h-6q-5 0 -14 1t-24 4
h-54q-1 0 -1 3q0 12 -6 18t-9 8l19 1q-1 11 -1.5 23t-0.5 27v34q0 22 3 45t14 31q20 21 34.5 31t29.5 10q7 0 25 -3.5t29 -3.5q19 0 33 10q36 -2 62.5 -5.5t46 -7.5t32.5 -7.5t21 -4.5q25 -2 48 -5.5t41 -13t28.5 -28t10.5 -51.5z" />
    <glyph glyph-name="C" unicode="C" horiz-adv-x="921" 
d="M888 480l-1 -3q1 3 2 6.5t1 7.5q0 10 -2 21.5t-2 20.5q0 6 2 12q-8 16 -7 35.5t-1.5 37t-14.5 31t-45 18.5q-2 0 -4.5 -0.5t-4.5 -2.5q-18 -18 -33 -27.5t-25 -12.5q-47 23 -83 36t-64 14q-5 -1 -11 -1h-10t-17 1.5t-27.5 3.5t-31.5 3.5t-27 1.5q-20 0 -40.5 -4t-39 -10
t-34 -12t-24.5 -10q-48 -7 -113 -60l-54 -44q-16 -13 -26.5 -26.5t-16.5 -25.5q-22 -16 -34 -45q-18 -11 -31 -33t-21.5 -48.5t-13 -52.5t-4.5 -45q0 -28 5 -51t15 -43.5t24.5 -40t33.5 -40.5q35 -22 57.5 -38t42 -27t40 -17.5t50.5 -8.5q43 -2 59 -7q17 -2 32 -2h29h25
t19 2h5q11 -1 21 -1.5t18 -0.5q34 0 72.5 7t72 16t58 17t30.5 10q8 3 16 4t16 1h4q2 -4 2 -12v-4q0 -2 -0.5 -4.5t-0.5 -4.5q8 -12 18.5 -20t27.5 -10q20 2 28.5 11t11 22t2 29t1.5 31q-8 38 -8 63q0 14 5 31q0 38 -10.5 59.5t-31.5 21.5q-24 0 -37 -11t-19 -49
q-3 -34 -20 -61.5t-48 -40.5q-69 -26 -130.5 -33t-109.5 -7q-17 0 -44 1.5t-62 3.5q-12 -3 -22 -3q-8 0 -21 3t-26 7.5t-24 8.5t-17 7h2q-117 62 -135 125v17t-1 39q0 28 3.5 46.5t8 30t8 15.5t3.5 3q2 12 9.5 25.5t18.5 27.5l40 52q38 51 104 87.5t164 55.5h-1q5 1 11 1h14
q5 0 27 0.5t46.5 -1t46 -5.5t24.5 -12l5 -5q26 -10 52 -26t47 -35.5t35 -42t16 -46.5q7 -18 16 -28.5t25 -10.5q9 0 21 7t20 12v2q11 0 14.5 17t3.5 35v8z" />
    <glyph glyph-name="D" unicode="D" horiz-adv-x="890" 
d="M869 299q-1 34 -20 63t-47 57.5t-60.5 57t-60.5 60.5l1 -1q-48 48 -101.5 75t-91.5 37l1 -1q-33 11 -65.5 17t-59 9.5t-45 4.5t-23.5 3h1q-15 7 -29 7q-6 0 -14.5 -1t-17.5 -2t-17.5 -2t-13.5 -1q-8 0 -15 2t-24 2h-12q-5 0 -12 -1h-7q-14 0 -22.5 4t-16.5 4
q-4 0 -5 -1.5t-3 -3t-7 -3.5t-17 -3q-12 -2 -23.5 -6t-18.5 -13v-6q0 -17 12 -23t27 -10h-1q30 -8 42.5 -40.5t13.5 -74.5q0 -26 -1.5 -52t-1.5 -54q0 -7 1.5 -13l3.5 -14v1q3 -11 6.5 -26.5t3.5 -32.5v-16q0 -4 -0.5 -8t-0.5 -9v1l-5 -79v2l-13 -47q0 -8 -3 -27t-11 -46h1
q-2 -7 -12 -11.5t-22 -9.5h1q-17 -7 -30.5 -14.5t-13.5 -24.5q0 -20 22.5 -29t46.5 -9q7 0 19.5 1.5t26 3.5t25 3.5t16.5 1.5h52q85 0 152 -3.5t119 -3.5q15 0 26 1.5t26 1.5q4 0 7.5 -0.5t8.5 -0.5h17h8q4 0 9 2q9 -3 20 -3q7 0 28.5 5.5t58.5 16.5h5q17 0 31 8t26.5 21.5
t23.5 31t23 35.5q23 29 26 53q9 10 14.5 25t8 32.5t3 37t0.5 38.5zM794 263q0 -30 -16 -47q-2 -4 -2 -7q0 -4 1 -5.5t1 -6.5q0 -10 -5.5 -21.5t-13.5 -22.5v1q-7 -11 -18.5 -20.5t-23.5 -18t-23 -15.5t-17 -12q-24 -21 -56.5 -25.5t-62 -3.5t-50.5 2t-22 -8q0 6 -13.5 9.5
t-30.5 4.5t-33 1h-20q-20 0 -38 -2t-38 -2q-45 0 -72 10q-19 25 -19 77q0 6 0.5 13t1.5 15v9q-5 8 -7 20.5t-4 27.5v55q0 45 3.5 68.5t3.5 31.5v3q-2 23 -3.5 47.5t-1.5 50.5v22q0 11 1 23l-1 -2q10 32 24.5 50.5t31.5 21.5q5 -2 11 -2h13q10 0 24.5 1.5t24.5 1.5
q39 0 71 -7.5t57 -16.5t42 -17t26 -10q19 -10 40 -25t43 -36l79 -79l-1 2q27 -46 49 -60l8 -10q23 -31 29.5 -49.5t6.5 -36.5z" />
    <glyph glyph-name="E" unicode="E" horiz-adv-x="889" 
d="M860 84l1 -1h1v1q0 5 1 18.5t3 28.5v14q0 22 -7 39.5t-32 17.5q-18 0 -28 -7.5t-15 -19.5t-6 -26t-1 -27q-11 -29 -19 -40.5t-27 -11.5h-9q-30 -9 -61 -9q-14 0 -41.5 3.5t-69.5 10.5q-17 -7 -21.5 -8t-14.5 -1q-7 0 -14 4.5t-18 4.5q-4 0 -8 -0.5t-10 -1.5l-21 -3h1h-7
q-3 0 -6 2h-6h-9t-12 -1h1q-4 0 -8 -0.5t-8 -0.5h-6q-17 0 -29 9q-24 6 -44 6h-10q-46 26 -46 54q-8 9 -11.5 21t-5.5 27v30q0 10 2.5 17.5t12.5 7.5h5q14 -5 29 -7t32 -2q30 0 66 6q35 0 48.5 -2.5t13.5 -11.5t-2 -21t-5 -27q4 -22 12.5 -31t25.5 -9q8 0 19 5.5t21.5 13
t19 13.5t13.5 8q9 8 17.5 23.5t17 33t17.5 34t18 25.5q5 15 7.5 25.5t4.5 16.5q0 16 -10.5 23t-23.5 7q-23 0 -45 -25q-5 -14 -22 -22t-40 -12.5t-49.5 -5.5t-48.5 -1h-52h-13q-5 0 -10 1h-33h-18q-19 0 -25 6q-2 21 -2.5 38.5t-0.5 33.5q0 45 10 75q-3 9 -3 14
q0 8 2.5 21.5t3.5 18.5q0 13 -9 24v10q0 49 26 69h14q24 0 51 15q52 3 95 3q68 0 109 -6q24 2 45 3.5t38 1.5q13 0 23.5 -2t21 -5t23.5 -5t31 -2q11 -3 16.5 -6.5t10 -11.5t11 -22t19.5 -39q0 -6 1 -15.5t5.5 -18.5t13.5 -15.5t26 -6.5h11q16 5 22 17.5t6 33.5q0 29 -8.5 53
t-14.5 34q2 -1 6 -1q10 0 10 7l3 24v-1v9q0 17 -12.5 27t-43.5 10l-163 -1l-40 -4q-29 3 -50 5t-35 3l-33 -3h1h-1q-20 3 -43 3q-6 0 -21 -1.5t-34.5 -3t-40 -3t-36.5 -1.5q-17 0 -30.5 3t-34.5 3q-13 0 -26.5 -1.5t-28.5 -3.5h2q-37 1 -59 1.5t-34.5 1t-18.5 0.5h-8
q-14 0 -30.5 -9.5t-16.5 -25.5q0 -14 14 -19t33 -7t38.5 -4.5t30.5 -12.5q11 -38 17.5 -61t6.5 -33q0 -5 -1.5 -12.5t-1.5 -15.5q5 -20 7.5 -44.5t2.5 -54.5v-15q-1 -23 -1 -42v-33v-27q0 -10 1 -15v-13q-2 -40 -5.5 -79t-20.5 -62q-5 -5 -6 -10.5t-2 -10.5v-1
q-2 -7 -6.5 -13t-18.5 -6q-8 0 -24 3.5t-28 3.5h-3q-27 -9 -28 -33q1 -9 7 -15.5t16 -11.5q54 -3 96 -4.5t69 -2.5q23 2 46.5 3t47.5 1h24q13 0 25 -1q13 2 21 3.5t13 1.5q66 0 111.5 -3t85.5 -6.5t83 -7.5t103 -6h3q2 0 4 0.5t6 0.5q7 0 16 -1t18 -1q26 0 36 15t10 42
q0 8 -1 16.5t-3 18.5z" />
    <glyph glyph-name="F" unicode="F" horiz-adv-x="892" 
d="M869 521q-6 7 -6 18q0 1 1 6.5t2.5 13l3 15t1.5 12.5q-3 7 -3 13q0 9 2 22.5t2 21.5q0 15 -5.5 24t-14 13.5t-19.5 6t-22 1.5h-25q-24 0 -43 -1t-33 -3q-4 2 -9 2h-8q-11 0 -23 -1t-20 -1t-14 2t-17 2h-8q-2 0 -4.5 -0.5t-5.5 -0.5q-16 0 -25 4l-52 2q-3 1 -11 1
q-17 0 -39.5 -2t-56.5 -2q-45 0 -81.5 2t-66.5 2h-131q-5 -2 -20 -2q-11 0 -25 1t-24 1q-14 0 -23.5 -5t-15.5 -11.5t-8.5 -12.5t-2.5 -8q2 -16 15.5 -25t35.5 -9q6 0 11.5 0.5t10.5 2.5q19 -8 29 -28l-1 1l15 -50v2q2 -25 3 -49t1 -47q0 -30 -1 -58.5t-4 -57.5
q8 -40 8 -151v-33l-2 -10l-2 -10v1q-2 -15 -4.5 -29t-8 -24.5t-14 -17t-22.5 -6.5q-9 0 -19.5 -1t-18.5 -4.5t-13.5 -9.5t-5.5 -17q0 -10 11 -19t30 -9q12 0 24 4q43 -4 75.5 -6t55.5 -2q4 1 11 1q12 0 23.5 -1t16.5 -1q18 0 34.5 8.5t16.5 25.5q0 12 -8.5 25t-40.5 13h-10
q-8 13 -12 23t-6 19v5q0 10 -3 23t-6 25t-6 21.5t-3 13.5v7q0 5 1 10q-11 26 -14 41q3 4 8 4l5 -1t11.5 -2l13 -2t10.5 -1h2q44 -1 94 -9q3 -2 7 -2.5t6 -0.5q6 0 18 2t14 4q8 -1 9 -11t1 -15v-2q0 -5 -2.5 -13t-2.5 -14q0 -13 10.5 -23.5t30.5 -10.5q6 0 20.5 4t30 15.5
t27.5 33t14 57.5q14 23 26 43t21 43q-4 20 -15 31t-28 11q-12 0 -25.5 -5t-25.5 -14t-20.5 -20.5t-10.5 -23.5q-11 -8 -25.5 -13t-32.5 -7h1h-2h1q-11 3 -28.5 5t-40.5 2h-15q-5 0 -9.5 -0.5t-9.5 -0.5h-12q-15 0 -29.5 0.5t-26 2.5t-19 6t-7.5 12q0 13 8.5 31.5t8.5 30.5
q0 11 -4 20q0 24 1 49.5t2 39.5q-5 20 -5 34q0 42 23 71q14 7 27.5 10l22.5 5q67 -3 117.5 -4.5t91 -2.5t74.5 -2t69 -3q28 -2 47 -7.5t32.5 -15.5t22 -25.5t14.5 -36.5q0 -37 11.5 -54t37.5 -17q22 0 38.5 16t16.5 31q0 6 -2 10z" />
    <glyph glyph-name="G" unicode="G" horiz-adv-x="898" 
d="M875 102q-7 16 -7 31q0 10 1.5 30.5t1.5 30.5q0 25 -5.5 45t-5.5 46v15q-1 19 -4.5 36.5t-21.5 22.5h-7q-7 -4 -24 -4q-6 0 -18.5 1.5t-20.5 1.5q-17 0 -29 -6q-45 3 -78 4.5t-56 2.5h-1q2 7 2 18v23q0 17 -9 30t-26 13q-9 0 -18.5 -7t-17 -16t-14 -18t-9.5 -12
q-2 -3 -7 -18t-12.5 -34.5t-16.5 -39.5t-18 -33l2 3q-48 -34 -53 -69q5 -11 20 -21.5t33 -10.5q12 0 25.5 11.5t25.5 21.5v-1l15 13q16 25 27.5 40.5t22 23.5t21 11t25.5 3q47 0 104 -9l10 -5q6 -3 6 -25q-11 -63 -58 -113q-5 -12 -8 -18t-8 -10.5t-12.5 -8.5t-21.5 -13
q-15 -9 -23 -9h-5q-27 -14 -47 -17.5t-35 -3.5h-34q-12 0 -28 1t-40 5t-58.5 12.5t-83.5 24.5q-13 3 -38 12.5t-50.5 25t-47 37.5t-28.5 51q-5 25 -8.5 40.5t-6.5 23.5q2 50 18.5 95t55.5 83q50 48 115 84t130 45q31 18 70 18q31 -4 59.5 -6t54 -8t46.5 -18.5t36 -36.5
q6 -8 9.5 -15t3.5 -21q0 -9 -4 -17t-8.5 -14.5t-8.5 -12t-4 -8.5v-4q0 -20 9.5 -34.5t28.5 -14.5q8 0 19 7.5t21 17.5t17 19t7 12h-1q8 8 11 17t13 17q26 52 38 76.5t18 36t9 16.5t11 18q2 4 2 6q0 14 -15 21.5t-24 7.5h-4q-20 -8 -31 -17t-17 -16.5t-9.5 -13t-8.5 -5.5
l-20 5l1 -1q-16 5 -30.5 11t-29.5 12t-32 10.5t-38 6.5l-120 9q-2 0 -3 0.5t-2 0.5q-11 0 -25 -2.5t-27.5 -6t-25.5 -6t-19 -2.5h-5q-2 0 -4 0.5t-3 0.5l-9 -3.5t-17 -7.5h1q-43 -15 -77 -31t-63.5 -35.5t-56.5 -44t-55 -55.5q-7 -9 -20.5 -27.5t-27.5 -41t-24.5 -47.5
t-10.5 -49q0 -11 3 -34t3 -39v-11q20 -45 35.5 -70t37.5 -43.5t55 -36.5t89 -49q7 -5 19.5 -8t26 -5.5t26 -5t19.5 -5.5q3 0 23 -3t47 -6.5t56.5 -6.5t50.5 -3q26 0 50 4.5t43 9.5t31.5 10t15.5 7q24 12 40 21t28 17t21.5 16.5t21.5 21.5q11 13 18 14q4 -6 4 -14t-1 -16
l-2 -16q3 -8 5.5 -16t4.5 -14v1q8 -23 14.5 -33t28.5 -10t32 14.5t10 37.5q0 12 -0.5 18.5t-0.5 10.5v8v9z" />
    <glyph glyph-name="H" unicode="H" horiz-adv-x="886" 
d="M857 40q-8 18 -25.5 23.5t-36.5 9.5l-13 2q-4 6 -8.5 16.5t-8.5 22t-8 22.5t-7 19v5q0 1 0.5 3t0.5 4q0 11 -2 27t-2 27q0 18 2.5 30t2.5 32q0 26 -2 59t-9 61q12 31 12 54q0 16 -3 25q0 6 0.5 23t3.5 37.5t8.5 39t14.5 26.5q11 3 24.5 4.5t25.5 5t20 10.5t8 21
q0 8 -4 14.5t-11 14.5q-83 20 -132 22q-8 -3 -18.5 -4t-22.5 -1h-40q-47 0 -69 -27v-9q0 -10 7.5 -17.5t18 -13t20.5 -8t15 -2.5q14 -13 26.5 -27.5t12.5 -31.5v-8q8 -24 11 -46t3 -42q0 -93 -4 -137t-7 -54q-19 -4 -34 -4.5t-27 -0.5q-14 0 -32.5 2.5t-47.5 2.5h-30t-34 -2
h1q-17 0 -36 0.5t-37 3t-33 6t-24 9.5q-8 5 -19 5q-14 0 -33 -7t-38 -7q-5 0 -8 4q5 15 5 27q0 17 -4.5 38t-4.5 34q0 10 4 25q-5 16 -6.5 33.5t-1.5 38.5t1.5 46.5t5.5 54.5q1 9 12.5 16t26 14t26.5 16t14 23q-4 18 -27 29q-56 2 -92 5t-57 3q-43 0 -64.5 -5.5t-30 -11.5
t-8.5 -10t0 -2v-2q0 -12 13 -20.5t29.5 -17.5t33 -22t24.5 -35v3q1 -35 1 -67v-61v-120q0 -18 -0.5 -35.5t-1.5 -37.5t-3.5 -45t-5.5 -59q-5 -51 -22 -77h-3q-8 -1 -15 -1h-13h-11q-11 -5 -20 -14t-9 -20q0 -17 22 -26t58 -9h12q8 1 13 1h11q12 0 21.5 -0.5t17.5 -1.5v2
q18 -5 62 -5q51 0 69 33v4q0 20 -16 32.5t-34 12.5q-8 15 -9 30q-27 24 -27 59q0 23 12.5 35t43.5 14q3 -1 13 -2.5t21 -3t20.5 -2.5t12.5 -2q63 -3 100 -4.5t56 -2.5t24.5 -1.5l5.5 -0.5q8 0 10 7q0 -4 9 -5t21 -1.5t24 -0.5t18 -1h10t19 2h6q2 0 4.5 -0.5t4.5 -0.5v-11
q0 -12 1 -25.5t1 -25.5q0 -20 -7.5 -37t-25.5 -18q-26 0 -41 -5.5t-23 -13t-10.5 -14.5t-2.5 -10v-5q6 -11 22.5 -18t39.5 -10.5t51 -4.5t56 -1h15q8 0 16 1q14 -2 26 -3t23 -1q32 0 45.5 12.5t13.5 26.5q0 1 -1 4.5t-1 5.5z" />
    <glyph glyph-name="I" unicode="I" horiz-adv-x="420" 
d="M397 29q-15 29 -67 29h-12q-3 0 -9.5 -0.5t-22.5 -2.5h-5q-10 0 -16.5 9t-10.5 22t-6 28t-2 27q0 5 0.5 11t1.5 12v4q-3 8 -3.5 20.5t-1 25.5t-1.5 25.5t-4 20.5q0 7 2 18t2 30q0 14 -3 25q1 19 1 36v34q0 25 -1 45t-3 35q7 14 11 30.5t8 33.5t10 33t17 30q51 0 72 10
t21 34v4q-5 13 -15.5 20t-23.5 10t-26 3h-24q-15 -12 -33 -12h-9q-36 1 -46 2t-11 2l-1 1q0 1 -14 1q-6 0 -12 -0.5t-14 -1.5h-15q-11 0 -20.5 1t-17.5 4q-11 0 -23 -1t-22.5 -4.5t-18.5 -10t-9 -18.5q0 -15 19 -22t39 -7h10q21 0 33.5 -9.5t20 -23.5t10.5 -31.5t6 -33.5
q-1 -64 -1 -99v-38q11 -24 11 -46q0 -14 -6 -35q7 -22 7 -45q0 -42 -3 -66t-3 -33v1q-1 -18 -2.5 -38t-6.5 -36.5t-15 -27.5t-28 -11q-5 0 -9 1v-1q-5 2 -15 2h-23h-6q-11 0 -23.5 -6.5t-12.5 -21.5q0 -12 20.5 -20.5t47.5 -13.5t53.5 -7t38.5 -3h8q2 0 4 -1h-1
q3 0 6.5 -0.5t9.5 -0.5q11 0 29 3.5t25 3.5q8 0 20 -4t29 -4h2q4 0 18 1.5t29 5.5t27 11t12 18q0 2 -1 4.5t-2 6.5v2zM190 683l1 -1h-1v1z" />
    <glyph glyph-name="J" unicode="J" horiz-adv-x="886" 
d="M778 85q87 94 87 168q0 35 -28 70.5t-70 60.5l1 -1l-18 12q-29 27 -52.5 46t-39.5 30q-8 17 -28.5 35.5t-36.5 32.5l1 -1q-13 12 -20 18.5t-10 10t-3 5.5v4q0 7 11.5 15t20.5 8q1 0 1.5 -0.5t1.5 -0.5h6q28 18 76 18q7 0 18.5 -0.5t24 -1t24.5 -1t20 -0.5
q7 -9 12.5 -19.5t11.5 -19.5t14 -15t20 -6q17 0 25.5 14.5t8.5 31.5q0 2 -0.5 8t-1 13.5t-1 14.5t-0.5 10q1 3 1 7q0 12 -8.5 22t-22.5 16.5t-31.5 10.5t-35.5 4q-11 0 -21 -5q-14 2 -25.5 3.5t-19.5 1.5q-123 -5 -203 -8.5t-121 -3.5q-17 0 -33 3t-30 3q-8 0 -17.5 -3.5
t-18.5 -3.5h-5q-24 -6 -145 -6q-21 12 -34 12q-11 0 -20 -6t-16 -13.5t-12 -15.5t-7 -12q-3 -3 -3 -10q1 -4 1 -17v-16t-1 -20v-8q0 -32 16 -46.5t31 -14.5q18 0 23 11.5t8 26t9.5 27.5t27.5 15q15 -1 29 -1h28q35 22 91 22h14q8 0 23.5 1.5t29.5 1.5q13 0 30.5 -4t34 -11
t31 -16.5t22.5 -20.5l-1 1q13 -26 18 -37t11 -20.5t17.5 -23t38.5 -43.5q28 -34 56 -41q20 -20 42.5 -36t43 -32.5t38 -36t28.5 -46.5q-1 -6 -1.5 -15.5t-1.5 -20t-3 -19.5t-5 -13q-24 -30 -40 -47.5t-28.5 -27t-25 -14t-29.5 -7.5q-32 -3 -49 -14q-10 -1 -22.5 -3.5
t-24 -5.5t-21 -5.5t-13.5 -2.5q-12 0 -26 7q-14 -5 -25.5 -6.5t-20.5 -1.5q-45 0 -83.5 25.5t-67.5 82.5q-8 35 -14 62.5t-11 47.5v-1q-1 1 -1 4q1 5 3 21t2 43l-1 12t-5 26.5t-11.5 26t-19.5 11.5q-8 0 -15 -4.5t-13 -9.5l-3 -3q-25 -38 -46 -67.5t-41 -51.5l3 1
q-16 -11 -21 -15t-8 -8t-9.5 -10t-25.5 -21q-22 -16 -22 -40v-3q5 -13 8.5 -15.5t19.5 -7.5l-1 1q7 -2 9 -3t4 -1h4q14 0 27.5 11.5t23.5 21.5l-1 -1l1 1q21 8 34 13t17 5q7 -7 11 -20.5t9 -21.5q13 -47 58 -93q14 -26 32.5 -43.5t45 -28t62 -15.5t84.5 -5q37 0 66.5 6.5
t51.5 12.5h-1q10 2 17.5 4.5t10.5 2.5q41 3 83 25t80 45zM113 195h1h-1z" />
    <glyph glyph-name="K" unicode="K" horiz-adv-x="893" 
d="M868 33q-8 11 -22 19.5t-28.5 16.5t-26 15.5t-14.5 17.5q-24 18 -37.5 43.5t-27.5 50.5t-34 46t-56 29h1q-33 9 -54.5 15t-29.5 11q0 3 14 21t32 39.5t35.5 40.5t26.5 24q41 57 74 57q8 0 18.5 -7.5t21.5 -17t21.5 -18t18.5 -10.5q3 -1 6 -1.5t8 -0.5q11 0 23 8.5
t12 22.5q0 10 -7 21l-95 102q-23 17 -34.5 28.5t-20.5 22t-20 23t-32 30.5q-1 0 -3 0.5t-3 0.5l3 -1q-5 2 -7 2h-4q-25 0 -25 -35q0 -12 6 -22.5t13 -19.5t13 -17t6 -14q0 -14 -10 -30.5t-22.5 -32.5t-25.5 -30t-19 -23q-48 -64 -76.5 -94t-32.5 -38l1 3q-4 -7 -14 -7h-3
q-14 2 -19 2q-4 0 -11 1h-1q-63 5 -106.5 8t-66.5 3h1q-6 1 -12 1t-10 2q-2 20 -2 34v28v15q0 4 -0.5 7.5t-0.5 7.5v14q0 24 1.5 53.5t6 55.5t13 43.5t22.5 17.5h5t9 -1h13q46 0 46 37q0 16 -10.5 23t-17.5 9h-17q-23 -1 -42.5 -1.5t-36.5 -0.5q-20 0 -37 0.5t-31 1.5
q1 0 -15 0t-36 -2.5t-37 -9t-17 -20.5v-1q0 -4 1 -8.5t6.5 -8t16 -6t30.5 -2.5q8 -1 13.5 -4t10.5 -6q13 -32 21 -57.5t11 -45.5q-2 -17 -3.5 -31t-1.5 -26q0 -29 1.5 -65t1.5 -75v-62t-1 -69q-6 -8 -8 -21v1q-4 -12 -6.5 -20t-4.5 -17t-3.5 -22t-4.5 -35q-6 -8 -19 -8h-4
q-21 0 -34 -3.5t-19.5 -8.5t-9 -11t-2.5 -11q0 -15 15 -24t31 -9h23h17h10q5 0 9.5 -0.5t11.5 -1.5h-1q8 -2 25 -4t49 -5q7 0 10.5 3t11.5 3q5 0 17 -1.5t17 -1.5q8 0 17 3.5t16.5 8.5t12 12t4.5 14q0 16 -11.5 23t-26.5 11t-29.5 7.5t-19.5 13.5l-12 28.5t-6 19.5
t-2.5 24.5t-0.5 42.5v32q0 18 2 31.5t10 13.5h2q32 -2 54.5 -3.5t40 -3.5t34 -4.5t36.5 -6.5t47 -9.5t66 -13.5q75 -15 111 -49.5t36 -79.5q0 -17 -5 -27.5t-28 -15.5q-42 -7 -46 -38q13 -19 29 -26q66 -4 116 -7t84 -7h3q5 0 10.5 -2t20.5 -2q10 0 18 6t12.5 13.5t7 14
l2.5 6.5q0 3 -0.5 6.5t-3.5 7.5z" />
    <glyph glyph-name="L" unicode="L" horiz-adv-x="893" 
d="M873 161q-3 3 -3 22v7q0 4 1 9q0 53 -40 53q-19 0 -30.5 -11.5t-17.5 -28.5t-7.5 -37t-1.5 -36v-32q0 -2 -9.5 -9t-23 -14.5t-28.5 -14t-25 -6.5q-5 0 -18 1.5t-28 3.5t-29.5 3.5t-22.5 1.5q-18 0 -28 -3h-5q-8 0 -34 3.5t-51 3.5q-16 0 -27 -2.5t-26 -2.5h-21
q-6 0 -12 0.5t-12 0.5q-8 0 -15.5 -0.5t-13.5 -1.5q-7 3 -16 4t-18 1h-36q-18 26 -26 45t-8 32v4q0 8 1.5 16.5t1.5 18.5q0 6 -1.5 21t-3 34.5t-3 40t-1.5 37.5q0 4 0.5 7t0.5 6v11q-11 140 -12 207v7q0 10 1 21t4 20t9.5 15t18.5 6h5q20 0 32.5 4t19 10t8.5 12t2 11v3
q-1 10 -9.5 16t-21 9.5t-28 5t-30.5 1.5q-9 0 -17 -0.5t-16 -0.5h-16q-23 0 -39 -1t-38 -1h-15q-7 0 -18 1h-6q-6 0 -14 -2t-16 -6t-13.5 -10t-5.5 -13v-2q0 -5 1 -8t6.5 -6t17 -6.5t32.5 -7.5q10 -2 17 -4.5t12 -7.5q7 -21 10 -46t3 -53v-20q4 -11 5 -28t1 -43q8 -20 8 -60
v-20q-2 -15 -2 -29v-23v-20q0 -8 1 -13q-3 -13 -4.5 -29t-1.5 -39v-11q0 -3 0.5 -6.5t0.5 -7.5v-18q0 -47 -6 -67t-28 -20q-26 0 -41 -3t-22.5 -8.5t-9.5 -12.5t-2 -15q6 -9 23 -14.5t36 -8.5t33.5 -4t15.5 -1q11 0 15 5q14 1 30 1h36h12q6 0 10 -1t12 -1.5t23 -1.5t42 -1h8
q15 0 26 3q23 -3 56 -4t77 -1h53q10 0 19.5 0.5t18.5 0.5h32q35 0 63.5 -1.5t50.5 -3.5h-1q13 -3 23.5 -5t21.5 -2h5q2 0 2.5 0.5t2.5 0.5q9 -3 25.5 -7t24.5 -4q21 0 32 9.5t16.5 25t6.5 34.5t1 38v8q-5 12 -5 23q0 17 7 35v8z" />
    <glyph glyph-name="M" unicode="M" horiz-adv-x="1058" 
d="M1037 17v4q0 13 -9 23.5t-21 18t-24 12t-17 7.5q-31 32 -50 83l1 -2q-4 14 -11 40.5t-16 58t-18.5 64t-17 59.5t-13 44l-5.5 17q-3 42 -21 60q-7 20 -12.5 36t-9.5 26q2 26 6 39t24 13q11 0 28 -3q58 14 62 42q-7 13 -17 17t-21 7h1q-2 1 -4.5 1.5t-4.5 1.5h-7
q-2 0 -3.5 -0.5t-3.5 -0.5q-8 0 -18.5 1.5t-21.5 3.5t-20 3.5t-13 1.5q-7 0 -14 -1.5t-13 -1.5q-13 0 -34.5 3t-33.5 3q1 0 -16.5 -1t-39.5 -5t-40 -13t-18 -24q0 -6 4 -12.5t10 -11.5t13 -8.5t13 -3.5v0q1 0 1 1l-1 -7l1 1q0 -1 -1 -6t-2 -8q1 -9 1 -18v-17v-15t-2 -14
q-9 -70 -13.5 -107.5t-7.5 -56.5t-4.5 -26t-4 -17t-7 -29.5t-12.5 -62.5q-5 -26 -9.5 -40.5t-7.5 -22.5q-8 21 -11.5 38.5t-5.5 31.5q1 3 1 7v9q0 14 -4.5 32.5t-9.5 35.5v-1q-4 14 -7 26.5t-3 19.5q-8 53 -13.5 92.5t-10.5 64.5q-4 7 -6 11.5t-3 11.5t-2 17.5t-3 29.5
q2 8 12 12t21 8.5t20 11.5t9 21v8q-15 19 -46.5 27.5t-63.5 8.5q-11 0 -40 -3.5t-79 -10.5q-4 -1 -10 -1q-11 0 -23.5 3t-19.5 3q-20 0 -32.5 -11t-12.5 -27v-6q8 -11 19.5 -18t28.5 -7h29q17 0 23.5 -1.5t9 -5t3 -10.5t6.5 -18q2 -4 3 -5q-11 -42 -18.5 -66.5t-12.5 -39.5
t-9 -25t-8.5 -22.5t-10.5 -32.5t-15 -54q-5 -8 -8.5 -20.5t-6.5 -25.5t-5.5 -25t-5.5 -19q-1 -3 -2 -5.5t-2 -5.5l1 1q-11 -32 -27.5 -67t-46.5 -62l-60 -53q-33 -3 -48.5 -9t-15.5 -26q0 -12 7 -16.5t16.5 -5.5t19 -0.5t14.5 -2.5q29 -5 52 -7.5t42 -2.5q2 0 4.5 0.5
t4.5 0.5h8q29 -2 50 -4t40 -2q24 9 35 21t11 24q-8 11 -16.5 17.5t-35.5 11.5q-15 8 -15 40v7q0 2 0.5 4.5t0.5 4.5q14 41 24 71.5t16 52.5l3 30q2 8 5.5 13.5t3.5 10.5v6q0 8 5.5 21.5t12 27.5t12 26.5t6.5 20.5v4q0 6 3 16.5t9 27.5q-1 3 -1 9q0 4 6.5 17t8.5 22
q8 27 14 46t8 21q15 -66 25 -119t17.5 -95.5t14 -77.5t13.5 -65q6 -27 11.5 -55.5t5.5 -46.5v-6q1 -2 1.5 -6.5t1.5 -6.5l-1 1q2 -13 5 -26t9 -24t16 -18.5t25 -8.5q15 2 26.5 8t18.5 18q7 36 13 63t11 48.5t9.5 38.5t7.5 32v-1q7 36 17 64t10 56q32 94 58 221
q8 0 14.5 -12.5t12 -28.5t10 -31t9.5 -19l-3 5q13 -55 26 -86v-6q0 -17 8 -35t8 -28q0 -6 -2 -14v-2q0 2 3.5 -13t8 -35t8 -40.5t4.5 -29.5q4 -22 6.5 -36.5t4 -25t2 -19.5t1.5 -20v-9q-5 -6 -14.5 -8.5t-19.5 -6t-17.5 -10t-8.5 -19.5q0 -7 7 -11.5t16.5 -7.5t19.5 -5
t17 -3q42 -5 73 -5h52q19 -5 27.5 -8t9.5 -3q12 0 24 7t20 29zM831 66q0 -1 -1 -2z" />
    <glyph glyph-name="N" unicode="N" horiz-adv-x="890" 
d="M869 17v3q0 15 -10.5 27.5t-34.5 12.5h-5q-17 0 -27.5 23.5t-16.5 60.5t-8.5 82t-2.5 87v78q0 23 1 44.5t3 40.5q0 4 -1.5 7t-1.5 8q0 32 14 61.5t22 52.5q11 8 21.5 11t18.5 5h-1q13 3 19.5 7.5t6.5 18.5q0 11 -6.5 19t-16 13t-20.5 7.5t-20 2.5q-26 -4 -49 -6t-42 -2
q-8 0 -16 0.5t-16 1.5h-43q-16 0 -32.5 -7t-16.5 -22q0 -9 9.5 -17t21.5 -15.5l24 -15t17 -17.5q8 -60 13.5 -100t8.5 -68.5t4.5 -49t1.5 -41.5v-79q0 -11 -1 -19.5t-5 -15.5q-25 19 -39.5 34.5t-26 29.5t-23 27t-29.5 27q-44 34 -66.5 51t-35 26t-20 14t-21 15t-39 30
t-73.5 59q-10 8 -22 18.5t-23 20.5t-18.5 18.5t-7.5 13.5q0 7 8.5 9t15.5 2q2 0 2.5 -0.5t1.5 -0.5h7q20 11 28 23t8 23v2q-5 13 -20 20.5t-32.5 11t-31.5 4t-15 0.5h-7q-10 -2 -23 -2.5t-27 -1t-27 -2t-23 -4.5q-2 -1 -10 -1q-5 0 -11.5 1t-13.5 1h-6q-15 0 -28 -6.5
t-13 -22.5q0 -14 19 -26h8q24 0 37 -5t17 -29q6 -28 9.5 -45t5 -34t2 -38.5t0.5 -57.5q0 -32 -2.5 -78t-5.5 -90t-6.5 -79l-4.5 -45l-2.5 -9.5t-8 -21t-13.5 -21.5t-20 -10h-5q-22 -7 -22 -31v-7q12 -24 23 -26q8 1 15 1h16t21.5 -1.5t26.5 -3t28.5 -3t26.5 -1.5q14 1 24 1
h19q19 0 22 -1q6 1 13.5 4.5t14.5 9t12 13.5t5 18t-5 16.5t-12.5 10t-17 5t-17.5 2.5h-6q-3 5 -6 9.5l-11 16.5v-1q-5 5 -8.5 13.5t-5.5 27t-3 49.5t-1 82q0 25 3 45.5t3 39.5q0 11 -1 15v-1v70l-4 13q0 14 1 33t3 32q11 -3 31 -18.5t39.5 -32t34 -29.5t15.5 -12
q14 -5 25.5 -21.5t29.5 -27.5q2 -1 10.5 -8t19.5 -16v1q41 -35 69.5 -58.5t45.5 -35.5q18 -19 30.5 -34.5t22 -28.5t18.5 -25t19 -24q11 -17 23.5 -36t12.5 -29q0 -8 -3.5 -15.5t-17.5 -9.5h1q-20 -3 -28.5 -13t-8.5 -21q0 -6 4.5 -11.5t9.5 -10t10 -7l7 -3.5h15q4 0 8 0.5
t9 0.5q25 0 57.5 -3.5t72.5 -3.5q23 0 36 0.5t21 3.5t12 8t9 14z" />
    <glyph glyph-name="O" unicode="O" horiz-adv-x="866" 
d="M844 338q0 36 -11.5 70.5t-29 65.5t-39.5 56t-43 43l-55 33q-33 15 -52.5 24t-30.5 13.5t-16 6.5t-8 3l1 -1q-1 0 -12 5t-25.5 10t-29.5 9.5t-24 4.5q-14 0 -30 -7q-5 1 -11.5 1.5t-14.5 0.5q-17 0 -37.5 -2t-44.5 -6q-36 -18 -56 -22q-64 -13 -119 -98
q-16 -11 -34.5 -33.5t-34.5 -45t-27 -38t-11 -12.5v1q-3 -5 -7.5 -14l-9.5 -19t-8.5 -19.5t-3.5 -16.5q0 -14 8 -40t20.5 -55.5t29.5 -58t35 -46.5q28 -28 41 -42t27 -26q16 -3 36 -10t39 -15t35 -16l24 -12q79 -38 150 -38h16q10 6 30.5 12t43 11t43 10.5t29.5 10.5
q30 18 49 31.5t32.5 27t24.5 27.5t25 33q34 44 60.5 91.5t25.5 91.5zM743 362v-7q0 -20 -1 -35.5t-5.5 -29.5t-14.5 -29.5t-28 -36.5q-33 -38 -57 -64t-46.5 -43t-47.5 -26.5t-61 -14.5q-17 -6 -36 -6q-40 0 -84 26q-24 4 -48 15t-47.5 25.5t-46.5 32t-47 34.5
q-18 13 -30.5 30t-20 34t-11 32.5t-3.5 25.5q0 8 1.5 16t6.5 16q28 61 49.5 98.5t40 59.5t35.5 33.5t38 19.5q23 15 39.5 23.5t30.5 12t28 4.5t34 1q16 0 39.5 -3t48 -9t46.5 -15t37 -22q43 -21 72 -41t47.5 -38.5t28 -35t14.5 -30.5q-1 -16 -1 -29v-24z" />
    <glyph glyph-name="P" unicode="P" horiz-adv-x="860" 
d="M827 445l-9 12q-35 46 -62 80t-47 57q-38 24 -65.5 43t-43.5 31q-31 5 -55 8.5t-38 6.5h-7q-8 0 -21 2t-27 4h1q-17 2 -33 4.5t-30 2.5q-50 0 -90 -2.5t-70 -2.5h-34q-8 -5 -17 -7t-21 -2q-6 0 -16.5 1t-21.5 2.5t-19.5 3t-9.5 2.5q-17 -4 -34.5 -7.5t-24.5 -21.5v-3
q0 -15 19 -20.5t42.5 -13t42.5 -23t19 -52.5q0 -2 -0.5 -3.5t-0.5 -3.5v-7q0 -20 3.5 -34.5t8.5 -24.5v-113q0 -38 -2 -71.5t-12 -65.5q6 -21 6 -33q0 -5 -1 -8q1 -5 1 -10v-9q0 -56 -41 -88l-24 -6q-10 -2 -22.5 -5.5t-24 -8t-19.5 -10.5t-8 -12v-3q0 -12 7.5 -18.5
t18 -9.5t22.5 -3.5t20 -0.5h7h6q4 0 6 1q22 -7 66 -7q14 0 32 1t32 1q27 0 43.5 -4.5t37.5 -4.5q7 0 18 1.5t21 6t17 12.5t7 20q0 28 -21.5 33.5t-63.5 7.5h3q-14 3 -22 15.5t-12.5 29t-7 34t-4.5 29.5t-3.5 21.5t-1.5 15.5q0 15 5.5 19.5t13.5 4.5q3 0 11 -1t17.5 -1.5
t19 -1.5t16.5 -1q9 0 17 0.5t15 1.5q22 -3 48 -3q14 0 46 2.5t69 5t72 5t55 2.5h11q55 10 89.5 20t54 24t26.5 35t7 53q0 17 -3.5 32.5t-8.5 29.5zM709 336q-8 -2 -19 -6t-28 -10v1q-13 -4 -24 -5t-19 -1h-12q-42 -5 -74 -8.5t-53 -3.5h-73q-28 3 -47.5 9t-39.5 6h-12
q-5 0 -10 -0.5t-12 -0.5q-24 0 -31 10q1 5 1 9v12t-1.5 19.5t-4 26t-4 26t-1.5 20.5q0 10 3 30t3 60v23t-1 26q6 26 27 31.5t53 5.5h19t22 -2l-2 1l14 -5h-1q5 0 16.5 1t25 2.5t26 2.5t20.5 1q52 0 75 -33q3 -3 8 -3h2q44 0 108 -67l-2 2q19 -36 46 -42q52 -70 52 -94
q0 -12 -4.5 -20t-12 -13t-16.5 -7.5t-17 -3.5z" />
    <glyph glyph-name="Q" unicode="Q" horiz-adv-x="963" 
d="M939 124l-5 3h3q-14 18 -37 18q-8 0 -24 -3t-21 -5h1q-10 -2 -23 -9t-24 -7q-13 6 -29.5 19t-17.5 24q20 21 33 36.5t21.5 28t14.5 21.5t13 16q22 31 22 77q0 27 -9.5 54t-21 48.5t-20.5 35.5t-7 14l-0.5 -0.5t-0.5 -1.5q-23 27 -39 45t-30 30.5t-29 22t-37 19.5
q-56 25 -87 38t-51 19h1q-14 13 -32 18.5t-38 5.5q-13 0 -31.5 -3.5t-37 -7.5t-33.5 -7.5t-19 -3.5q-69 -22 -128.5 -62.5t-107.5 -100.5q-4 -9 -13 -21.5t-19 -25.5t-19 -24t-12 -16q0 -5 -4 -15.5t-8.5 -22t-8.5 -23t-4 -18.5v-9q0 -4 1 -8q21 -41 36 -74t26 -56v1
q2 -5 2.5 -6l1.5 -3q46 -41 76.5 -66.5t48.5 -36.5q57 -23 86 -35.5t37 -14.5q11 -11 35 -15t60 -4h9q4 -1 15 -1q16 0 32 2.5t28.5 6t20.5 6t7 2.5q13 7 20.5 11.5t12 6t7 2t7.5 0.5q1 0 1.5 -0.5t1.5 -0.5h6q35 19 53.5 29t26.5 14t8.5 3.5t-0.5 -1t-1 0.5t7 6
q4 3 7.5 5.5t4.5 2.5l0.5 -0.5t1.5 -2.5v1q15 -38 44.5 -63t64.5 -25q9 0 30.5 10t43 24.5t38 31t16.5 30.5v3t-2 4v-2zM718 239q-5 10 -14.5 23.5t-19.5 28t-18 26.5t-9 19q-43 33 -53 33q-12 0 -17 -4.5t-11 -13.5t-17.5 -23t-35.5 -33q-2 -1 -10.5 -8.5t-19 -19
t-20.5 -25t-14 -27.5v-6q0 -17 21 -27q20 0 37 17l21 22q17 7 30.5 11t26.5 4q21 0 39 -18t18 -39l-5 -9q-77 -42 -130 -67t-85 -25t-61 9.5t-62 31.5q-30 1 -59.5 22.5t-61.5 47.5h1q-14 12 -29 23t-17 19q4 9 4 22q0 12 -3.5 19t-7 15.5t-7 22.5t-3.5 42q0 18 6.5 35
t15 30.5t16.5 24t10 15.5q16 19 38 36.5t47 33.5t51.5 32.5t51.5 34.5l-1 -1q14 7 27.5 10.5t30.5 3.5q28 0 58 -10h1q10 0 26 -6.5t33 -6.5q24 -20 49 -26q38 -21 78.5 -51t85.5 -72q5 -6 7.5 -14t2.5 -20q0 -3 -0.5 -9.5t-1 -14t-1 -14t-0.5 -9.5q0 -10 1 -17.5t5 -14.5
v-1q0 -8 -4.5 -21.5t-11.5 -27t-14.5 -23.5t-14.5 -10zM939 124q1 -1 1 -2l1 -1q0 5 -4 6z" />
    <glyph glyph-name="R" unicode="R" horiz-adv-x="888" 
d="M866 27q-5 11 -12 17t-17.5 9.5t-23.5 7t-29 9.5q-18 9 -33.5 16.5t-29 17t-25 21.5t-21.5 29q-4 5 -7 9.5t-1 2.5l2 -2q-6 10 -13 21v-1q-10 13 -10 17q0 6 14.5 11.5t32.5 11t34 11.5t19 12l35 43q20 20 31.5 47t11.5 52q0 68 -37 120q-31 29 -52 47t-37 29t-29.5 17.5
t-29.5 14.5q-45 19 -87 33.5t-76 19.5q-5 -2 -11 -2h-14q-15 0 -39 2t-56 6q-5 0 -9 1.5t-12 1.5q-7 0 -17.5 -1.5t-21.5 -4t-20.5 -4t-14.5 -1.5l-8.5 1t-14.5 2h1q-14 3 -30 3q-30 0 -48.5 -3t-25.5 -3q-16 0 -36 5q-10 0 -20.5 -0.5t-20.5 -4t-17 -10t-10 -18.5
q7 -16 18.5 -18.5t25.5 -7t30 -18t33 -50.5q3 -6 9 -6q4 0 8 4q-3 -11 -8.5 -45.5t-5.5 -93.5q0 -8 0.5 -16.5t0.5 -16.5q-4 -48 -6 -86.5t-2 -70.5v-37q-1 -4 -1 -11v1q-2 -10 -3 -17t-5 -17t-11.5 -26.5t-20.5 -44.5q-3 -2 -9.5 -3t-14 -1.5t-14 -1t-10.5 -3.5
q-25 -14 -25 -33v-4q14 -25 40 -25h5q9 1 16 1h13q8 0 10 -1h11q15 1 28 1.5t25 0.5q32 0 53.5 -3t44.5 -5q12 0 24 2.5t22 7t16.5 11.5t6.5 16q0 17 -14 26t-25 9q-5 0 -8 -1q-26 7 -40.5 13t-21.5 13.5t-9.5 19t-4.5 30.5q7 13 18.5 23.5t17.5 22.5q8 1 14 1.5t11 0.5
q15 0 24 -3q38 8 65.5 11t46.5 4q21 -7 52 -7q33 0 54.5 1.5t29.5 2.5l15 -15q1 -4 9 -14.5t36 -39.5q14 -14 20 -27.5t6 -21.5q0 -7 -17 -9t-37.5 -5.5t-37.5 -11t-17 -25.5q0 -17 14.5 -23.5t31.5 -6.5q5 0 14 0.5t18 2.5h-1q10 2 20 3t15 1q4 0 18 -2t33 -4t40 -4t39 -3
h1q4 -1 6.5 -1.5t5.5 -0.5h10h17q32 0 47.5 12.5t15.5 24.5q0 1 -1 1v1v5zM735 437q2 -6 2 -9q0 -5 -5.5 -21.5t-5.5 -34.5v-4q0 -11 10 -11q6 0 9 5v-4q0 -3 -4.5 -8.5t-16 -14t-33.5 -19.5q-13 -14 -23.5 -22t-17.5 -13l2 1q-12 -3 -35.5 -6t-53 -5t-62 -4.5t-64 -3.5
t-59 -2t-45.5 -1q-19 0 -39 2.5t-29 4.5h-8l-1 2q0 1 -1 3l1 -1q-9 15 -17.5 30t-8.5 29v1q0 6 -6 14.5t-6 19.5q0 8 4 23q-2 4 -2 9q0 8 2 31t2 45q0 17 -3 28.5t-3 22.5q0 17 16 32t36 31l-1 -1l1 1q0 1 1 2l58 15h9t9 -2h21q51 0 88 -6.5t61 -17.5h4q8 0 16.5 -2.5
t18.5 -6.5h-1q11 -5 21 -8.5t20 -3.5h3q9 0 9 9q0 2 -2 6q3 -3 11 -10t16 -15t14 -16.5t6 -12.5v-4q0 -5 4.5 -8.5t10.5 -6t11.5 -4t7.5 -1.5q16 -20 28 -34t20 -21v-2zM268 64l-2 1v-1h2z" />
    <glyph glyph-name="S" unicode="S" horiz-adv-x="873" 
d="M849 212q0 6 1.5 10t1.5 12q0 77 -67 120l-101 36q-7 0 -13.5 0.5t-12.5 0.5h-21q-45 0 -68 -4h-5q-21 0 -41.5 -4t-43.5 -10h1q-16 -4 -36.5 -7t-40.5 -7t-37 -9t-24 -13q-36 -9 -64.5 -15t-48.5 -10q-5 1 -11 1q-5 0 -10 -0.5t-10 -0.5h-23q-9 2 -14.5 10t-9 18
t-5 19.5t-2.5 13.5q4 7 4 19q0 2 -0.5 4.5t-0.5 5.5v11q0 8 2 11q0 1 -0.5 2.5t-0.5 3.5v5q0 26 21 56t61 65l-2 -1q47 19 95.5 30t89 15.5t67 5.5t29.5 1q30 0 52 -2.5t41 -10t37 -21t39 -34.5q5 -8 7.5 -13.5t4 -13.5t2 -20.5t1.5 -35.5v-18q12 -15 25 -15h2q22 0 33 17
q23 59 39 97.5t26.5 63t15.5 37.5t5 20q-9 14 -20 14h-2q-5 0 -12 -8.5t-15 -18t-18.5 -18t-22.5 -8.5q-20 0 -45.5 7.5t-61.5 21.5q-32 14 -75.5 17t-89.5 5h1q-8 1 -19 1q-10 0 -19 1q-67 -10 -122.5 -22t-103.5 -28q-36 -27 -62.5 -48.5t-44.5 -40.5t-29 -36.5t-18 -35.5
q-5 -18 -13 -41t-8 -38q0 -9 -1 -10q9 -27 19 -49.5t25 -39t38 -25.5t59 -9h17q41 2 73 6.5t57.5 10t46 10.5t38.5 8q18 10 31.5 15.5t33 9.5t49.5 6.5t81 6.5q16 3 29 3q18 0 38 -5t37.5 -17t28.5 -31t11 -47q0 -80 -62 -116t-175 -36q-31 0 -68 3h1q-36 9 -75 15t-78 14.5
t-77.5 22t-72.5 36.5q-2 2 -11.5 9.5t-22 16t-27 15.5t-27.5 7h-5q-29 -15 -29 -35q0 -6 6 -15.5t13.5 -19.5t14 -19.5t6.5 -15.5q0 -1 -0.5 -1.5t-0.5 -1.5v-3q0 -2 1.5 -4.5t4.5 -8.5t7.5 -17t10.5 -31q7 -21 18.5 -34.5t30.5 -17.5q29 2 37.5 14.5t8.5 34.5v12t-1 12
q1 3 10 3h1q31 -9 49.5 -16t30.5 -12t21 -7.5t21 -2.5h6q31 -8 77.5 -12t109.5 -5q12 -3 24 -5t24 -2q1 0 2 0.5t3 0.5h7q43 7 69.5 13t44.5 12t31 13.5t31 19.5q20 15 42.5 32t30.5 35l-1 -1q13 20 25 42.5t12 42.5zM38 374v-2v2z" />
    <glyph glyph-name="T" unicode="T" horiz-adv-x="900" 
d="M834 682q-14 -2 -22.5 -3t-17 -1.5t-19.5 -0.5h-28q-48 0 -80.5 5t-49.5 5h-9q-22 -3 -39 -4t-31 -1h-36q-24 8 -41 8q-19 0 -38 -8q-16 -1 -32 -1.5t-30 -0.5q-23 0 -36.5 0.5t-27 2t-32 2.5t-52.5 3q-30 0 -48 -5.5t-29 -5.5q-6 0 -15.5 1.5t-19.5 3.5t-19.5 3.5
t-15.5 1.5q-14 0 -25 -6t-21 -21q2 -45 3 -69.5t1.5 -37t1 -17t0.5 -8.5v-24q0 -21 17 -31h31q26 14 26 41v2q13 13 13 34q-2 16 -2 20v11q1 6 2 10t5 7.5t11 7l19 9.5q48 -3 78 -4t52 -1h18q11 0 23 1h10q29 0 44 -11.5t15 -48.5q5 -23 8 -39.5t3 -28.5v-6q5 -14 5 -39
q0 -7 -1 -19t-2.5 -25.5t-2.5 -25.5t-1 -19q0 -22 4 -37q-1 -8 -1 -16v-17q0 -16 1 -34.5t3 -39.5q-10 -14 -12.5 -35t-8.5 -40.5t-20 -33.5t-45 -14l-11 -6q-14 -7 -30.5 -18.5t-16.5 -32.5q0 -17 18 -27h38q48 0 78 3q20 -3 36.5 -5t30.5 -2q10 3 25 3h10q10 -2 20.5 -2.5
t20.5 -2.5h12q9 0 21 0.5t24.5 3.5t23.5 8.5t17 15.5v5q0 38 -44 44l-61 9q-15 14 -22.5 27t-7.5 20q0 5 3 5q-5 77 -10 135t-9 100t-6.5 69.5t-2.5 42.5q0 17 7.5 48t21.5 77l-1 -1q8 17 30 17q-2 0 4 -1t14.5 -1.5t16.5 -1.5t11 -1q6 0 10 2h1q40 -2 76.5 -3t59.5 -1
q29 -17 37 -24t8 -17v-5q5 -20 7 -36t6 -27.5t12.5 -17.5t25.5 -6h8q13 1 20.5 7.5t12 20.5t6 36.5t1.5 55.5l8 33q2 8 2 11q0 13 -12 25.5t-34 14.5z" />
    <glyph glyph-name="U" unicode="U" horiz-adv-x="889" 
d="M868 497q-62 88 -104 139t-70 51q-15 0 -24 -8.5t-9 -17.5q0 -5 4 -11.5t9 -13.5t9 -13t4 -11v-6q2 -5 4 -10.5t2 -10.5q0 -29 -8.5 -58.5t-8.5 -58.5q0 -15 5 -35t13 -42t18.5 -44t21.5 -41q0 -9 1 -20.5t2.5 -22t3 -19t1.5 -12.5v-1q-1 -2 -1 -7v1q0 -3 -0.5 -13
t-2 -22.5t-5.5 -25.5t-11 -22q-17 -26 -27.5 -39t-24.5 -20.5t-36.5 -11.5t-64.5 -10q-6 0 -19 -4.5t-28 -5.5q-21 -3 -39 -5t-39 -2q-81 0 -199 25q-4 3 -16.5 7t-27 10.5t-28 15t-19.5 19.5q-11 8 -17.5 21t-10 28t-4.5 31t-2 31q-5 15 -5 27q0 15 7 30.5t17.5 31t23 31
t24.5 30.5q4 6 10.5 14.5t12 18t9.5 18.5t4 17v1q3 7 5.5 15t2.5 17q0 2 -6 24t-14 55q-3 13 -3 21q0 7 9 15t20 18t20 21.5t9 25.5v6q-9 20 -32 20h-9q-6 -2 -14.5 -6.5t-17 -10t-16 -9.5t-11.5 -5q-26 -26 -50 -49t-42 -42t-28.5 -34t-10.5 -27q0 -7 3 -12.5t9 -5.5h3
q19 0 43 21h1q7 0 14.5 -4.5t14 -11.5t10.5 -15.5t4 -15.5q0 -19 -14.5 -38.5t-30.5 -39.5l-13 -16q-17 -32 -29.5 -55.5t-21.5 -39.5q0 -7 -1 -18.5t-2.5 -23.5t-2.5 -23t-1 -17q0 -16 5.5 -32.5t13.5 -31t16.5 -25.5t14.5 -16q38 -38 87.5 -59.5t101.5 -32.5t102.5 -14
t90.5 -3h18q19 -3 38 -3q33 0 65 4.5t59.5 11.5t50 15.5t36.5 16.5h-1q69 29 98 74q6 25 11.5 37t9 19.5t5.5 14.5t2 24q0 35 -4.5 60t-11 42t-13 28t-10.5 19q-10 24 -17.5 40t-13.5 27v-1q-8 17 -13.5 29t-5.5 25q0 10 5.5 18t13.5 8q40 -28 53 -28q12 0 26 8.5t14 22.5v8
z" />
    <glyph glyph-name="V" unicode="V" horiz-adv-x="875" 
d="M856 675q-10 16 -30 16h-4q-7 0 -11 -1t-8 -1t-6 2q-23 4 -41 6t-32 2h-8q-39 -3 -70.5 -5t-54.5 -2q-4 0 -7.5 0.5t-6.5 0.5h-12q-24 -10 -24 -37q16 -20 43 -20h8q16 0 27.5 -1t16.5 -2h1q-1 -17 -3 -34t-5 -35q-32 -62 -50 -103.5t-31.5 -73.5t-27 -61.5t-35.5 -68.5
q-11 -18 -19 -37.5t-14 -35.5t-10.5 -26t-6.5 -10q-9 0 -13.5 1t-8.5 7t-7.5 19.5t-9.5 38.5q-21 44 -38 78.5t-30.5 62.5t-25 49.5t-21.5 39.5v-1q-5 11 -7.5 22.5t-2.5 21.5q0 7 1 12v4q0 7 -4.5 19.5t-10 25.5t-10 24t-4.5 16q0 7 2.5 12.5t19.5 5.5q6 0 11 -1
q5 0 14.5 4t21.5 6q9 1 17.5 2.5t15 5.5t10.5 11t4 20q0 10 -5 15.5t-12.5 8.5t-15.5 4.5t-14 3.5q-8 2 -10 2h-7q-1 0 -6 -1.5t-11 -4t-13 -4t-12 -1.5h-1q-59 4 -105 6t-76 3l-33 -6q-19 -10 -19 -27v-4q3 -8 7.5 -14t15.5 -8q5 1 8 1h8q13 0 21 -4t16 -13t18 -23.5
t28 -35.5v1q8 -11 12 -22t4 -19q40 -66 65 -112t42.5 -80t29 -60t24.5 -51q15 -31 27 -61t12 -56t-25 -26h-12q-8 1 -15 1.5t-14 0.5q-26 0 -36 -11.5t-13 -24.5q0 -11 7.5 -17t18.5 -9t23 -3.5t21 -0.5h20h16q9 0 18 1h30h27q11 0 20 -0.5t20.5 -1.5t30.5 -3q21 -2 30 -7
h18q39 0 60.5 4t27.5 27q0 15 -16 23.5t-36 12.5t-39.5 4.5t-26.5 0.5h-5q-5 6 -8.5 12t-5.5 11v3q2 10 18 41q5 23 17 57.5t35 69.5q5 9 7.5 17t4.5 15t6.5 14t13.5 14q8 7 15.5 14.5t8.5 18.5q26 45 43 75t29 52t20 37t15 30q3 9 5.5 16t8.5 15.5t15.5 19t25.5 25.5
q2 1 7 1q3 0 6 -0.5t7 -0.5h13q18 0 30 11.5t12 38.5v5z" />
    <glyph glyph-name="W" unicode="W" horiz-adv-x="1078" 
d="M1058 669q-14 29 -48 34h-11h-10q-5 0 -12.5 -0.5t-20.5 -1.5q-6 0 -16.5 2t-21.5 4l-22 4t-18 2q-16 0 -25 -4.5t-19 -4.5q-3 0 -9.5 0.5t-14 1t-14 1.5t-8.5 2q-40 0 -49 -33v-5q0 -16 9.5 -23.5t21 -10.5t22 -4t12.5 -5q19 -37 19 -43t-8 -16q0 -22 -8.5 -54t-19 -63
t-20 -55.5t-10.5 -31.5q-11 -14 -21 -42t-18 -56h1q-8 -22 -13 -39.5t-12 -28.5q-3 -25 -9 -35q-17 17 -21.5 32t-9.5 20q-9 9 -13.5 27t-12.5 29q-2 8 -11.5 20t-9.5 19q0 -1 7 6t17 15.5t20 16t15 7.5h5q20 13 20 29v7q-10 16 -32 16h-3q-77 12 -122 12h-11q-14 -2 -26 -3
t-21 -1h-11t-10 1q-8 0 -14 -5.5t-17 -5.5h-36q-17 -9 -17 -25v-3q0 -9 7.5 -15.5t16.5 -10t16.5 -5t6.5 -1.5q5 -1 9.5 -2t9.5 -4l-1 1q10 -7 21 -13t11 -11q0 -4 -3 -10.5t-7 -14t-7.5 -15t-4.5 -13.5q-17 -30 -30 -60t-31 -46q-19 28 -28.5 55.5t-13.5 41.5l-13 39
q-16 44 -25.5 75t-14.5 51q-12 11 -17 37l-9 43q-21 45 -21 105v6q2 3 8 4.5t12.5 2t12.5 1t9 2.5q23 17 26 34q-10 28 -24.5 33.5t-39.5 5.5h-5q-17 0 -35.5 -1.5t-32.5 -1.5q-31 0 -47 4q-14 -2 -28 -2h-24h-17t-15 1q-10 -7 -16 -15.5t-7 -19.5q3 -9 11 -14.5t17.5 -8.5
t17.5 -4t10 -1q20 -18 38 -43t34.5 -55t30.5 -62.5t26 -65.5q6 -18 12 -35.5t13 -26.5l-1 3q12 -36 20.5 -59.5t14.5 -43t11.5 -38.5t11.5 -45q7 -19 9.5 -33.5t2.5 -26.5q0 -17 -4 -22.5t-10 -6.5t-14 -1q-7 0 -13 -5q-29 -13 -29 -34q0 -18 16.5 -29t33.5 -11q7 0 16 4.5
t20 4.5q6 0 15.5 -2t20 -4t20 -4t15.5 -2q12 0 24 3q17 -7 37 -9t46 -2q43 26 43 50q0 9 -7 16t-15.5 12t-16.5 8.5t-9 3.5l3 -2q-4 3 -8.5 3.5t-9.5 0.5h-10q-8 0 -10.5 2t-2.5 11q0 21 7.5 43t18 41.5t21 35t16.5 23.5q3 2 6 5.5t6 7.5h-1q2 3 4.5 6.5t4.5 5.5
q42 -51 57.5 -84t17.5 -41v-2q-2 -4 -2 -11q0 -4 4.5 -14t4.5 -15q0 -11 -8.5 -15.5t-18.5 -8.5t-18.5 -11.5t-8.5 -23.5v-5q11 -25 59 -30q9 3 14 3t18.5 -3.5t24.5 -3.5q6 0 10 1q8 -5 17.5 -7t20.5 -2q15 0 33 4t48 4l21 11q12 12 12 23t-8 19.5t-18.5 14t-20 8.5
t-13.5 3h-1q-6 6 -12 20t-8 25q31 126 56 195.5t29 90.5q5 8 10 22.5t10 31t10 31.5t10 24q12 8 25 22t24.5 29.5t20 30t13.5 22.5l2 4q6 7 31 7q35 0 47 13t12 30v4zM756 363v1v-1z" />
    <glyph glyph-name="X" unicode="X" horiz-adv-x="891" 
d="M869 647q-12 26 -41 26h-3q-9 0 -16 -1t-12 -1q-9 0 -13 3q-27 -6 -69 -6q-23 0 -50.5 1.5t-60.5 3.5q-6 0 -11 -4.5t-8.5 -10t-5.5 -11t-2 -7.5q0 -14 9 -20.5t20.5 -10t22 -6.5t13.5 -11q-9 -18 -25.5 -36.5t-33 -34.5t-30.5 -28.5t-18 -18.5q-9 -4 -19 -15t-20 -23
t-18.5 -21t-12.5 -9q-7 0 -14 10q-31 25 -53.5 40.5t-41 28.5t-35 26.5t-35.5 33.5q-23 24 -35.5 38t-14.5 12v3q0 4 10 4.5t21.5 3t21.5 9t10 22.5q0 19 -18 28t-34 9q-7 0 -16.5 -1t-18.5 -3h1q-11 -2 -19.5 -2.5t-12.5 -0.5q-17 2 -33.5 3t-36.5 1q-12 0 -27 -1
t-27.5 -4.5t-21 -10.5t-8.5 -18q0 -5 4.5 -9t10 -6.5t10 -4t5.5 -1.5q74 -30 97 -62q49 -27 95 -60t82.5 -62.5t60 -50.5t27.5 -24q-4 2 -6 2q-9 0 -9 -10v-2q-1 1 -5.5 -3t-9.5 -10v1q-12 -9 -29.5 -27t-34.5 -37.5t-32 -35.5t-23 -22q-13 -17 -33 -38t-46 -41l-89 -71
q-6 -8 -15 -9t-17.5 -1.5t-14 -4.5t-5.5 -17l-4 17q-14 -8 -19.5 -16.5t-5.5 -16.5v-5q7 -9 13 -15t11 -7q38 -2 65 -4t43 -4q6 2 15 2.5t20 0.5h23q7 -1 13 -1.5t13 -0.5q23 0 39.5 9t16.5 28q0 9 -5.5 16t-13 12t-15.5 7.5t-13 2.5h-6q28 37 50 63.5t39 43.5q21 36 49 51
h-1q6 2 12 8t12 12.5t12.5 13t13.5 8.5q10 -4 17 -9t15.5 -12.5t21 -19.5t35.5 -30q6 -1 15 -7t18.5 -13.5t18.5 -15t16 -11.5q33 -26 56.5 -44.5t27.5 -29.5l-1 -1q-2 -1 -2.5 -1.5t-2.5 -1.5h-1q-9 0 -22 -2t-25.5 -7.5t-21 -13.5t-8.5 -20v-7q17 -32 53 -32q4 0 24 2.5
t36 2.5h10q21 8 50 8h10q15 0 32 -1t24 -1h10q26 11 28 34q-6 31 -32 37q-38 23 -67 38.5t-52 24.5q-34 32 -55.5 48.5t-38 28.5t-32 23.5t-36.5 32.5l-23 22q-2 1 -5 4h1q-11 8 -22 17t-13 19q58 56 107.5 104t78.5 80q21 4 48 33l39 39q7 8 15 14t20 8l52 5q24 12 24 43z
" />
    <glyph glyph-name="Y" unicode="Y" horiz-adv-x="871" 
d="M851 239q-5 67 -17 90q-17 25 -47.5 59.5t-63 69t-59.5 63t-37 40.5l-3 44q5 9 12 18t7 19q0 15 -12 25.5t-26 10.5q-23 0 -45 -22.5t-44 -48.5v1q-14 -17 -27 -31t-23 -28h1q-14 -14 -24 -26.5t-10 -20.5q0 -3 2.5 -9t8 -12.5t13 -11.5t16.5 -5q3 0 11 5t19.5 11.5
t25 12t27.5 5.5q15 0 30 -8t27.5 -18.5t20 -21.5t7.5 -16q0 -2 -5.5 -13t-14.5 -37q-6 -17 -22.5 -35t-36 -34.5t-38 -30.5t-28.5 -24q-34 -13 -60.5 -23t-44.5 -18h-2q-11 0 -24.5 -2.5t-27.5 -5t-26 -5t-18 -2.5q-23 3 -47 3t-46 4.5t-38.5 17t-24.5 39.5v-1
q-1 6 -3.5 23.5t-7.5 49.5q2 19 3.5 30t7.5 26t19 39.5t38 70.5q7 5 13.5 9t11.5 9h-1q15 11 23 17t12.5 9t6.5 3.5t5 0.5h2q3 0 6 -0.5t6 -0.5h13q20 0 28.5 11.5t8.5 19.5q0 11 -9 20t-20 14q-103 19 -163 50q-3 1 -7 1.5t-11 0.5q-14 0 -27.5 -7t-13.5 -23q0 -17 7.5 -25
t18 -12t21.5 -6.5t17 -8.5q-23 -24 -42.5 -58.5t-39.5 -71.5l-13 -26q-8 -40 -20 -52q-7 -31 -7 -60q0 -26 5.5 -50.5t16.5 -47.5v1q3 -9 11 -17t17 -14.5t16.5 -12.5t9.5 -12q23 -14 52.5 -22t70.5 -8h11q28 -6 50 -6q10 0 17.5 1t14.5 5h17q14 0 34.5 4.5t41 10.5t38 11.5
t26.5 7.5q21 6 43 17t47 27.5t53 39.5t62 52h-1q8 6 16.5 15t15 16.5t11.5 13l5 5.5q9 0 17.5 -11.5t15.5 -26t11.5 -27t5.5 -15.5q2 -9 2 -17v-15q0 -57 -33 -81l1 1q-29 -17 -52 -26.5t-43.5 -15t-40 -9.5t-40.5 -10h1q-14 -4 -29.5 -7.5t-26.5 -3.5h-4q-4 -2 -16 -4
t-25.5 -4t-25 -3.5t-13.5 -2.5q-1 -1 -3 -1q-13 0 -30 10t-28 14h-4q-5 0 -11 0.5t-11 1.5h1q-4 1 -8 1h-6q-11 0 -20.5 -6t-9.5 -19q0 -8 10.5 -17.5t25.5 -19t30.5 -19t25.5 -16.5l-1 1q17 -11 29.5 -23.5t24 -23t22.5 -18t24 -7.5h12q11 3 17.5 10t6.5 20q0 5 -3 10
t-6.5 9.5t-6 7t-1.5 2.5v-1q0 6 -1 12.5t-1 11.5v2q64 8 97 17.5t44 9.5h6q61 17 98 36t57.5 36.5t28.5 32.5t10 25q1 20 2.5 34.5t3.5 23.5v3z" />
    <glyph glyph-name="Z" unicode="Z" horiz-adv-x="901" 
d="M880 169q-11 25 -51 31q-30 -12 -38.5 -27t-10.5 -30t-4.5 -29t-21.5 -23q-5 -3 -14.5 -10t-21.5 -14t-23.5 -12t-19.5 -5q-2 0 -6.5 1t-9.5 2v-1q-7 2 -16.5 5t-20.5 3h-12q-14 -2 -24 -3t-19 -2q-17 3 -41 4t-53 1h-36q-12 -1 -22 -1h-20q-26 0 -46.5 1t-34.5 3
q-5 -1 -11 -1.5t-11 -0.5q-16 0 -27 4.5t-11 13.5q0 2 9.5 17.5t31.5 38.5h-1q12 14 24.5 29t14.5 29q34 36 61.5 60.5t50 42t40 30.5t32.5 26q19 16 34 26.5t28 18.5t24.5 16.5t23.5 20.5q44 33 67.5 58.5t41.5 36.5l8 9q15 14 31.5 26.5t32.5 12.5h10h6q10 8 18.5 13
t15 9.5t10 10.5t3.5 15q0 10 -5.5 18t-13.5 13.5t-16.5 8.5t-14.5 3q-9 0 -12 -1q-7 2 -15 2h-17q-17 0 -39.5 -1t-38.5 -1h-17q-7 0 -12 1q-13 -4 -34 -4q-14 0 -31 1t-28 1h-13t-10 -1q-12 3 -25 3q-22 0 -46 -9q-2 0 -10.5 1.5t-19 3t-22 2.5t-20.5 1q-11 0 -27 -4
t-26 -4q-11 4 -34 4h-16q-7 0 -16 -1q-15 3 -34 3q-10 0 -24.5 -1.5t-29.5 -3t-27.5 -3t-18.5 -1.5q-18 0 -40 6t-44 6q-23 0 -35.5 -15.5t-16.5 -40.5v-57q0 -7 -0.5 -13t-0.5 -12v-19q0 -32 8 -50.5t40 -18.5q8 0 13.5 4t9.5 10t5.5 12l2.5 10q14 10 14 29q0 8 -1.5 16.5
t-1.5 13.5q0 23 22 39t50 16h9q22 -3 42 -8q21 5 50 7.5t65 2.5q17 0 35 -0.5t39 -1.5h11q4 1 8 1h8q13 0 29.5 -3t32.5 -7t30 -7t22 -3q18 0 38 5t38 5q8 0 11 -5.5t4 -9.5q-5 -6 -23 -24t-40.5 -39t-45.5 -40.5t-37 -27.5h1q-25 -12 -56 -39t-56 -52l2 2q-16 -9 -36 -25
t-42 -35.5t-45 -40.5t-45 -40l2 1q-21 -10 -33.5 -19t-22.5 -19t-20.5 -21t-26.5 -26h1q-5 -3 -9 -7t-9 -8q-17 -22 -31.5 -33t-26.5 -19t-20.5 -16.5t-12.5 -24.5v-2q0 -10 7 -15.5t15.5 -8.5t15 -4t5.5 -1h18q18 0 45 1.5t56.5 3t57 3t45.5 1.5q76 0 132.5 -2t92.5 -2h109
q21 0 39 -3t34 -6t29.5 -5.5t24.5 -2.5q10 -1 19.5 -1.5t15.5 -1.5q15 7 24 20t16 28t12 29.5t12 23.5q1 9 6 21t11 25t10.5 26t4.5 22v5z" />
    <glyph glyph-name="FL005Bh" unicode="[" 
 />
    <glyph glyph-name="slash" unicode="\" horiz-adv-x="503" 
d="M278 66q0 -5 -9.5 -7.5t-20.5 -6.5t-20.5 -11.5t-10.5 -20.5q0 -7 7 -11.5t16.5 -7.5t19.5 -5t17 -3q42 -5 73 -5h52q19 -5 27.5 -8t9.5 -3q12 0 24 7t20 29l1 8q0 13 -9 23.5t-21 18t-24 12t-17 7.5q-31 32 -50 83l1 -2q-4 14 -11 40.5t-16 58t-18.5 64t-17 59.5t-13 44
l-5.5 17q-3 42 -21 60q-7 20 -12.5 36t-9.5 26q2 26 6 39t24 13q11 0 28 -3q58 14 62 42q-7 13 -17 17t-21 7h1q-2 1 -4.5 1.5t-4.5 1.5h-7q-2 0 -3.5 -0.5t-3.5 -0.5q-8 0 -18.5 1.5t-21.5 3.5t-20 3.5t-13 1.5q-7 0 -14 -1.5t-13 -1.5q-13 0 -34.5 3t-33.5 3q1 0 -16.5 -1
t-39.5 -5t-40 -13t-18 -24q0 -11 6.5 -17t15.5 -11q4 1 12 1h22q9 -2 19.5 -4t20 -5.5t18 -8.5t13.5 -14h-5q2 -1 3.5 -1.5t3.5 -1.5q0 1 -2 3l2 -3q16 -9 23 -27q-1 -5 -1 -10v-10v-8q5 -8 9 -18.5t7.5 -21.5t7 -20.5t6.5 -15.5q7 -29 13.5 -50t12.5 -35v-6q0 -17 8 -35
t8 -28q0 -6 -2 -14v-2q0 2 3.5 -13t8 -35t8 -40.5t4.5 -29.5q4 -22 6.5 -36.5t4 -25t2 -19.5t1.5 -20v-9z" />
    <glyph glyph-name="FL005Dh" unicode="]" 
 />
    <glyph glyph-name="FL005Eh" unicode="^" 
 />
    <glyph glyph-name="underscore" unicode="_" horiz-adv-x="739" 
d="M716 -9q-2 6 -2 10t1 10t1 10q0 18 -10.5 25.5t-27.5 7.5q-27 0 -43 -19q-23 -3 -46 -5.5t-48 -3.5q-4 0 -8.5 0.5t-10.5 0.5q-11 0 -25 -1.5t-25 -1.5h-9t-6 1q-17 -4 -42 -4q-50 0 -79.5 2t-47.5 4t-29.5 4t-25.5 2l-58 -4q-17 -2 -32 -2.5t-22 -0.5q-12 0 -21.5 2.5
t-17.5 6t-16.5 6t-17.5 2.5q-17 -9 -22 -17.5t-5 -16.5v-12q0 -32 10 -46t36 -14q9 0 18 4t20 8.5t25.5 8.5t32.5 4q16 0 33.5 -1t28.5 -1q13 0 19.5 0.5t9.5 1.5q80 -5 122.5 -7.5t66 -3.5t37 -1.5t34.5 -0.5h14q7 0 14 1q9 -4 33 -4h12q3 0 6.5 0.5t7.5 0.5l-8 2q0 1 13 2
t29 1.5t31 1t18 0.5l4 -16q29 12 29 50z" />
    <glyph glyph-name="FL0060h" unicode="`" 
 />
    <glyph glyph-name="a" unicode="a" horiz-adv-x="784" 
d="M712 49q-10 0 -14 -1q-6 4 -13.5 13t-15 19.5t-14.5 20t-13 15.5q-41 78 -69 134.5t-47.5 96.5t-33 68t-24.5 49v7q5 8 16 11.5t39 5.5q23 15 23 28v1q0 8 -6.5 13.5t-14.5 9t-16 5t-11 1.5q-2 0 -8 -1t-13 -1.5t-13.5 -1.5t-8.5 -1q-5 0 -9 1h-11q-13 0 -33.5 -2.5
t-32.5 -2.5q-9 0 -19 2h-14t-31.5 -2t-32 -7.5t-14.5 -16.5q0 -14 11 -19.5t20 -5.5h11q4 1 6 1h4q8 0 11.5 -4t3.5 -8q0 -16 -7.5 -40.5t-17 -47.5t-18 -41t-9.5 -20q-30 -32 -30 -49q-19 -32 -32 -57t-21 -45q-9 -7 -16.5 -18t-12.5 -22h1q-8 -14 -21.5 -30.5t-29 -30
t-32.5 -22.5t-33 -9h-5q-22 -8 -22 -23q0 -9 6.5 -15t15.5 -10.5t19.5 -6.5t18.5 -2q6 0 16 1t20.5 2.5t20 2.5t15.5 1q11 0 16 -1q5 2 10 3t13 1q5 0 16.5 -1.5t16.5 -1.5q27 0 43 21v5q0 8 -6.5 15t-15 12.5t-15 9.5t-6.5 6q-1 5 -1 10q0 21 13 38l122 5q10 0 29.5 -1
t36.5 -1h13q7 0 13 2q32 -2 59.5 -3.5t47.5 -3.5q5 -23 5 -35t-2.5 -19.5t-10.5 -7.5h-5q-14 -4 -30 -9.5t-20 -22.5v-1q0 -7 8 -12t20 -8t26 -4.5t26 -2.5q28 3 51 3q6 0 11.5 -0.5t13.5 -2.5q5 1 11.5 2t11.5 1q8 0 17.5 -1t18.5 -1q26 0 41.5 9.5t15.5 20.5q0 8 -7 10h3
q-17 20 -49 20zM509 166h-7q-20 2 -30.5 3t-12.5 1q-26 0 -49.5 -2t-42.5 -2q-13 0 -24 0.5t-20 1.5q-12 -2 -35 -2.5t-37 -4.5q20 35 36.5 62t27.5 52q4 10 11.5 22.5t15 25.5t13 25t5.5 23q12 24 24 45t19 21q8 0 19 -15t23 -38.5t24 -52t23 -55.5t20.5 -48.5t15.5 -31.5
q9 -17 9 -26q-12 -4 -28 -4zM764 25q0 2 -3 4q1 -1 1.5 -2t1.5 -2z" />
    <glyph glyph-name="b" unicode="b" horiz-adv-x="789" 
d="M767 119v6q0 1 0.5 2t0.5 3q0 11 -2.5 29.5t-7.5 41.5q-9 11 -15.5 27.5t-11.5 19.5q-8 5 -23 16.5t-26 14.5l2 -1q-23 10 -26 20q22 44 22 79q0 22 -7 36v3q0 2 0.5 3t0.5 3q0 26 -11.5 44.5t-31.5 32t-48 22t-62 14.5q-14 9 -33.5 10.5t-38.5 1.5h-11q-8 0 -16.5 1
t-14.5 1q-10 0 -20 -2h-29h-35t-48 -1q-15 3 -36 3q-7 0 -14.5 -0.5t-15.5 -1.5h-20q-8 -1 -19 -1.5t-22 -0.5q-8 0 -15.5 1t-13.5 2h-48q-19 -1 -34.5 -8t-15.5 -24q0 -11 12 -14.5t26.5 -6.5t26.5 -8t12 -17q5 -42 7.5 -76.5t2.5 -61.5q0 -32 -3 -54q3 -8 4 -18t1 -21
q0 -5 -0.5 -14.5t-1.5 -19.5t-1.5 -19.5t-0.5 -15.5v-13q0 -5 1 -11q-7 -20 -9 -37.5t-5 -29.5l-8 -9q-9 -13 -18.5 -19t-17.5 -10t-13.5 -7.5t-5.5 -11.5q0 -11 9 -17t23 -9.5t32 -4.5t35 -1h46h29q15 0 27 1q9 -3 19 -3q13 0 26 2t30 4.5t39 4.5t54 2t56.5 -5.5t54.5 -5.5
h27q14 0 27 0.5t27 2.5t30 6t36 12q46 17 74 46.5t36 61.5zM664 74q0 10 -10 10q-3 0 -7.5 -2.5t-7.5 -4.5l1 1q-18 -9 -38 -18.5t-36 -9.5q-5 0 -11.5 1t-12.5 3q-5 -2 -9 -2h-10t-15.5 1t-20 2.5t-19.5 2.5t-15 1h-14q-5 0 -10 -2q-9 3 -16 3q-13 0 -31.5 -4t-27.5 -4
q-5 0 -10 1.5t-10 1.5q-35 -2 -48 -6h-3h-15t-18 1t-16.5 2t-10.5 3l3 -1q-31 33 -31 54v6q-3 9 -3 15q0 16 1 24.5t3 12.5v-1q2 4 2 9q-2 9 -2 17v13v10q2 2 2 6q0 2 -0.5 2.5t-0.5 1.5v1q-1 3 -2 7t-1 6q0 3 14 5h80q47 0 84 -3.5t69 -3.5h11t10 1h-1l30 1q2 0 5 0.5
t8 0.5h13q5 0 10.5 -0.5t12.5 -0.5q14 0 24 1.5t18.5 3l17 3t19.5 1.5q2 0 8 -6l11 -11l5 -6q15 -10 25 -20t12 -23q-2 -5 -3 -10t-1 -10q0 -11 8 -25q0 -8 -3 -19t-7 -20.5t-7 -16.5t-3 -6zM605 396v-12q0 -2 -1 -7t-3 -10l1 1q-2 -5 -3 -9t-1 -6t1.5 -7t1.5 -11
q0 -12 -9 -18.5t-21.5 -10t-25.5 -5.5t-21 -6q-11 0 -20 0.5t-14 2.5q-37 -3 -63 -4t-44 -1q-50 3 -100 12h-6q-4 0 -11.5 1t-21.5 3h-50q0 9 -5 14t-8 7l17 1q-1 8 -1.5 18t-0.5 21v28q0 26 8.5 43.5t20 28t23.5 15t20 4.5q1 0 10 -1.5t21 -3t18 -1.5q9 0 17 1.5t14 6.5
q65 -4 98 -11t47 -9q22 -2 42.5 -4.5t36 -10t24.5 -21.5t9 -39z" />
    <glyph glyph-name="c" unicode="c" horiz-adv-x="816" 
d="M795 393q0 9 -1.5 17.5t-1.5 15.5v5q0 1 0.5 2t0.5 2q0 7 -2.5 15t-2.5 17q0 11 -1 21.5t-6.5 19.5t-17 16t-32.5 10q-5 0 -9 -2q-17 -15 -30 -22.5t-22 -9.5q-42 18 -74.5 28.5t-55.5 10.5h-20q-5 0 -16.5 1t-25.5 2.5t-28 2.5t-24 1h-13q-35 -8 -62 -14.5t-47 -13.5
q-44 -6 -102 -48l-48 -35q-15 -11 -24.5 -21t-14.5 -20q-18 -12 -30 -35q-17 -9 -29 -27.5t-19.5 -39.5t-11.5 -42t-4 -36q0 -23 5 -42t14.5 -35.5t22.5 -32.5t29 -32q31 -16 51.5 -28.5t37.5 -21.5t35.5 -14.5t45.5 -6.5q24 -1 40 -2.5t27 -3t20.5 -2t20.5 -0.5
q12 0 21.5 0.5t16.5 1.5q12 -1 22 -1h19q15 0 40.5 4t52 9.5t49 9.5t31.5 4q1 1 8 3.5t17 5.5t20.5 5t18.5 2h4q1 -2 1 -9v-8q14 -21 43 -26q18 1 25.5 8.5t10 18t2 23.5t1.5 25q-4 15 -6 26.5t-2 22.5q0 15 5 28q0 29 -9.5 46.5t-29.5 17.5q-22 0 -33.5 -7.5t-17.5 -39.5
q-4 -37 -31.5 -59t-64.5 -33.5t-76 -15t-64 -3.5h-14q-5 -1 -12 -1.5t-16 -0.5q-15 0 -43 1t-51 3q-5 -2 -10 -2h-9t-15.5 2.5t-22.5 6t-23 7t-18 4.5q-100 49 -119 95v13q0 12 -1 34q0 23 3.5 37.5t7.5 23t7.5 11.5l3.5 3q2 9 8.5 19t15.5 21l37 44q34 40 93 68.5t147 42.5
q5 1 10 1h12h8q6 0 14 0.5t17 0.5q13 0 27.5 -0.5t27.5 -2t22 -4.5t11 -7q1 -3 6 -5q22 -8 45.5 -20.5t43 -28t32 -34t12.5 -36.5q6 -15 14.5 -22.5t23.5 -7.5q8 0 19 5t18 10v1q10 0 13.5 14.5t3.5 28.5v4q2 6 2 12z" />
    <glyph glyph-name="d" unicode="d" horiz-adv-x="806" 
d="M784 239q0 28 -17.5 51.5t-43 46t-55 45t-53.5 48.5q-17 17 -40 32t-47 26.5t-46.5 19.5t-38.5 11h1q-29 8 -58 12.5t-53.5 7t-41 4t-20.5 3.5q-7 3 -14 3.5t-12 0.5t-13 -0.5t-17 -1.5t-17 -1.5t-12 -0.5q-9 0 -14.5 1.5t-16.5 1.5h-11t-12 -1h-7q-14 0 -22 3t-14 3
t-7 -6l-20 -2q-11 -2 -21.5 -5t-17.5 -11v-6q0 -14 9.5 -19t21 -8t21.5 -6.5t11 -13.5q21 -27 21 -70v-77q-2 -6 -2 -8q0 -17 6.5 -30.5t6.5 -33.5v-14q0 -4 -0.5 -7.5t-0.5 -8.5v1l-4 -62v2l-12 -44q0 -5 -1 -14.5t-4.5 -19.5t-11 -19t-20.5 -12q-20 -5 -32 -13.5
t-12 -22.5q0 -8 6 -14t15 -9.5t20 -5.5t21 -2q11 0 31.5 2t35.5 4l59 2q79 3 141.5 -3t109.5 -2h26q6 2 14 2q3 0 6.5 -0.5t8.5 -0.5h15q8 0 12 1q5 0 10.5 -1t9.5 -1q12 0 80 18h3q31 0 50 21.5t44 55.5q12 16 21 31t14.5 31t8 34.5t2.5 42.5v9zM707 248q8 -24 8 -38
t-7.5 -24.5t-7.5 -17.5q0 -4 1 -6v-4q0 -21 -15 -33.5t-35 -24.5v1q-11 -5 -21.5 -12t-19.5 -17l1 1q-23 -17 -52.5 -20t-55.5 -2t-44 1.5t-18 -8.5l-1 -1q0 7 -11 10t-25 4t-29 1h-21q-20 0 -36 -1.5t-33 -1.5q-23 0 -39 2.5t-25.5 10t-13.5 20.5t-4 35q0 5 0.5 9.5
t1.5 10.5v9q-9 12 -9 37v44q0 23 2 43t2 27q0 5 -1 4q3 3 3 8q-6 40 -6 79q0 40 15.5 63t35.5 26q5 -2 10 -2h12q8 0 21.5 1t21.5 1q37 0 67 -6t52 -13t36.5 -14t21.5 -8l-2 1q17 -8 36 -20t40 -29l-1 1l70 -62q28 -38 48 -56t29 -31z" />
    <glyph glyph-name="e" unicode="e" horiz-adv-x="804" 
d="M776 70l2 -2v1q0 4 0.5 15t2.5 22v11q0 19 -6 33t-30 14q-18 0 -27 -7.5t-13.5 -19.5t-6.5 -25t-5.5 -25t-11 -19.5t-21.5 -7.5h-9q-29 -8 -55 -8t-99 12q-16 -6 -20 -7t-12 -1t-15 4t-14 4q-6 0 -18 -2t-16 -2q-7 0 -11 1h-8h-13t-19 -1h-6q-16 0 -31.5 5.5t-31.5 5.5
h-10q-15 7 -22 14t-10.5 12.5t-5 10t-5.5 8.5q-6 6 -8 14t-4 20v17q0 10 1.5 17.5t10.5 7.5h4q12 -5 25.5 -6t27.5 -1t29 1.5t32 3.5q31 0 43 -2.5t12 -6.5q0 -14 -6 -38q5 -18 11 -26t23 -8q7 0 17 4.5t20 10t18 10.5t12 7q7 7 15.5 19.5t16.5 26.5t15.5 26.5t14.5 18.5
q5 13 8.5 22.5t3.5 13.5q0 15 -10 20.5t-21 5.5q-22 0 -41 -21q-5 -11 -19.5 -17t-34.5 -9.5t-42.5 -4.5t-43.5 -1h-82q-1 0 -3 0.5t-5 0.5h-9q-4 0 -8 -0.5t-9 -0.5q-17 0 -21 11.5t-4 23.5v25q0 38 9 62q-2 6 -2 10q-1 2 2 14.5t3 17.5t-1.5 10t-6.5 10v8q0 38 22 51h12
q23 0 49 12q24 2 46 2h42q28 0 51.5 -1t40.5 -3q21 0 39.5 2t33.5 2q13 0 22.5 -1.5t19 -4t21 -4t28.5 -1.5q8 -3 12.5 -5.5t9 -8.5t10.5 -16.5t18 -29.5q0 -5 1 -12.5t4.5 -15t12 -13t23.5 -5.5h15q13 3 18 14t5 27q0 12 -1.5 25.5t-3.5 24.5l-2 32q3 12 3 18
q0 14 -11.5 22.5t-39.5 8.5l-182 -4q-26 2 -45 3.5t-32 2.5l-29 -2q-9 1 -19 1.5t-20 0.5q-6 0 -19.5 -1t-30.5 -2.5t-35 -2.5t-32 -1q-15 0 -25.5 2t-33.5 2t-50 -3q-48 2 -72 2h-25h-8q-14 0 -29 -7.5t-15 -22.5q0 -10 14 -21h13q22 -1 43.5 -3t32.5 -11q11 -30 17 -48
t6 -25q0 -4 -1.5 -10t-1.5 -13q4 -14 6.5 -32t2.5 -40v-18q-1 -19 -1 -34v-26v-21q0 -8 1 -13v-10q-2 -31 -5 -61t-17 -49q-6 -4 -7 -9.5t-2.5 -10.5t-5 -8.5t-14.5 -3.5q-1 0 -7 1t-13.5 2t-15.5 2t-13 1h-4q-10 -5 -16.5 -12t-7.5 -18q2 -7 8.5 -12t14.5 -10
q48 -2 85 -3.5t62 -2.5q21 2 42 3t42 1h22q12 0 23 -1q9 2 18.5 3t10.5 1q40 0 71.5 -1t57.5 -2.5t49 -3.5t48 -4.5t53.5 -4.5t65.5 -3h2q2 0 4 0.5t5 0.5h9q3 0 6.5 -0.5t8.5 -0.5h5q23 0 33.5 11t10.5 37q0 12 -3 27z" />
    <glyph glyph-name="f" unicode="f" horiz-adv-x="809" 
d="M787 411q-1 0 -1 2v-1h1q-3 6 -5 9.5t-2 8.5q0 2 1 7t2 11v-1q2 5 3 10.5t1 11.5q-3 6 -3 9q0 6 2 16.5t2 18.5q0 27 -31 37q-38 0 -67 -0.5t-48 -2.5q-4 2 -8 2h-8q-8 0 -19.5 -1t-18.5 -1q-11 0 -18 3h-27q-7 0 -12 0.5t-10 2.5l-46 1q-4 1 -12 1q-14 0 -34 -1.5
t-51 -1.5q-23 0 -43.5 0.5t-38.5 1.5h1q-14 1 -26 1h-23h-121q-10 -2 -19 -2q-10 0 -21 1t-21 1q-12 0 -21 -4t-14.5 -9.5t-8 -10.5t-2.5 -7q2 -15 15 -22t31 -7h10t10 2q7 -2 14.5 -7t13.5 -19t10 -39t4 -67q0 -24 -1.5 -47.5t-3.5 -46.5q7 -28 7 -119l-2 -41
q-5 -27 -13 -43.5t-32 -16.5q-9 0 -18 -1t-16.5 -4t-12.5 -8t-5 -14q0 -11 12 -18t26 -7q12 0 23 3q76 -6 115 -6q3 1 11 1t16 -0.5t13 -1.5h7q17 0 32 7t15 22q0 12 -8.5 22t-35.5 10h-10q-12 19 -15 33q0 1 0.5 1.5t0.5 1.5q0 6 -2.5 15t-6 18.5t-6 18t-2.5 14.5v4
q0 3 2 9q-11 18 -13 31q1 3 6 3q1 0 10 -1.5t16.5 -2.5t8.5 -1h2q20 -1 41 -2.5t43 -4.5h1q4 -2 11 -2q9 0 17.5 2t10.5 2q7 0 8 -6.5t1 -10.5l-3 -15l1 1q-3 -8 -3 -10q0 -11 9.5 -19.5t28.5 -8.5q5 0 18 2.5t27 11.5t25.5 26t13.5 46q14 20 24.5 36.5t18.5 33.5
q-4 16 -13.5 26t-27.5 10q-10 0 -22 -4.5t-22.5 -11.5t-18.5 -16t-10 -19q-21 -12 -52 -15q-10 3 -26 4t-39 1h-41h-24t-22.5 1.5t-17 4.5t-6.5 8q0 8 7.5 23t7.5 27q0 10 -4 17q0 23 1 41t2 29q-4 13 -4 26q0 34 17 49t47 17l105 -3.5t82 -2t67.5 -1.5t62.5 -2
q49 -2 70 -17.5t32 -48.5q0 -58 46 -58q20 0 35 14t15 26q0 1 -0.5 1.5t-0.5 2.5v-2v2zM336 192l-3 1q1 0 1.5 -0.5t1.5 -0.5z" />
    <glyph glyph-name="g" unicode="g" horiz-adv-x="813" 
d="M789 85q-5 7 -5 23q0 8 1 24t1 24q0 10 -1 18.5t-3 16.5v-1l-4 18t-2 20v13q0 6 -1 14.5t-4 16t-8.5 13t-14.5 5.5q-5 0 -10.5 -2t-13.5 -2q-2 0 -6 0.5t-8 0.5h-21q-8 0 -14 -0.5t-11 -2.5q-40 2 -71 1.5t-50 2.5q2 5 2 14v18q0 26 -27 35h-5q-8 0 -15.5 -4.5t-14 -11
t-12 -13t-8.5 -10.5l-3 -2q-3 -6 -8 -19t-12 -28t-14.5 -29.5t-15.5 -23.5q-41 -26 -46 -55q5 -8 19.5 -17.5t28.5 -9.5q8 0 17.5 5.5t18.5 12t16 12.5t10 8q14 20 24 32t19 18.5t18 8.5t21 2q21 0 44.5 -2t49.5 -6l10 -4q5 -2 5 -19v2q-9 -49 -52 -89q-4 -8 -6.5 -12
t-5.5 -7t-7 -6t-11 -7h1q-8 -4 -19 -9t-16 -5h-5q-25 -11 -41 -14t-28 -3h-29q-14 0 -22 0.5t-18.5 2t-28 5t-49.5 9.5l-14 2q-28 5 -50 9.5t-43 12t-42.5 20t-49.5 32.5q-8 6 -15 19.5t-12 28t-8 26.5t-4 15q2 37 16 67t38.5 56.5t58.5 49.5t76 46h-2q24 8 48 14.5t50 9.5
q30 14 64 14q20 -2 41.5 -3.5t42.5 -4t39.5 -7.5t32.5 -15q13 -15 22 -26t9 -25t-11 -24t-11 -17v-4q0 -15 9 -28t26 -13q14 0 26.5 12t21.5 23v-1q3 4 7 7t4 5h-2q7 4 17 19t19.5 32t16.5 32t9 18q10 21 13 25.5t8 9.5l6 6q3 3 3 8q0 11 -13 17.5t-23 6.5h-6
q-17 -5 -27 -12t-15 -13.5t-8 -11t-7 -4.5q-12 0 -26.5 4.5t-31.5 11t-36 12t-40 7.5l-108 7q-2 0 -2.5 0.5t-1.5 0.5q-8 0 -21 -2t-26 -4.5t-24.5 -4.5t-16.5 -2h-9q-6 -3 -25 -9t-41.5 -14t-45 -17.5t-35.5 -19.5q-21 -9 -49.5 -32.5t-54.5 -50.5t-45 -54t-21 -44
q-5 -7 -6.5 -15.5t-1.5 -16.5q0 -10 3 -32t3 -35q15 -32 28 -51.5t31 -34.5t43 -28t64 -32h-1q3 -2 11.5 -5.5t19.5 -8.5l-1 1q10 -6 25.5 -10t29.5 -6.5t24 -3.5l10 -1q9 -1 26.5 -3.5t38.5 -4.5t43 -4t40 -2q24 0 46.5 3.5t40 7.5t29 8t14.5 6h-1q22 9 36.5 16t25 13.5
t19.5 13.5t20 17q10 10 15 11q3 -3 3 -9t-1 -11t-3 -16q11 -29 18.5 -43.5t31.5 -14.5q19 0 29 13t10 30q-1 19 -1 24v13z" />
    <glyph glyph-name="h" unicode="h" horiz-adv-x="794" 
d="M769 35q-8 15 -24.5 19.5t-33.5 7.5h1q-11 3 -18 14t-11.5 23.5t-6.5 24.5l-3 18q-1 8 -1.5 17t-0.5 19q0 13 2 23t2 26q0 24 -3 47.5t-7 47.5q6 12 8.5 24t2.5 21v8q0 4 -2 9v1q0 5 0.5 18.5t2.5 29t6 29.5t12 21q4 1 7 1q4 0 9 1h-1q10 1 20 3t18.5 5t14 9t5.5 16
q0 13 -19.5 21t-44 12.5t-46.5 6.5t-26 2q-8 -2 -17 -3t-17 -1h-36q-10 0 -21 -1.5t-20.5 -5t-16 -8.5t-6.5 -12v-3q0 -9 5 -14.5t12 -9t15 -5.5t14 -3h2q3 0 3 5q0 -3 3 -6l4 -4q11 -10 22 -20.5t11 -22.5v-4q13 -38 13 -73q0 -70 -4 -106.5t-6 -42.5q-16 -3 -29 -4t-24 -1
q-13 0 -28 2.5t-42 2.5h-28q-15 0 -32 -2q-16 0 -33.5 0.5t-33.5 2t-29 4.5t-20 8q-8 5 -17 5q-13 0 -31 -6t-33 -6q-4 0 -6 2q4 8 4 21t-4 31.5t-4 25.5q0 11 3 20q-8 24 -8 57q0 16 2 35.5t6 42.5q1 8 11 13.5t22.5 11t24 13t14.5 20.5q-3 10 -15.5 15.5t-30 8.5t-36 3.5
t-33.5 0.5h-24q-3 0 -4 1h1q-4 1 -8 1.5t-9 0.5q-32 0 -51 -3t-29 -7t-12.5 -8t-2.5 -7q0 -9 6 -15.5t14.5 -10t16.5 -6t12 -4.5q29 -10 36.5 -35.5t7.5 -53.5q0 -13 -1 -25.5t-1 -25.5v-65q0 -12 0.5 -22.5t0.5 -20.5t-0.5 -35t-3 -54t-9 -56.5t-18.5 -42.5q-12 -3 -24 -3
q-11 0 -20 -1.5t-14 -7t-5 -18.5q0 -15 20 -22t49 -7h34h20q10 0 16 -1v2q18 -5 57 -5q44 0 62 29v15q-6 8 -14.5 13t-17 9t-14.5 8.5t-6 12.5q0 4 -4 9t-8.5 11t-8 14t-3.5 17q0 20 11.5 27.5t37.5 9.5q4 -1 13 -2t18.5 -2t18 -2t12.5 -2q49 -2 80 -3.5t49 -2t25 -1t9 -0.5
h1q10 0 10 8q0 2 -2 6q8 -8 17 -11t18 -3.5t17 0t14 -0.5h9t17 2h6q5 0 7 -1v-6v-13t1 -18v-8q0 -17 -6 -29.5t-21 -14.5q-24 0 -38 -4.5t-21.5 -10.5t-9.5 -12t-2 -9v-4q6 -9 20.5 -15t35 -9t45 -4t50.5 -1h14q8 0 16 1q11 0 22 -2t21 -2q28 0 41 11t13 22q0 3 -0.5 6.5
t-3.5 8.5z" />
    <glyph glyph-name="i" unicode="i" horiz-adv-x="381" 
d="M359 26q-15 24 -62 24h-6q-2 0 -6.5 -1t-24.5 -1h-6q-8 0 -14 6.5t-9.5 16.5t-5 21t-1.5 20q0 7 0.5 12.5t1.5 11.5q-3 6 -3.5 16t-0.5 20q0 11 -1 20.5t-4 16.5q0 6 1.5 16t1.5 24q0 6 -0.5 10t-1.5 8q0 6 0.5 12t0.5 13v23q0 22 -1 39t-3 31q5 6 9.5 17t4.5 20v3
q5 9 10.5 28t16.5 32q45 0 64 8t19 29v3q-5 12 -15 17.5t-21 8t-23 2.5h-21q-13 -10 -32 -10h-6q-33 1 -42.5 1.5t-10.5 1.5t-0.5 1.5t-11.5 0.5h-12q-6 0 -13 -1h-12q-18 0 -30 4q-9 0 -20.5 -0.5t-22 -3.5t-18 -8.5t-8.5 -15.5q0 -14 16 -20t37 -6h4q2 0 3 0.5t3 0.5
q17 0 27.5 -7.5t17 -19t9.5 -25t5 -26.5v-109q10 -20 10 -36q0 -5 -1 -11t-4 -16q6 -18 6 -35q0 -29 -0.5 -46.5t-1.5 -27.5t-2 -15.5t-2 -9.5v1q-4 -15 -6 -27.5t-6 -22t-11.5 -14.5t-20.5 -5q-5 0 -9 1v-1q-5 2 -14 2h-20h-3q-23 0 -35 -15v-9q0 -11 7.5 -16t18.5 -7.5
t22.5 -3.5t20.5 -2q31 -5 55.5 -7.5t43.5 -2.5q4 0 11 0.5t14 1.5h-1q6 1 15 2t10 1q8 0 18 -3t25 -3h1q4 0 16.5 1t26 4.5t24.5 9.5t11 15v3q0 2 -2 7v2zM172 546l1 -1h-1v1z" />
    <glyph glyph-name="j" unicode="j" horiz-adv-x="802" 
d="M702 68q79 76 79 135q0 34 -29.5 60.5t-75.5 54.5l1 -1q-24 19 -41 32.5t-31.5 25.5t-29.5 24.5t-34 27.5q-8 5 -13.5 9.5t-6.5 6.5l-3 2q-2 2 -6.5 7t-4.5 8q0 5 10.5 10t18.5 5h8q24 14 68 14q6 0 16 -0.5t21 -0.5q12 0 23 -0.5t19 -0.5q7 -7 11.5 -15t9.5 -15
t11.5 -12t17.5 -5q17 0 24.5 12t7.5 26v15v-1q-1 8 -1.5 15t-0.5 9v2v1q1 0 1 1q0 10 -8 18t-21 14t-29 9t-31 3q-8 0 -18 -4q-3 0 -5 0.5t-4 0.5h1q-21 3 -34 3q-112 -5 -184.5 -7.5t-110.5 -2.5q-14 0 -28.5 2.5t-25.5 2.5h-8q-15 -5 -22 -5h-5q-23 -5 -130 -5
q-17 10 -30 10q-11 0 -19.5 -5t-15 -12t-11 -13.5t-5.5 -9.5l1 1q-3 -3 -3 -7v-6q0 -2 0.5 -4t0.5 -5v-12q0 -4 -0.5 -8t-0.5 -9v-7q0 -26 14 -38t28 -12q17 0 21.5 9.5t7.5 23.5v-1q3 10 8.5 20t23.5 12q14 -1 27 -1h26q16 9 37.5 13.5t46.5 4.5h19q8 1 18 1.5t20 0.5
q12 0 27.5 -3t30.5 -8.5t27.5 -13t19.5 -16.5q9 -19 13.5 -28t10.5 -16.5t17.5 -18.5t34.5 -34q23 -29 51 -34q17 -17 36 -29t37.5 -24t34.5 -27t27 -38q-5 -14 -4 -29t-6 -22h1q-22 -24 -36 -38t-25 -22t-22.5 -11t-27.5 -6q-34 -4 -62.5 -14.5t-53.5 -10.5q-10 0 -23 6
q-14 -4 -24 -5t-18 -1q-42 0 -75 19.5t-58 63.5q-5 18 -9 33.5t-7 28.5v-1q-2 9 -4.5 16t-4.5 14q1 5 3 17t2 33q-1 24 -2 36.5t-4 18.5t-10 7t-19 1q-9 0 -16.5 -6t-12.5 -9q-34 -48 -60 -74.5t-36 -34.5q-2 -3 -8 -8.5t-28 -19.5q-10 -6 -15 -15t-5 -18v-4q3 -7 5 -10
t5.5 -4.5t9.5 -2.5t17 -4h3q11 0 19.5 6t16.5 13l-1 -1q20 12 35.5 17t19.5 6q8 -6 14 -17.5t13.5 -26.5t18 -31.5t27.5 -32.5l-1 2q13 -21 30 -35.5t41 -23t57 -12t78 -3.5h41q28 7 48.5 12t37 8.5t31.5 7t31 9.5t36 15.5t47 23.5z" />
    <glyph glyph-name="k" unicode="k" horiz-adv-x="808" 
d="M783 29q-11 13 -24 18t-31 16h1q-15 9 -27.5 22t-24 27.5t-22.5 29.5t-24 28q-7 18 -28 30t-44.5 20t-44 12.5t-26.5 7.5q1 3 14 17t29 30.5t31.5 30.5t22.5 19q35 40 60 44h5q9 0 20.5 -7t23 -15.5t22 -15.5t19.5 -7q10 0 21 9.5t11 17.5q0 9 -6 18l-84 80
q-20 13 -30 22t-18.5 17.5l-18.5 18.5t-29 25q-5 2 -9 3t-6 1q-13 0 -18.5 -8t-5.5 -22q0 -9 5.5 -18t12 -16.5t12 -13.5t5.5 -10q0 -10 -10 -24.5t-22.5 -28t-23.5 -24t-13 -12.5q-41 -52 -67 -75.5t-31 -31.5l1 2q-3 -5 -15 -5l-26 2q-76 0 -124 5.5t-51 6.5
q-1 15 -1.5 26.5t-0.5 20.5v31q0 19 1 43t5 45t11.5 35t19.5 14h4q3 0 8 -1h12q43 0 43 33q0 14 -10 19.5t-15 6.5q-26 -1 -48 -1h-40h-34q-15 0 -27 1h-10q-10 0 -24.5 -0.5t-28 -3t-23 -7.5t-9.5 -15v-2q0 -6 1 -9.5t6 -5.5t14.5 -3.5t27.5 -3.5q16 -4 22 -7
q11 -26 17.5 -45.5t8.5 -34.5q-3 -26 -3 -45v-22q0 -11 1 -23v1q0 -27 1.5 -59.5t1.5 -70.5q0 -23 -3 -44.5t-14 -31.5q-4 -8 -4.5 -18t-4.5 -38q-5 -5 -16 -5h-4q-35 0 -47 -9.5t-12 -19.5q0 -14 13 -21t27 -7h24q16 0 24.5 -0.5t18.5 -1t24.5 -2.5t42.5 -5q6 5 17 5
q5 0 15 -1.5t16 -1.5q18 0 32 11.5t14 20.5q0 15 -10.5 20.5t-24 8.5t-26.5 6t-18 11v-2l-4 8q-6 13 -8 19.5t-3 14t-1 20.5t-2 40v14q0 14 1.5 24t8.5 11q29 -2 48.5 -3.5t35.5 -3t30 -3.5t32.5 -5t43 -7.5t60.5 -10.5q66 -11 98.5 -38.5t32.5 -62.5q0 -13 -5 -20.5
t-23 -11.5h1q-20 -3 -31 -10.5t-12 -23.5q5 -6 11.5 -11.5t17.5 -8.5q60 -3 103.5 -6t73.5 -6l14 -1q8 -2 17 -2t14 0.5t8.5 3.5t6.5 9.5t8 18.5q0 3 -0.5 6.5t-3.5 7.5z" />
    <glyph glyph-name="l" unicode="l" horiz-adv-x="808" 
d="M788 130q-3 4 -3 18q0 7 1 11q0 45 -37 45q-18 0 -28.5 -10t-15.5 -25t-6 -31.5t-1 -29.5v-8q0 -5 -6 -12.5t-16.5 -15t-25.5 -13t-33 -5.5q-7 0 -18.5 1t-23.5 2.5t-23.5 3t-18.5 1.5q-8 0 -14 -0.5t-11 -1.5h-6q-7 0 -31 2.5t-44 2.5q-14 0 -24.5 -2t-24.5 -2h-20
q-5 0 -10.5 0.5t-10.5 0.5q-8 0 -13.5 -0.5t-10.5 -1.5q-7 3 -15 3.5t-16 0.5h-32q-17 21 -23.5 36t-6.5 25v2q0 6 1.5 12t1.5 16q0 4 -1.5 16.5t-3 28t-2.5 32t-1 28.5q0 3 0.5 6t0.5 5v8q-4 56 -7.5 96.5t-4.5 69.5v7q1 16 6 30.5t28 14.5q35 0 46 11.5t11 19.5v3
q-1 9 -9 14t-19.5 8t-26 4t-27.5 1q-8 0 -15 -0.5t-14 -0.5h-14q-20 0 -34.5 -1t-34.5 -1h-13t-17 1h-6q-12 0 -28 -7.5t-16 -18.5v-2q0 -5 1 -8t6 -5.5t15.5 -5t29.5 -5.5t27 -10q5 -15 7.5 -34.5t2.5 -41.5v-16q3 -9 4 -22.5t1 -34.5q5 -9 6 -21t1 -26v-17q0 -2 -0.5 -4
t-0.5 -4v1q-1 -9 -1 -18v-16q0 -21 1 -26q-2 -10 -3.5 -23t-1.5 -31v-10q0 -3 0.5 -5.5t0.5 -4.5v-15q0 -36 -5.5 -51t-24.5 -15q-24 0 -37.5 -2.5t-20 -7.5t-8.5 -11.5t-2 -13.5q6 -6 20 -10t30 -7t29.5 -4t18.5 -1q17 0 34 2t41 2h36q3 0 18 -2t39 -2q15 0 26 3
q20 -2 48.5 -3t66.5 -1h101q72 0 114 -3l-2 1q12 -4 20 -5.5t22 -1.5h4l1 0.5t2 0.5q9 -3 22.5 -6t24.5 -3q19 0 29.5 9t15 22.5t5.5 30.5t1 32q-5 8 -5 17t7 28v7z" />
    <glyph glyph-name="m" unicode="m" horiz-adv-x="956" 
d="M935 15v4q0 13 -8 20.5t-19 12.5t-21.5 8.5t-15.5 8.5l-20.5 20.5t-14 20.5t-14.5 35t-22 63q-11 33 -18.5 59t-9.5 46q-8 7 -11 19.5t-6 26t-7 26.5t-12 21q-6 16 -11 28t-9 20q2 20 6.5 29.5t19.5 9.5q11 0 25 -3q26 6 40.5 14t16.5 22q-6 13 -19.5 18t-24.5 5h-5
q-2 0 -3.5 -0.5t-3.5 -0.5q-6 0 -16 1t-20.5 2.5t-19 3t-10.5 1.5q-5 -1 -11 -1.5t-12 -0.5q-3 0 -13 0.5t-20.5 1t-19 1.5t-9.5 2q2 0 -13.5 -0.5t-35 -4.5t-36.5 -11.5t-17 -20.5q0 -11 12 -20t23 -9q1 0 2 1q-1 -2 -1 -6l1 3v-1l-1 -5t-2 -7q1 -7 1 -14v-13v-11t-2 -12
q-7 -48 -11.5 -76.5t-7.5 -45t-4.5 -23t-2.5 -12t-2 -12t-2 -21.5q-5 -10 -6.5 -17t-4.5 -18h1q-8 -23 -12 -37.5t-6 -21.5q-6 17 -10 30.5t-5 23.5v4q0 2 0.5 3t0.5 3q0 10 -3.5 23.5l-7 27t-7 24.5t-3.5 17q-7 42 -12 73t-10 51l-5 10t-3 9t-2 13t-2 23q1 5 10 7.5t19 6.5
t18 10t8 19v7q-13 14 -41.5 21.5t-57.5 7.5q-11 0 -36.5 -3t-70.5 -8q-4 -1 -9 -1q-2 0 -8 1t-12.5 2t-12 1.5t-6.5 0.5q-18 0 -29.5 -9t-11.5 -23v-6q8 -9 19 -15t25 -6h26q21 0 25 -1.5t5 -7.5v-1v1v-1q0 -8 7 -17l-1 2l3 -6q-12 -39 -18 -56t-11 -30v1q-3 -8 -6.5 -17
t-8 -21t-10 -28t-12.5 -39q-5 -7 -7.5 -16.5l-5 -19t-4.5 -18t-5 -13.5l-4 -12v1q-11 -26 -25 -53.5t-40 -47.5l-55 -43q-29 -2 -43.5 -8t-14.5 -21q0 -10 9.5 -16t21.5 -6h21q27 -5 49 -6.5t39 -1.5h11q25 -2 46 -3t35 -1q23 8 33 17.5t10 20.5q-5 10 -14.5 15.5t-35.5 9.5
l1 -1q-11 5 -11 30q0 6 1 11l-1 -2q26 68 36 101l4 25q0 8 4 10.5t4 8.5v5q0 8 5.5 20.5t12.5 24.5v-1q6 11 10 19t4 14v2q0 4 2.5 12t7.5 20q0 1 0.5 1.5t0.5 2.5q0 1 -0.5 2t-0.5 2v3q0 1 1 2.5t3 5.5v-1q3 6 5.5 13.5t2.5 12.5q8 21 13.5 35.5t7.5 14.5q7 0 15 -16
t16 -40.5t14.5 -53t12 -54t8.5 -44t4 -22.5q-1 5 -8 5q-4 0 -7.5 -2t-3.5 -6q0 -8 3 -23t8 -32v1q5 -21 9.5 -42.5t4.5 -33.5v-6q0 -12 3 -24.5t10 -23t16.5 -17.5t23.5 -7q27 1 41 24q8 38 15 67t12 47q4 4 6 11.5t3.5 15t2 13t1.5 6.5q2 2 5.5 13t6.5 24t6 24.5t3 14.5
q14 36 26.5 79t24.5 92v1q1 0 1 1t-1 1v1q7 0 12.5 -9t10 -21t8.5 -23t7 -16q5 -20 11 -36t12 -30v-5q0 -13 7 -27t7 -22q0 -2 -2 -12q0 -2 0.5 -4.5t1.5 -3.5q4 -5 7 -16.5t6 -25t4.5 -25.5t2.5 -19q4 -16 6.5 -26.5t3.5 -19t1.5 -16.5t1.5 -19v-6q-5 -5 -14 -8t-17.5 -6
t-15 -7.5t-7.5 -14.5q0 -8 11 -13t23.5 -8t23.5 -4.5l11 -1.5q57 -2 87.5 -4.5t38.5 -4.5h5q11 0 21.5 5.5t18.5 24.5z" />
    <glyph glyph-name="n" unicode="n" horiz-adv-x="806" 
d="M785 15v3q0 16 -7.5 21.5t-17.5 7t-20 2t-15 5.5q-1 7 -4.5 15.5t-7.5 17t-7 16t-3 11.5q-5 15 -7.5 36t-4 45t-1.5 48v46v17q0 20 1 38.5t3 35.5v2q-1 2 -2 5t-1 7q0 2 1 7t3 11v-1q7 32 16.5 48.5t19 24.5t19 9.5t16.5 2.5t11.5 4.5t4.5 15.5q0 10 -5.5 17t-14 11
t-18.5 5.5t-19 1.5q-22 0 -42.5 -3t-37.5 -3q-8 0 -16 0.5t-15 1.5h-38q-15 0 -30 -6t-15 -19q0 -9 8.5 -15t19 -11.5t21 -11.5t15.5 -15q6 -47 11 -78.5t8 -54t4.5 -39.5t1.5 -33v-64q0 -16 -4 -24q-19 13 -30.5 24.5l-22 22t-22 21.5t-30.5 25q-41 28 -63.5 43t-35 22.5
t-20.5 12t-19.5 12.5t-32 22.5t-58.5 42.5q-9 6 -20 14.5t-21 16t-16.5 14t-6.5 9.5q0 4 10 6t22 5.5t22 11t10 23.5v3q-2 4 -15 6t-28.5 3t-29.5 1h-15q3 1 4.5 4t1.5 6q0 9 -7 9q-1 0 -1.5 -0.5t-1.5 -0.5h-3q-19 -4 -43 -3t-48 -5h-9h-9t-12 1h-8q-11 0 -24 -5t-13 -19
t17 -24h9q20 0 31.5 -3t15.5 -19q6 -24 9 -38t4.5 -28t2 -32.5t0.5 -50.5q0 -30 -2.5 -65t-5.5 -68t-6.5 -59.5t-5.5 -39.5v1q-1 -5 -1 -7v-6q0 -10 10 -10l-4 -3t-10.5 -6t-15 -6t-15.5 -3h-3q-22 -9 -22 -25v-7q10 -20 21 -23q7 1 13 1h15q7 0 19.5 -1t26 -2.5t26.5 -2.5
t21 -1q13 1 22 1h17q16 0 19 -1q12 2 26.5 11t14.5 27t-14.5 23t-30.5 6h-8q-2 2 -10 11t-8 15q-3 4 -5.5 8.5t-4 17t-2 36.5t-0.5 67q0 17 2.5 34t2.5 32v6t-2 8l1 -2l-3 56v10t0.5 16l1 18t2.5 15q10 -3 26.5 -13.5t32.5 -22.5t29.5 -22.5t18.5 -14.5q11 -3 23.5 -17.5
t26.5 -22.5q3 0 10.5 -6t17 -13.5t19.5 -15t18 -10.5q42 -33 64.5 -52t36 -34t25.5 -30t33 -38q17 -22 17 -31q0 -5 -3.5 -10.5t-14.5 -7.5h1q-18 -2 -26.5 -11t-8.5 -18q0 -6 4 -11t9.5 -8.5t10 -5.5t5.5 -2h26q23 0 53 -1t66 -4q21 0 33 0.5t18.5 2.5t10.5 6t9 12z" />
    <glyph glyph-name="o" unicode="o" horiz-adv-x="782" 
d="M755 242q2 5 4.5 12.5t2.5 15.5q-1 27 -11.5 56t-26.5 55t-36 47.5t-41 32.5l-45 24q-33 14 -51 21l-27 10.5t-12.5 4.5t-7.5 2q-5 2 -13 4t-26 8h1q-12 5 -23 7.5t-19 2.5q-14 0 -26 -6q-5 1 -12 1h-14q-14 0 -31.5 -1.5t-38.5 -3.5q-32 -15 -52 -18q-58 -9 -109 -80
q-12 -8 -25 -21.5t-25 -28t-23 -27t-19 -18.5q-1 -1 -5.5 -8t-10 -16.5t-9.5 -19.5t-4 -17q0 -6 4 -20.5t12 -34t18.5 -41t24.5 -40.5q22 -32 42 -48.5t38.5 -25.5t35.5 -13t34 -10l14 -6q29 -12 52 -21t43.5 -15.5t39.5 -9.5t41 -3q16 0 35 7t44 12q47 7 79.5 21.5
t53.5 31.5t33 32.5t19 24.5q26 26 45.5 59t27.5 62zM669 288q0 -17 -0.5 -29.5t-4.5 -24t-13 -24t-25 -29.5q-29 -29 -50 -49.5t-42 -34t-45.5 -22t-58.5 -12.5q-12 -3 -26 -3q-35 0 -75 20q-46 8 -92.5 36t-89.5 58q-24 25 -35 46.5t-11 39.5q0 16 14 36q23 44 41 71.5
t34 44t32 25.5t35 16q20 12 34 18t27 9t26 3.5t31 0.5q31 0 67 -9t68.5 -22t58.5 -26t37 -20l-2 1q7 -10 17 -19.5t19.5 -19t17.5 -19t11 -18.5v-17v-27z" />
    <glyph glyph-name="p" unicode="p" horiz-adv-x="778" 
d="M746 357q-15 18 -30 33l1 -1q-24 29 -43.5 50.5t-36.5 38.5q-35 20 -59 34.5t-36 22.5q-61 6 -84 12h-8q-8 0 -20 1.5t-25.5 3.5t-27 3.5t-24.5 1.5q-44 0 -79 -2t-62 -2h-34q-14 -7 -33 -7q-5 0 -14.5 1l-19 2t-17 2.5t-9.5 1.5q-8 -3 -17.5 -4t-18 -3.5t-14 -7
t-5.5 -13.5q0 -8 8 -12.5t20.5 -7.5t27 -6.5t27 -10.5t20.5 -18.5t8 -30.5q0 -1 -0.5 -2t-0.5 -3v-6q0 -32 11 -48v-108q0 -48 -13 -90q6 -18 6 -25q0 -3 -1 -5v-9q0 -2 0.5 -3.5t0.5 -3.5q0 -62 -61 -75q-8 -2 -19 -4.5t-21 -6.5t-17 -8.5t-7 -10.5v-2q0 -9 6.5 -14.5
t16 -8.5t20 -3.5t18.5 -0.5h18q23 -5 58 -5h13t14 1q38 0 60.5 -3.5t43.5 -3.5q6 0 16 1.5t19 5t15.5 10t6.5 17.5q0 23 -20 28t-57 7h2q-12 3 -20.5 16t-13.5 30.5t-7 35.5t-2 31q0 12 4.5 14.5t10.5 2.5q16 0 30 -2t29 -2h15t13 1q10 -1 21 -1.5t22 -0.5q13 0 43.5 2
t65.5 4t67.5 4t50.5 2q41 7 64.5 11.5t37.5 10t23.5 13.5t22.5 23q5 10 8.5 21.5t3.5 27.5q0 14 -3 26t-8 25zM638 270q-10 -1 -41 -11h1q-12 -3 -21.5 -4t-17.5 -1h-10q-39 0 -68 -4.5t-47 -4.5h-67q-14 1 -24.5 3t-21.5 4h1q-18 5 -32 5h-11q-5 0 -9.5 -0.5t-9.5 -0.5
q-20 0 -27 7v15q0 7 -1.5 17t-3 20.5t-3 20t-1.5 15.5q0 5 1 10.5t1.5 13t1.5 19t1 28.5v18t-1 21q7 20 25 24.5t48 4.5q6 0 13 -0.5t16 -1.5l14 -3q7 0 18 1t22.5 1.5t22.5 1.5t18 1q46 0 66 -24q2 -1 18 -6t41.5 -18t46.5 -32l-1 1q19 -30 41 -34q46 -55 46 -73
q0 -20 -14 -25.5t-31 -8.5z" />
    <glyph glyph-name="q" unicode="q" horiz-adv-x="871" 
d="M847 103q-13 16 -36 16q-5 0 -13.5 -1t-16.5 -3l-8 -2q-8 0 -20 -6.5t-23 -6.5h-1q-8 4 -10 6h1q-11 6 -20.5 12t-11.5 13l7 7q19 17 30 29.5t17.5 21t10 14t8.5 8.5q10 13 15.5 28t5.5 35q0 19 -7 38t-16 35t-18 28.5t-13 19.5l-34 34t-27 24.5t-26.5 18.5t-33.5 16
q-57 22 -85 32.5t-41 14.5l3 -2q-26 20 -63 20q-12 0 -29 -3t-33.5 -6t-29.5 -6t-17 -3q-126 -34 -214 -130q-2 -8 -13 -20t-22 -23h1q-7 -9 -15 -20t-14.5 -23.5t-10.5 -24.5t-4 -22v-6t2 -9q20 -36 34.5 -64t23.5 -46q40 -32 66.5 -51.5t41.5 -27.5q43 -15 68 -25
t40 -16.5t23.5 -10t18.5 -5t26 -2t45 -0.5q14 0 28.5 2t26.5 5t20.5 6t11.5 4q18 10 22.5 11.5t13.5 1.5q1 0 1 -1h1h5q37 17 54.5 25.5l17.5 8.5q1 0 7.5 3.5t11 6.5t5.5 4q15 -29 41 -50.5t58 -21.5q11 0 30.5 7.5t39 19.5t33.5 26t14 26q0 4 -1.5 6t-3.5 4h1zM648 194
q-10 10 -21 29.5t-28 30.5l2 -1q-5 5 -7 18q-39 26 -49 26q-12 0 -19.5 -7t-21.5 -22l-12 -11q-7 -10 -11.5 -13t-9.5 -7h1q-8 -5 -16.5 -11.5t-22.5 -21.5h1q-14 -17 -20 -34v-2q0 -15 20 -23q15 0 34 14v-1l20 18l-3 -1q31 12 52 12q18 0 34 -13.5t17 -28.5l-6 -7
q-72 -32 -116 -52t-75 -20q-29 0 -54.5 7.5t-54.5 24.5q-15 0 -39 11t-48 25t-42 28.5t-21 22.5q4 9 4 18q0 10 -2 14.5t-5 11t-6.5 18t-5.5 35.5q0 14 6 26.5t13.5 23t14.5 18.5t9 14q16 18 44.5 38.5t60 38.5t62.5 29.5t53 11.5q11 0 24 -1.5t26 -5.5h2q11 0 23.5 -4
t25.5 -9.5t25 -10.5t23 -8l-1 1q35 -16 71.5 -40t77.5 -59q7 -9 7 -25q0 -3 -0.5 -8t-0.5 -11v1q-1 -6 -1 -12v-7q0 -20 5 -27q0 -6 -4 -16.5t-10 -20.5t-12.5 -17.5t-12.5 -7.5zM637 83l-1 2q0 -1 1 -2zM304 26h-1h1z" />
    <glyph glyph-name="r" unicode="r" horiz-adv-x="804" 
d="M731 54q-10 2 -20.5 5.5t-24.5 8.5l1 -1q-24 9 -40.5 21.5t-27 24.5t-16.5 22t-9 14q-9 7 -9 13q0 1 10 5t23 9t26 9.5t19 6.5l9 3l33 35q17 16 28.5 38t11.5 43q0 35 -16 63t-37 49t-42 35t-31 20l-31 11h1q-45 17 -85 31t-75 16q-8 -2 -19 -2q-17 0 -43.5 4t-61.5 4
q-16 0 -34 -3h1q-11 -2 -20 -3t-14 -1q-14 0 -28.5 2t-37.5 2q-22 -2 -33.5 -3t-14.5 -1q-15 0 -30 4q-9 0 -18.5 -0.5t-18.5 -3t-16 -8t-9 -15.5q5 -15 15 -18t23.5 -6.5t28 -14t28.5 -39.5q3 -5 9 -5q4 0 7 3q-3 -10 -8 -37.5t-5 -72.5v-25q0 -30 -4 -57t-4 -51v-9t1 -8
v-28q-3 -12 -3.5 -18t-3.5 -13.5t-9.5 -20.5t-21.5 -40q-3 -3 -8 -3.5t-10 -0.5h-8q-16 0 -27 -4.5t-11 -24.5v-5q13 -20 36 -20h4q5 0 8.5 0.5t7.5 0.5h10q3 0 5 -0.5t4 -0.5h3q16 1 30 1h26q28 0 47 -2t41 -4q22 0 42.5 8.5t20.5 22.5t-12.5 22t-22.5 8q-5 0 -9 -1
q-20 5 -32.5 9t-19.5 9.5t-10.5 13.5t-4.5 21q3 4 6 9t6 8h-1q13 11 19.5 18t23.5 7q13 0 22 -3q66 12 100 12q10 -3 20.5 -4t22.5 -1q31 0 51 1t28 2q9 -8 11.5 -10.5t5.5 -6.5t10.5 -11.5l25.5 -25.5q23 -22 23 -37q0 -2 -12 -4t-28 -5.5t-32 -9t-25 -15.5v-7
q0 -17 13.5 -21.5t28.5 -4.5q10 0 29.5 2.5t29.5 2.5q6 0 24.5 -2t41.5 -4t46.5 -4t40.5 -2q29 0 43 10.5t14 21.5q0 16 -16 23.5t-36 12.5zM664 342l-4 -14h1q-3 -8 -4.5 -16t-1.5 -14q0 -5 1 -7q-1 -6 -9.5 -15.5t-19.5 -19t-22 -17.5t-17 -11q-17 -4 -54 -7t-79.5 -5.5
t-84 -4t-66.5 -1.5q-21 0 -38.5 2t-26.5 4h-4l-3 6q-8 11 -14.5 22t-6.5 20v1q0 6 -5.5 12.5t-5.5 14.5v8t2 9v7q0 8 2 24.5t2 36.5q0 18 -3 27v-1q-1 3 -1.5 11t-1.5 9q3 11 19 24.5t30 20.5q49 12 50 12q10 0 15 -2h24q86 0 129 -19h5q14 0 34.5 -8.5t34.5 -8.5h1q9 0 9 9
q0 2 -2 6l7.5 -7.5l14 -14t13 -14t5.5 -7.5v-4q0 -4 4 -7.5t9 -5.5t10 -3.5t7 -1.5q18 -18 31.5 -30.5t13.5 -19.5z" />
    <glyph glyph-name="s" unicode="s" horiz-adv-x="790" 
d="M766 170q0 2 0.5 3t0.5 3v-1q2 6 2 13q0 42 -25 67t-58 38.5t-65 17.5t-46 4q-20 0 -35 -1t-27 -3h-7q-17 0 -34.5 -3.5t-36.5 -8t-39 -8t-41 -4.5q-32 -2 -45 -16q-33 -7 -58.5 -11.5t-44.5 -7.5h-49q-7 1 -11 6.5t-6.5 12.5t-4 14.5t-3.5 12.5q3 7 3 16v15q0 6 2 9
q0 1 -0.5 3t-0.5 3v4q0 12 8 28.5t25 33t44 30t66 21.5q26 5 44.5 9t32.5 9l-2 -1q47 2 72 3t32 1q28 0 49 -2.5t38 -9t32.5 -17.5t34.5 -27q3 -6 5 -10.5t3 -12t1.5 -20t1.5 -34.5q5 -5 11 -9.5t11 -4.5q20 0 32 12q21 46 35.5 77.5t24.5 51.5t14.5 31.5t4.5 17.5
q-9 13 -21 13q-4 0 -7 -3l-3 -2q-2 -3 -6.5 -9t-10.5 -12t-13 -10.5t-13 -5.5h-7q-17 0 -41 5.5t-56 16.5q-38 13 -85.5 14.5t-94.5 5.5q-65 -9 -115.5 -18t-85.5 -19q-55 -36 -89.5 -64t-47.5 -51l-5 -15q-5 -14 -12 -32.5t-7 -32.5q0 -8 1 -12q8 -21 16.5 -38.5t22 -30.5
t34 -20t52.5 -7h16q64 2 104.5 8t70.5 14t55.5 16t59.5 14h-1q16 2 43 5t61 3q15 0 33 -3.5t33.5 -12t26 -23.5t10.5 -37q0 -63 -54 -91.5t-158 -28.5q-17 0 -35.5 2t-37 4.5t-34.5 4.5t-27 2h2q-23 4 -49.5 9t-53.5 12t-52.5 16.5t-44.5 21.5l-1 1l-12 9t-19 12t-23 11
t-23 5h-5q-27 -12 -27 -29q0 -5 5.5 -12.5t12 -16t12 -16.5t5.5 -12v-4q0 -3 1 -4t3.5 -5.5t6.5 -13.5t10 -27q6 -16 16.5 -27t28.5 -15q28 2 35.5 13.5t7.5 27.5q0 5 -0.5 9.5t-1.5 9.5q2 0 3.5 0.5t4.5 0.5h2q4 -1 7 -2l6 -2h-1l56 -14l-2 1q11 -5 22 -9.5t22 -4.5h5
q52 -11 167 -13q12 -2 22.5 -3.5t21.5 -1.5h10q103 17 131 28q5 5 18 13t28 17.5t28.5 20t19.5 21.5l-1 -1q11 16 22 34t11 35z" />
    <glyph glyph-name="t" unicode="t" horiz-adv-x="814" 
d="M790 524q-7 18 -38 22q-13 -2 -20.5 -2.5l-15 -1t-17.5 -0.5h-26q-46 0 -76.5 4t-47.5 4q-19 -2 -34.5 -3t-27.5 -1h-30q-20 6 -39 6q-18 0 -34 -6q-16 -1 -30.5 -1.5t-28.5 -0.5q-20 0 -39.5 1t-37.5 5h-53q-27 0 -42.5 -4t-26.5 -4q-5 0 -13.5 1t-17.5 2.5t-17.5 3
t-14.5 1.5q-25 0 -43 -22q2 -39 3 -60l1.5 -31.5t1 -13t0.5 -3.5v-18q0 -8 4.5 -14.5t11.5 -10.5h27q14 5 19 13t5 20v1q13 11 13 28q-2 12 -2 15v8q6 29 12.5 36.5t10.5 7.5q2 0 2 -1v0q-3 -3 -3 -7q0 -6 15 -9t34.5 -3.5t37.5 -0.5h24h63q25 0 38 -9t13 -37
q5 -17 7.5 -30.5t2.5 -22.5v-8q4 -12 4 -28q0 -6 -1 -15.5t-2 -20t-2 -20t-1 -15.5q0 -17 3 -29v-23q0 -13 0.5 -28.5t1.5 -33.5q-9 -12 -11 -28.5t-7 -31.5t-17.5 -26t-41.5 -11q-6 -2 -14.5 -6t-16.5 -9.5t-14 -13t-6 -17.5q0 -16 17 -24q34 0 60 0.5t43 2.5q16 -4 32 -5
t27 -1q5 2 12 2.5t15 0.5q1 0 12.5 -1t20.5 -2t11 -1h12q7 0 18 0.5t22 3t21 6.5t16 11q0 40 -41 44l-55 7q-5 0 -7.5 1t-5 4.5t-4.5 11.5t-6 23v-1q-5 62 -9.5 108.5t-8 79.5t-5.5 54.5t-2 33.5q0 14 7 39t18 60v-1q2 6 9 9t16 3q1 0 10 -0.5t20 -1.5t12 -1q7 0 11 1
q41 -1 71 -1.5t50 -2.5l11 -5q17 -8 23 -13t6 -13v-5q4 -16 6 -29t6 -22t11.5 -13.5t22.5 -4.5h7q23 0 30.5 23.5t7.5 80.5l5 12q2 7 2.5 9.5t0.5 5.5q0 4 -1 6.5t-3 6.5z" />
    <glyph glyph-name="u" unicode="u" horiz-adv-x="804" 
d="M783 397q-56 70 -93.5 111.5t-63.5 41.5q-12 0 -21.5 -7.5t-9.5 -15.5q0 -4 3.5 -9.5t8 -10.5t8.5 -10t4 -9v-4q2 -5 3.5 -8.5t1.5 -8.5q0 -12 -2.5 -24t-4.5 -24v1q-3 -11 -5.5 -22t-2.5 -24q0 -12 4.5 -27.5t11.5 -33t16.5 -35t19.5 -32.5v-1q0 -9 2 -23.5t3.5 -24.5
t1.5 -11v-1q-4 -20 -10 -57q-17 -24 -27.5 -37t-24.5 -20t-37 -10.5t-64 -8.5q-6 -4 -17.5 -6.5t-24 -3.5t-23 -1.5t-14.5 -0.5q-6 -1 -12 -1h-12q-45 0 -98.5 6.5t-126.5 29.5q-20 6 -32 17.5t-19 26.5t-10 32.5t-4 36.5q-5 12 -5 20q0 12 6 23t15 21.5t19 21.5t19 23
q4 9 11.5 19t15 21t13 23.5t5.5 25.5q0 1 -3 8t-7 17.5t-7 24.5t-3 29q0 5 8 11t18 14t18 18t8 22v5q-9 17 -29 17q-12 0 -28.5 -10t-32.5 -14q-8 -7 -17.5 -15t-16.5 -14l1 1q-36 -31 -61.5 -55.5t-25.5 -40.5q0 -5 3 -10.5t9 -5.5h3q8 0 18 4t20 13q12 0 25 -12.5
t13 -23.5q0 -18 -17.5 -36t-34.5 -38q-15 -26 -25 -43t-15.5 -31.5t-8 -29.5t-2.5 -37q0 -14 5 -27t12.5 -24.5t15 -20.5t12.5 -13q33 -30 77 -47.5t91 -26.5t92.5 -11t80.5 -2h18q18 -3 36 -3q11 0 19 1t14 3h-1q107 8 157 35h-2q26 9 43.5 19.5t28.5 22.5t18.5 25.5
t14.5 28.5v-1q5 9 7.5 16.5t2.5 24.5q0 24 -4 42.5t-9 32.5t-11 24t-10 17l1 -1q-2 2 -2.5 3.5t-2.5 3.5l1 -2q-9 20 -17 34t-13.5 24.5t-9 18.5t-3.5 17q0 8 5 13t11 5h3q34 -22 44 -22q11 0 24 8t13 19v6z" />
    <glyph glyph-name="v" unicode="v" horiz-adv-x="792" 
d="M770 540q-7 13 -25 13h-4q-4 0 -10 -1t-8 -1t-4 2q-39 6 -64 6h-10l-66.5 -3.5t-49.5 -1.5h-19q-23 -8 -23 -29q0 -9 14 -14.5t28 -5.5h5q14 0 24.5 -0.5t15.5 -1.5q-1 -22 -8 -43t-15 -38.5t-16.5 -31.5t-12.5 -22q-20 -39 -34.5 -69t-23.5 -51l1 2q-16 -23 -28 -44.5
t-20 -39.5t-13.5 -29.5t-8.5 -14.5h-2q-7 0 -12.5 6t-10 14.5t-8 16.5t-5.5 13l1 -1v2q-22 42 -42 75.5t-35.5 60t-24.5 46t-9 33.5q0 6 1 10v4q0 6 -4 16t-9 20t-9 19t-4 12q0 6 3.5 9t16.5 3h13q10 7 22 8t23 2t18.5 7t7.5 24q0 10 -9 16t-19.5 9t-19.5 3.5t-10 0.5
q-3 0 -8.5 -1.5t-10.5 -3.5l1 1q-5 -2 -11.5 -3.5t-8.5 -1.5h-1q-53 3 -94.5 4.5t-68.5 2.5l-28 -5q-19 -9 -19 -23v-5q2 -7 6 -11.5t16 -6.5q5 1 13 1q12 0 19.5 -3.5t14.5 -10.5t16 -18t25 -27q14 -17 14 -32q31 -46 52.5 -80t37 -60.5t26.5 -47t21 -39.5v1l3 -8
q14 -26 26.5 -51.5t12.5 -47.5q0 -19 -23 -19h-5q-7 0 -15.5 1t-14.5 1q-23 0 -32.5 -9.5t-12.5 -19.5v-1q0 -9 6 -14.5t15 -8t20 -3t20 -0.5h98q6 0 18 0.5t25.5 0t27.5 -2.5t24 -7h15q36 0 55.5 3t25.5 22q0 13 -14 20.5t-32.5 11t-36 4t-24.5 0.5h-4q-5 5 -7.5 9t-5.5 8
q1 2 3 5.5t4 8.5v-1q0 2 3 8.5t7 13.5q3 10 7 20t10 21.5t13.5 25.5t15.5 33h-1q6 8 8.5 14t4.5 11.5t6 10.5t12 11q8 5 14 11.5t7 14.5q17 25 27.5 44t18.5 33q17 24 30 42.5t20 32.5q2 7 4.5 13t7.5 13t13.5 15.5t22.5 21.5h6q3 0 6 -0.5t6 -0.5h12q18 0 28 9t11 32z" />
    <glyph glyph-name="w" unicode="w" horiz-adv-x="975" 
d="M955 535q-12 23 -43 28h-19t-30 -2h1q-11 0 -36 5l-35 5q-14 0 -23.5 -4t-16.5 -4q-6 0 -19.5 2t-20.5 2q-36 0 -46 -30v-2q0 -11 6 -17t15 -9.5t19.5 -5t18.5 -3.5q17 -31 17 -33q0 -4 -8 -12q0 -18 -7 -41t-16 -45.5t-17.5 -42.5t-11.5 -32q-11 -16 -22 -42.5t-20 -52
t-15 -45t-7 -21.5q-14 10 -20 20.5t-9.5 21.5l-7 22t-13.5 22q-2 8 -10 17.5t-8 12.5l5.5 5.5t13.5 12t16.5 11.5t15.5 5h4q20 11 20 25v6q-8 14 -28 14h-5q-35 5 -61.5 7.5t-46.5 2.5h-11q-14 -2 -25.5 -3t-19.5 -1q-3 0 -6 0.5t-5 0.5h-12q-9 -8 -21 -8h-32
q-8 -5 -12 -9.5t-4 -12.5v-3q0 -7 6.5 -12t14.5 -8t14.5 -4.5t7.5 -1.5q5 -1 9 -2t7 -3h-1q1 -1 6 -3.5l10 -5t9 -5t4 -3.5q0 -3 -3 -8.5t-6.5 -11.5l-7 -12t-3.5 -10q-12 -19 -19 -31.5t-16 -28.5l1 1l-10 -14t-10 -10q-15 20 -22.5 37t-11.5 29l1 -1q-1 3 -2.5 6l-2.5 5
l-11 31q-13 30 -22 57.5t-14 44.5q-11 11 -14 29l-8 35q-19 34 -19 81v5q5 5 14 5t18.5 1t17.5 6.5t11 21.5q-11 25 -24 29t-35 4h-8q-13 0 -30.5 -1t-29.5 -1q-23 0 -38 3h-11q-11 -1 -20.5 -1.5t-18.5 -0.5q-3 0 -6.5 0.5t-7.5 0.5h-13q-20 -10 -23 -30q9 -14 26 -18
t25 -5q16 -12 28.5 -28.5t23.5 -35t22.5 -38t26.5 -38.5q5 -7 9.5 -20t9 -26.5t9.5 -25.5t10 -17q2 -8 5 -14t5 -11q7 -17 11.5 -30t9 -25.5t9 -28t10.5 -36.5q12 -32 12 -47q0 -16 -10 -19.5t-21.5 -5.5t-21.5 -6.5t-10 -22.5q0 -15 14.5 -24.5t29.5 -9.5q10 0 17.5 3.5
t16.5 3.5q5 0 14.5 -1.5t19.5 -3.5t18.5 -3.5t11.5 -1.5q10 0 22 3q15 -5 33.5 -7t41.5 -2q39 22 39 42q0 7 -5.5 12.5t-13 10t-14.5 7t-10 3.5q-4 2 -12 2h-14q-6 0 -7.5 1t-1.5 6q0 16 7.5 34.5t17 34.5t19.5 28.5t15 17.5l-3 -1q6 4 9.5 9.5t8.5 9.5q36 -45 50 -67
t16 -31l1 -1q0 -1 -1 -1v-1v3q-1 -4 -1 -10q0 -4 3.5 -12.5t4.5 -10.5q0 -7 -7.5 -10.5t-17 -7t-17 -10t-7.5 -19.5v-5q13 -22 55 -24q10 2 12 2q1 0 6.5 -1t11.5 -2t11.5 -2t8.5 -1h9q7 -4 16 -5t19 -1q6 0 15.5 1t20 2t20.5 2t16 1l21 10q10 7 10 19q0 9 -7 16t-16.5 12
t-18.5 7.5t-12 2.5h-2q-6 5 -11.5 18t-5.5 22q10 24 19.5 51t17.5 51.5t14 44t10 28.5q6 15 10 26t7.5 20.5t7.5 20.5t9 26q6 16 17 31t24 29.5t26 28t21 27.5q7 11 21.5 13t29 3.5t25 7.5t10.5 26v4z" />
    <glyph glyph-name="x" unicode="x" horiz-adv-x="806" 
d="M784 518q-6 11 -15 16t-26 5q-8 0 -18.5 -1.5t-11.5 -1.5q-2 2 -4.5 2.5t-4.5 0.5q-19 -4 -59 -4q-20 0 -45.5 1t-55.5 3q-5 0 -9.5 -4t-7.5 -9t-5 -10t-2 -6q0 -11 8 -16.5t18 -8.5t19.5 -5t12.5 -8q-10 -15 -25 -30t-29.5 -27.5t-25.5 -21.5t-14 -12q-8 -4 -16 -11
t-16 -15.5t-15.5 -16t-13.5 -11.5h-1q-7 0 -12 6q-34 24 -58 39t-44.5 29t-39.5 29t-43 39q-9 6 -9 5v4q5 1 14.5 2t18.5 3.5t16 8t7 16.5q0 16 -16 23t-30 8l-9 -0.5t-20.5 -1.5t-21 -2t-11.5 -1h1q-32 3 -65 3q-10 0 -23 -0.5t-24 -3.5t-19 -9t-8 -16q0 -5 4 -8.5t9 -5.5
t10 -3.5t7 -1.5l-3 1q64 -22 87 -50q26 -12 42.5 -21t37.5 -24.5t53.5 -43t90.5 -77.5q-10 -3 -28 -18.5t-36.5 -32.5t-34 -31.5t-19.5 -17.5q-13 -15 -31 -31.5t-41 -32.5l-79 -56q-8 -8 -21.5 -9.5t-21.5 -1.5h-4q-6 0 -11 -4t-8.5 -9t-5.5 -10t-2 -6v-6q14 -15 23 -18
q34 -1 58.5 -2.5t38.5 -3.5q12 3 35 3q8 0 19 -1t20 -1q20 0 36 7t16 24q0 8 -5.5 14t-12.5 10.5t-14 6.5t-11 2h-2q24 28 42.5 47.5t33.5 32.5q15 23 32.5 34t31.5 21q6 5 12.5 11t11.5 8q9 -3 16.5 -7.5t19 -12t29.5 -21t48 -34.5q40 -29 65 -44.5t36 -29.5
q-11 -5 -23.5 -7t-24 -5t-19 -9t-7.5 -19v-5q16 -26 49 -26q18 0 48 5t59 5h9q15 0 29 -1t21 -1h8q13 5 19.5 13t8.5 17q-4 12 -23 25.5t-41.5 24.5t-43.5 19.5t-28 10.5q-28 22 -48 36.5t-38 26.5t-36.5 25.5t-43.5 34.5q-8 5 -19 13.5t-15 15.5q9 6 22.5 16t19.5 21
q42 34 72.5 61.5t50.5 47.5q22 5 44 27l35 31q12 12 32 16h-1l47 4q22 13 22 37zM434 249q1 1 6 3q-1 -3 -6 -3z" />
    <glyph glyph-name="y" unicode="y" horiz-adv-x="788" 
d="M768 192q-2 32 -9.5 54t-21 40.5t-32.5 36t-45 39.5v-1q-36 32 -59 53.5t-34 34.5l-3 33q3 3 10 12.5t7 17.5q0 14 -11 22.5t-24 8.5q-15 0 -29 -10t-28 -23.5t-27 -28.5t-26 -25q-16 -19 -30.5 -32.5t-14.5 -19.5v-3q0 -2 2 -7t6.5 -10.5t11.5 -9.5t16 -4q5 0 13 4l18 9
t21 9t23 4q13 0 26.5 -6.5t24 -14.5t17.5 -16t7 -12l-0.5 -1l-1.5 -3v1q-2 -2 -4.5 -10t-10.5 -26q-4 -12 -19.5 -27t-33.5 -29t-34.5 -25t-23.5 -16l-51 -17t-44 -16h-3q-10 0 -22.5 -2t-24.5 -4t-22 -4t-16 -2q-18 3 -39.5 2.5t-41 2.5t-35.5 12.5t-23 32.5v-1
q-2 8 -4 21.5t-6 35.5q2 14 3 23.5t6.5 21.5t17 31.5t34.5 53.5q22 13 33 20.5t16.5 11.5t7.5 5t6 1h11q3 0 6.5 -0.5t6.5 -0.5q16 0 25 9.5t9 17.5t-7.5 16t-20.5 13q-94 15 -147 40q-3 1 -7 1h-8q-12 0 -24.5 -5t-12.5 -21q0 -12 5.5 -18.5t14 -10t18 -6t18.5 -5.5
q-17 -17 -32.5 -39.5t-30.5 -48.5h1q-5 -8 -11 -18t-11 -18q-6 -31 -18 -40q-6 -27 -6 -49q0 -46 20 -80v2q2 -7 9 -14t15.5 -13t15.5 -11t9 -8q20 -11 46.5 -17.5t61.5 -6.5h12q13 -2 23.5 -3.5t21.5 -1.5q21 0 31 5h14q12 0 26 2.5t27.5 5.5t25 6.5t20.5 6.5h-1l16 3
q45 8 85.5 34.5t88.5 61.5l21 15q8 6 15 13l13 13l14 14q7 0 14.5 -9.5t14 -20.5t11 -21.5t5.5 -11.5l-1 1q1 -6 1.5 -13t0.5 -12q0 -45 -28 -64l1 1q-25 -12 -45.5 -19t-39 -11.5t-36 -8t-35.5 -8.5q-14 -3 -28.5 -6t-23.5 -3h-3q-4 -2 -14.5 -3.5t-22.5 -3t-23 -3.5
t-14 -3l-5 1.5t-11.5 3.5t-12.5 4.5t-9 3.5h1q-6 4 -16 7h-5q-7 0 -15.5 1t-14.5 1q-11 0 -19.5 -4.5t-8.5 -17.5q0 -6 7 -12.5t17 -13t22 -13t22 -11.5l16 -8h-1q15 -9 26.5 -19t21.5 -18.5t19.5 -14t20.5 -5.5h12q11 3 16.5 8.5t5.5 17.5q0 3 -2.5 7t-5.5 8t-5 6.5l-2 2.5
v-2q0 4 -1 10t-1 8v1q59 6 87.5 13.5t38.5 7.5h6q47 12 79.5 26t52.5 28t30 27.5t12 24.5q1 16 2.5 27t3.5 18v3zM351 7q0 1 -1 1v0z" />
    <glyph glyph-name="z" unicode="z" horiz-adv-x="817" 
d="M795 140q-10 17 -46 23q-26 -11 -34.5 -22t-11 -22t-4.5 -21.5t-15 -20.5l3 1q-6 -2 -9 -5l1 1q-5 -3 -14 -8t-18.5 -10.5t-19 -9t-16.5 -3.5q-8 0 -20 4.5t-40 4.5q-13 -2 -22.5 -2.5t-14.5 -1.5h-1q-20 3 -49 3.5t-67 0.5q-10 0 -19.5 -0.5t-18.5 -0.5h-27q-27 0 -45 3
q-5 -1 -10 -1h-10q-14 0 -24 3t-10 8q-5 1 4.5 10.5t23.5 23t27 28.5t16 28q32 30 57 49t44.5 32.5t35 23.5t28.5 21q18 13 31.5 21.5t24.5 15t21 13t22 15.5q38 23 60.5 45.5t37.5 30.5q13 13 31.5 25.5t32.5 12.5h8q5 0 11 3.5t11 5.5h-1q14 7 21 13t7 18q0 17 -16.5 26.5
t-28.5 9.5q-7 0 -11 -1q-7 1 -14.5 1.5t-16.5 0.5q-15 0 -34.5 -1t-33.5 -1h-13q-5 0 -10 1q-12 -4 -34 -4q-13 0 -27 1t-26 1q-16 0 -21 -1q-5 1 -11 1.5t-12 0.5q-20 0 -40 -7q-5 2 -23 4.5t-41 2.5q-11 0 -25 -3.5t-22 -3.5q-12 4 -35 4h-12q-3 0 -6.5 -0.5t-6.5 -0.5
q-7 1 -15 1.5t-16 0.5q-9 0 -21 -1t-25 -2.5t-25 -2.5t-19 -1q-17 0 -35.5 5t-39.5 5q-20 0 -32 -12.5t-16 -32.5v-51q-1 -6 -1.5 -11.5t-0.5 -12.5q0 -30 10 -47t34 -17q10 0 18 7.5t13.5 17t8.5 18.5t3 12q0 5 -1.5 12t-1.5 11q0 17 18.5 29t44.5 12h9q8 -2 18 -3t20 -3
q18 5 42.5 6.5t55.5 1.5q16 0 33 -0.5t37 -1.5h11q5 1 14 1q11 0 26 -2.5t29.5 -5.5t27 -5.5t19.5 -2.5q17 0 36.5 4t33.5 4q7 0 9 -4.5t3 -6.5q-3 -6 -5 -8t-7 -5.5t-14.5 -10t-25.5 -20.5q-45 -41 -79 -57h1q-20 -9 -41 -24.5t-41 -32.5l-18 -15q-15 -7 -33.5 -19.5
t-38 -28t-40 -32t-38.5 -31.5q-21 -9 -31.5 -16.5t-20 -16.5t-21.5 -20.5t-35 -26.5q-14 -16 -27 -24.5t-23.5 -15t-18.5 -13.5t-11 -21v-1q0 -8 6 -13t13.5 -8t14 -4t7.5 -1h16q17 0 42 1t51.5 2.5t52 3t42.5 1.5q66 0 114 -2t82 -2h98q59 -2 95 -12q17 -1 29.5 -1.5
t20.5 -2.5q21 8 31.5 27.5t17.5 36.5q1 4 7.5 16t13.5 27t12.5 29.5t5.5 23.5z" />
    <glyph glyph-name="FL007Bh" unicode="{" 
 />
    <glyph glyph-name="FL007Ch" unicode="|" 
 />
    <glyph glyph-name="FL007Dh" unicode="}" 
 />
    <glyph glyph-name="FL007Eh" unicode="~" 
 />
    <glyph glyph-name="FL2018h" unicode="&#x2018;" horiz-adv-x="206" 
d="M184 564q2 5 2 7v4q0 21 -10.5 33t-23.5 19t-24 9t-12 2q-44 0 -61 -30l-21 -54q-8 -19 -11 -34t-3 -27q0 -32 13.5 -51t47.5 -24q33 9 33 35q0 3 -2 9.5t-5 14.5t-5 15.5t-2 12.5t3 10q61 1 81 49z" />
    <glyph glyph-name="FL2019h" unicode="&#x2019;" horiz-adv-x="203" 
d="M25 497q-4 -11 -4 -20q0 -18 7 -29t18 -17.5t25.5 -9t29.5 -3.5q12 3 15.5 4t13.5 4q19 28 29 45.5t15 30t6 22t1 21.5v14q0 32 -9.5 48.5t-41.5 28.5q-1 0 -1.5 0.5t-1.5 0.5q-6 0 -11.5 -4t-10 -9.5t-7 -10.5t-2.5 -8q0 -8 6.5 -20t6.5 -17v-1v1v-1q-1 -21 -5 -26h-4
t-8 1q-50 -5 -67 -44v-1z" />
    <glyph glyph-name="quotedblleft" unicode="&#x201c;" horiz-adv-x="368" 
d="M194 567q1 5 1 10q0 21 -11 33.5t-24.5 19t-25 9t-12.5 2.5q-46 0 -65 -30l-22 -54q-8 -20 -11.5 -35t-3.5 -27q0 -32 14.5 -51t49.5 -24q35 9 35 35q0 3 -2 10t-5 15t-5 15.5t-2 11.5q0 5 3 10q64 1 86 49v1zM343 550q4 11 4 20q0 19 -7 30.5t-18.5 17.5t-26.5 8.5
t-32 2.5l-29 -6q-21 -26 -29 -39.5t-10 -15.5q-8 -22 -12 -41.5t-4 -38.5q0 -33 11.5 -50t42.5 -28h7q11 5 20 14.5t9 19.5q0 7 -3.5 15t-6.5 15v-1q-2 3 -3.5 5.5l-1.5 2.5q3 17 6 27q2 0 4.5 -0.5t8.5 -1.5q51 4 70 43v1z" />
    <glyph glyph-name="quotedblright" unicode="&#x201d;" horiz-adv-x="368" 
d="M174 481q0 -1 -0.5 -1.5t-0.5 -1.5v-3q0 -18 9.5 -31t21.5 -20.5t24 -11t18 -3.5q9 0 20 1.5t21 5.5t16.5 9.5t6.5 13.5q0 10 -10 10q-3 0 -5 -2q21 21 23 21q1 0 1 -2q0 -5 -6 -21v-1q3 7 8.5 21.5t11.5 30.5t10 31.5t4 26.5q0 31 -12.5 50t-50.5 25q-17 -5 -26 -12.5
t-9 -21.5q0 -6 2 -13t4 -15v1l7 -26q0 -6 -3 -10q-67 -2 -84 -47zM24 499q-4 -11 -4 -20q0 -18 7 -29t19 -17.5t27 -9t31 -3.5q13 2 16.5 3t14.5 5q20 28 31 45.5t16 30t6 22.5t1 22v13q0 32 -10 49t-44 29q-1 0 -1.5 0.5t-1.5 0.5q-6 0 -12 -4t-10.5 -9.5t-7 -11t-2.5 -8.5
q0 -7 5.5 -20t8.5 -16v-1v1v-1q-3 -21 -6 -27h-5q-2 0 -8 1q-52 -5 -71 -44v-1z" />
    <glyph glyph-name="endash" unicode="&#x2013;" horiz-adv-x="739" 
d="M716 299q-2 4 -2 9q0 3 1 8.5t1 12.5q0 18 -10.5 25t-27.5 7q-27 0 -43 -19q-23 -3 -46 -5t-48 -4q-4 1 -8.5 1.5t-10.5 0.5q-11 0 -25 -2t-25 -2h-9t-6 1q-20 -3 -42 -3q-51 0 -80.5 2t-47.5 4t-29 4t-25 2l-58 -5q-17 -1 -32 -2t-22 -1q-12 0 -21.5 2.5t-17.5 6
t-16.5 6t-17.5 2.5q-17 -9 -22 -17.5t-5 -16.5v-11q0 -32 10 -46.5t36 -14.5q8 0 17 4t20 8.5t25.5 8.5t33.5 4q16 0 33.5 -1t28.5 -1q13 0 19.5 0.5t9.5 1.5q80 -4 122.5 -6.5t66 -4t37 -2t34.5 -0.5h28q5 -2 13 -2h20h26l-8 2q0 1 13 2t29 2t31 1h18l4 -16q29 14 29 50z
" />
    <glyph glyph-name="emdash" unicode="&#x2014;" horiz-adv-x="739" 
d="M716 299q-2 4 -2 9q0 3 1 8.5t1 12.5q0 18 -10.5 25t-27.5 7q-27 0 -43 -19q-23 -3 -46 -5t-48 -4q-4 1 -8.5 1.5t-10.5 0.5q-11 0 -25 -2t-25 -2h-9t-6 1q-20 -3 -42 -3q-51 0 -80.5 2t-47.5 4t-29 4t-25 2l-58 -5q-17 -1 -32 -2t-22 -1q-12 0 -21.5 2.5t-17.5 6
t-16.5 6t-17.5 2.5q-17 -9 -22 -17.5t-5 -16.5v-11q0 -32 10 -46.5t36 -14.5q8 0 17 4t20 8.5t25.5 8.5t33.5 4q16 0 33.5 -1t28.5 -1q13 0 19.5 0.5t9.5 1.5q80 -4 122.5 -6.5t66 -4t37 -2t34.5 -0.5h28q5 -2 13 -2h20h26l-8 2q0 1 13 2t29 2t31 1h18l4 -16q29 14 29 50z
" />
    <glyph glyph-name="FL02DCh" unicode="&#x2dc;" 
 />
    </font>
</defs>
</svg>
